<svg width="754" height="265" viewBox="0 0 754 265" fill="none" xmlns="http://www.w3.org/2000/svg">
<path opacity="0.1" d="M216.1 0.919922L207.17 15.3499C206.323 15.1513 205.459 15.0341 204.59 14.9999L213.3 0.679932L216.1 0.919922Z" fill="black"/>
<path opacity="0.1" d="M102.243 105.3C102.78 106.076 103.204 106.925 103.503 107.82C114.243 120.45 119.973 132.23 109.643 132.52C100.013 132.8 88.4729 150 85.7129 154.35C85.8029 154.68 85.9129 155.01 86.0329 155.35C86.0329 155.35 99.5729 132.85 110.583 132.53C121.593 132.21 114.403 118.83 102.243 105.3Z" fill="black"/>
<path d="M113.653 115.53C113.653 118.35 113.333 120.64 112.943 120.64C112.553 120.64 112.233 118.35 112.233 115.53C112.233 112.71 112.633 114.03 113.023 114.03C113.413 114.03 113.653 112.71 113.653 115.53Z" fill="#FFD037"/>
<path d="M117.563 118.9C115.083 120.25 112.923 121.07 112.733 120.73C112.543 120.39 114.413 119.01 116.893 117.66C119.373 116.31 118.393 117.29 118.583 117.66C118.773 118.03 120.043 117.55 117.563 118.9Z" fill="#FFD037"/>
<path d="M69.833 105.3C69.833 105.3 63.693 113.3 72.663 125.44C81.633 137.58 89.023 147.79 86.033 155.34C86.033 155.34 72.503 132.84 61.493 132.52C50.483 132.2 57.713 118.83 69.833 105.3Z" fill="#3498DB"/>
<path opacity="0.1" d="M69.8333 106.3C69.2964 107.076 68.8722 107.925 68.5733 108.82C57.8333 121.45 52.1033 133.25 62.4033 133.52C72.0233 133.8 83.5733 151 86.3333 155.35C86.2417 155.689 86.1315 156.023 86.0033 156.35C86.0033 156.35 72.4733 133.85 61.4633 133.53C50.4533 133.21 57.7133 119.83 69.8333 106.3Z" fill="black"/>
<path d="M58.4033 115.53C58.4033 118.35 58.7233 120.64 59.1133 120.64C59.5033 120.64 59.8233 118.35 59.8233 115.53C59.8233 112.71 59.4233 114.03 59.0333 114.03C58.6433 114.03 58.4033 112.71 58.4033 115.53Z" fill="#FFD037"/>
<path d="M54.5134 118.9C56.9934 120.25 59.1534 121.07 59.3334 120.73C59.5134 120.39 57.6634 119.01 55.1834 117.66C52.7034 116.31 53.6834 117.29 53.4934 117.66C53.3034 118.03 52.0334 117.55 54.5134 118.9Z" fill="#FFD037"/>
<path opacity="0.2" d="M117.144 176.38C97.7736 176.53 72.1436 173.38 66.9736 170.21C63.0436 167.82 61.4736 159.21 60.9736 155.27H60.3936C60.3936 155.27 61.4836 169.11 66.6436 172.27C71.8036 175.43 97.4436 178.59 116.814 178.43C122.404 178.43 124.334 176.43 124.234 173.43C123.404 175.25 121.304 176.34 117.144 176.38Z" fill="black"/>
<path opacity="0.1" d="M366.332 134.079C383.842 128.745 411.322 127.662 436.334 128.082C514.906 129.416 585.83 142.386 647.176 157.057C669.356 162.368 691.251 168.091 705.668 175.404C735.013 190.292 726.312 210.919 685.501 223.184C671.619 227.357 654.791 230.556 637.508 233.393C606.798 238.436 573.637 242.483 538.769 243.636C513.905 244.456 488.723 243.789 464.013 242.642C394.943 239.441 327.148 232.359 270.328 220.242C245.407 214.927 221.92 208.321 211.643 199.726C201.367 191.131 207.947 180.235 233.396 175.146C243.917 173.04 256.503 172.091 268.821 171.198C286.957 169.884 305.383 168.588 321.745 165.916C338.653 163.159 358.665 157.823 355.299 151.721C351.727 145.161 348.844 139.407 366.332 134.079Z" fill="#3498DB"/>
<path d="M225.748 146.208C225.748 146.208 215.488 149.998 214.148 153.608C212.808 157.218 207.898 158.938 207.898 158.938C191.488 164.048 187.048 157.988 186.168 152.108C185.828 149.39 186.005 146.631 186.688 143.978L210.798 133.898C210.798 133.898 214.068 128.838 218.478 126.978C219.868 126.335 221.425 126.143 222.93 126.43C224.435 126.717 225.812 127.468 226.868 128.578C234.778 135.868 225.748 146.208 225.748 146.208Z" fill="#464A5F"/>
<path opacity="0.1" d="M80.14 158.3C124.4 158.3 160.28 147.788 160.28 134.82C160.28 121.852 124.4 111.34 80.14 111.34C35.8799 111.34 0 121.852 0 134.82C0 147.788 35.8799 158.3 80.14 158.3Z" fill="#3498DB"/>
<path opacity="0.1" d="M95.3428 182.3C113.8 182.3 128.763 179.771 128.763 176.65C128.763 173.53 113.8 171 95.3428 171C76.8855 171 61.9229 173.53 61.9229 176.65C61.9229 179.771 76.8855 182.3 95.3428 182.3Z" fill="#3498DB"/>
<path d="M102.243 106.3C102.243 106.3 108.383 114.3 99.4128 126.44C90.4428 138.58 83.0428 148.79 86.0328 156.34C86.0328 156.34 99.5728 133.84 110.583 133.52C121.593 133.2 114.403 119.83 102.243 106.3Z" fill="#3498DB"/>
<path d="M60.4033 154.25C60.4033 154.25 77.5633 153.72 82.7333 150.04C87.9033 146.36 109.123 141.96 110.413 147.87C111.703 153.78 136.193 177.23 116.823 177.39C97.4533 177.55 71.8233 174.39 66.6533 171.23C61.4833 168.07 60.4033 154.25 60.4033 154.25Z" fill="#5F5D7E"/>
<path d="M631 165.15C631 165.15 651.07 164.53 657.12 160.22C663.17 155.91 688.01 150.77 689.51 157.68C691.01 164.59 719.68 192.05 697.01 192.23C674.34 192.41 644.35 188.7 638.31 185.02C632.27 181.34 631 165.15 631 165.15Z" fill="#5F5D7E"/>
<path d="M611.34 191.043C632.515 191.043 649.68 188.142 649.68 184.563C649.68 180.984 632.515 178.083 611.34 178.083C590.165 178.083 573 180.984 573 184.563C573 188.142 590.165 191.043 611.34 191.043Z" fill="#3498DB"/>
<path d="M627.19 173.963C628.937 172.532 630.213 170.609 630.85 168.443C631.32 166.253 630.39 163.633 628.29 162.823C625.95 161.933 623.44 163.553 621.54 165.203C619.64 166.853 617.46 168.713 614.97 168.363C616.248 167.203 617.204 165.733 617.746 164.094C618.287 162.456 618.395 160.705 618.06 159.013C617.954 158.312 617.656 157.655 617.2 157.113C615.9 155.723 613.54 156.313 611.98 157.413C606.98 160.903 605.64 167.633 605.61 173.703C605.11 171.513 605.53 169.233 605.52 166.993C605.51 164.753 604.89 162.263 603 161.053C601.821 160.422 600.497 160.111 599.16 160.153C596.93 160.073 594.45 160.293 592.92 161.923C591.03 163.923 591.52 167.353 593.17 169.583C594.82 171.813 597.32 173.203 599.62 174.743C601.467 175.846 603.042 177.349 604.23 179.143C604.371 179.393 604.485 179.658 604.57 179.933H618.57C621.701 178.343 624.601 176.335 627.19 173.963Z" fill="#3498DB"/>
</svg>
