<svg width="246" height="197" viewBox="0 0 246 197" fill="none" xmlns="http://www.w3.org/2000/svg">
<path d="M220.8 -1.52588e-05C228.533 -1.52588e-05 234.667 2.39999 239.2 7.19999C243.733 11.7333 246 17.8667 246 25.6V260.4C246 268.133 243.6 274.4 238.8 279.2C234.267 284 228.267 286.4 220.8 286.4C213.067 286.4 206.933 284 202.4 279.2C197.867 274.4 195.6 268.133 195.6 260.4V161.6H51.2V260.4C51.2 268.133 48.8 274.4 44 279.2C39.4667 284 33.3333 286.4 25.6 286.4C18.1333 286.4 12 284 7.2 279.2C2.66667 274.4 0.400002 268.133 0.400002 260.4V25.6C0.400002 17.8667 2.66667 11.7333 7.2 7.19999C11.7333 2.39999 17.8667 -1.52588e-05 25.6 -1.52588e-05C33.3333 -1.52588e-05 39.4667 2.39999 44 7.19999C48.8 11.7333 51.2 17.8667 51.2 25.6V120H195.6V25.6C195.6 17.8667 197.867 11.7333 202.4 7.19999C206.933 2.39999 213.067 -1.52588e-05 220.8 -1.52588e-05Z" fill="white" fill-opacity="0.3"/>
</svg>
