<svg width="693" height="418" viewBox="0 0 693 418" fill="none" xmlns="http://www.w3.org/2000/svg">
<g clip-path="url(#clip0)">
<path d="M471.461 238.625L477.404 237.596C477.974 237.496 478.54 237.374 479.109 237.271C469.704 231.423 462.564 222.545 458.862 212.095C455.161 201.645 455.119 190.244 458.742 179.767C462.365 169.289 469.438 160.357 478.8 154.439C488.161 148.521 499.254 145.968 510.255 147.201L502.467 165.764L520.92 149.625C520.963 149.636 521.005 149.65 521.046 149.668C527.088 151.799 532.652 155.102 537.421 159.388C542.189 163.674 546.067 168.858 548.835 174.645C551.603 180.433 553.205 186.709 553.551 193.117C553.897 199.524 552.98 205.938 550.851 211.99C550.543 212.87 550.175 213.711 549.823 214.561C555.032 211.939 560.029 208.887 564.105 204.979C572.355 197.06 576.876 186.132 581.927 172.669C591.935 145.989 601.571 118.923 610.822 91.7984C600.619 86.2678 592.718 77.2744 588.54 66.4335C584.361 55.5926 584.179 43.6146 588.025 32.651C588.521 31.2405 589.095 29.8823 589.704 28.5483C589.856 28.2145 590.01 27.8828 590.168 27.5537C590.787 26.2748 591.44 25.0218 592.157 23.8193C592.274 23.6221 592.405 23.4376 592.525 23.2426C593.148 22.2287 593.806 21.2448 594.498 20.2909C594.756 19.9327 595.013 19.5756 595.279 19.2259C596.063 18.1988 596.876 17.1994 597.732 16.2453C598.018 15.926 598.322 15.6277 598.615 15.3167C599.273 14.6214 599.949 13.947 600.643 13.2937C601.009 12.9497 601.371 12.6033 601.747 12.2715C601.843 12.1864 601.933 12.0935 602.03 12.0091C602.035 12.0153 602.039 12.022 602.043 12.0282C610.636 4.52773 621.581 0.2802 632.976 0.0238C644.37 -0.232601 655.495 3.51833 664.415 10.6247L654.28 34.7822L672.523 18.8352C678.908 26.9826 682.526 36.9604 682.85 47.3127C683.175 57.6651 680.188 67.8505 674.326 76.383C674.343 76.3889 674.36 76.3935 674.377 76.3994C674.178 76.6926 673.952 76.961 673.747 77.249C673.362 77.7895 672.968 78.3204 672.565 78.8417C672.047 79.5102 671.509 80.1563 670.959 80.7936C670.545 81.2746 670.136 81.7596 669.704 82.2223C669.072 82.8992 668.41 83.5401 667.744 84.1774C667.355 84.5491 666.983 84.9397 666.583 85.2978C665.535 86.2361 664.45 87.1264 663.329 87.9687C662.935 88.2637 662.52 88.5239 662.119 88.8064C661.332 89.361 660.541 89.9075 659.724 90.4136C659.216 90.7276 658.696 91.0145 658.178 91.3096C657.429 91.7371 656.674 92.1514 655.904 92.5383C655.357 92.8126 654.807 93.0729 654.251 93.3267C653.46 93.6878 652.659 94.0227 651.85 94.3415C651.306 94.5552 650.766 94.7716 650.215 94.9659C649.307 95.2865 648.385 95.565 647.457 95.8316C646.989 95.9663 646.529 96.1205 646.056 96.2411C644.665 96.5965 643.258 96.8991 641.835 97.1309C641.568 97.1746 641.295 97.1911 641.027 97.2303C639.847 97.4022 638.661 97.5409 637.466 97.6257C636.952 97.662 636.435 97.6672 635.919 97.6873C634.953 97.725 633.986 97.7442 633.013 97.7233C632.446 97.7113 631.879 97.6819 631.311 97.6498C630.364 97.5961 629.416 97.5135 628.467 97.402C627.907 97.3369 627.347 97.2723 626.786 97.1872C625.77 97.0328 624.755 96.8308 623.739 96.6096C623.673 96.5951 623.606 96.5863 623.539 96.5715C619.635 108.015 615.658 119.434 611.608 130.829C616.547 126.381 622.341 122.99 628.635 120.865C634.929 118.741 641.59 117.927 648.209 118.473C654.828 119.02 661.266 120.915 667.128 124.044C672.99 127.172 678.151 131.467 682.296 136.665L665.431 155.348L688.266 146.217C693.812 157.867 694.514 171.247 690.217 183.415C688.728 187.691 686.642 191.734 684.021 195.423C678.379 203.417 670.469 209.528 661.317 212.963C652.166 216.399 642.195 217.001 632.697 214.691C623.2 212.381 614.615 207.266 608.055 200.009C601.496 192.753 597.264 183.689 595.91 173.994C595.481 175.142 595.067 176.304 594.637 177.451C590.179 189.329 584.633 204.111 573.495 214.797C565.945 222.041 556.657 226.637 547.745 230.522C541.942 233.052 536.061 235.391 530.104 237.538C523.48 241.561 515.998 243.95 508.272 244.508C498.872 247.123 489.353 249.307 479.745 250.992L473.754 252.027C468.37 252.951 462.849 253.902 457.37 254.998C458.159 255.232 458.949 255.456 459.734 255.733C469.497 259.174 477.914 265.636 483.77 274.184C489.626 282.732 492.616 292.924 492.31 303.286L454.752 314.833L488.737 320.239C485.629 327.892 480.634 334.631 474.22 339.826C467.806 345.022 460.182 348.504 452.06 349.948C443.938 351.391 435.583 350.75 427.776 348.082C419.969 345.415 412.964 340.809 407.416 334.695C407.761 335.853 408.107 337.009 408.455 338.163C409.145 340.456 409.829 342.737 410.487 344.996C419.429 375.775 415.581 399.987 399.647 413.168L391.002 402.685C406.509 389.854 401.698 363.414 397.452 348.794C396.807 346.576 396.133 344.335 395.456 342.082C389.631 322.7 383.028 300.731 391.58 280.543C404.468 250.115 441.614 243.744 471.461 238.625Z" fill="#3498DB" fill-opacity="0.28"/>
<path d="M460.453 417.117H197.303C188.673 417.117 180.397 413.683 174.295 407.571C168.193 401.459 164.765 393.169 164.765 384.526V263.764C164.765 262.011 165.122 260.275 165.813 258.664C166.505 257.053 167.517 255.6 168.787 254.394L308.231 121.995C313.806 116.701 321.196 113.751 328.878 113.751C336.56 113.751 343.949 116.701 349.525 121.995L482.477 248.23C485.798 251.384 488.443 255.182 490.251 259.393C492.059 263.604 492.991 268.14 492.991 272.724V384.526C492.991 388.805 492.149 393.044 490.514 396.998C488.879 400.952 486.482 404.545 483.461 407.571C480.439 410.597 476.852 412.998 472.905 414.636C468.957 416.274 464.726 417.117 460.453 417.117V417.117Z" fill="#3F3D56"/>
<path opacity="0.1" d="M164.765 265.747H490.256V397.437C490.256 402.656 488.186 407.662 484.501 411.353C480.817 415.043 475.819 417.117 470.609 417.117H184.413C179.202 417.117 174.204 415.043 170.52 411.353C166.835 407.662 164.765 402.656 164.765 397.437V265.747V265.747Z" fill="black"/>
<path d="M431.667 161.98H225.406C215.518 161.98 207.503 170.009 207.503 179.912V386.513C207.503 396.417 215.518 404.445 225.406 404.445H431.667C441.554 404.445 449.569 396.417 449.569 386.513V179.912C449.569 170.009 441.554 161.98 431.667 161.98Z" fill="#3498DB"/>
<path opacity="0.1" d="M449.569 271.193V404.446H207.503V271.193L328.536 329.788L449.569 271.193Z" fill="black"/>
<path d="M328.536 337.322L173.454 262.242C172.495 261.778 171.433 261.565 170.37 261.624C169.306 261.682 168.274 262.011 167.372 262.578C166.469 263.145 165.725 263.932 165.21 264.866C164.694 265.8 164.423 266.85 164.423 267.917V397.095C164.423 399.679 164.932 402.238 165.919 404.626C166.906 407.013 168.353 409.183 170.178 411.01C172.002 412.838 174.168 414.287 176.552 415.276C178.936 416.265 181.49 416.774 184.071 416.774H473.002C475.582 416.774 478.137 416.265 480.52 415.276C482.904 414.287 485.07 412.838 486.894 411.01C488.719 409.183 490.166 407.013 491.153 404.626C492.141 402.238 492.649 399.679 492.649 397.095V270.13C492.649 268.828 492.319 267.547 491.69 266.407C491.06 265.268 490.152 264.307 489.051 263.615C487.95 262.923 486.691 262.522 485.393 262.451C484.095 262.379 482.8 262.639 481.629 263.205L328.536 337.322Z" fill="#3F3D56"/>
<path d="M296.056 184.24H228.359V193.829H296.056V184.24Z" fill="#F2F2F2"/>
<path d="M423.927 219.172H222.889V224.651H423.927V219.172Z" fill="#F2F2F2"/>
<path d="M423.927 237.665H222.889V243.144H423.927V237.665Z" fill="#F2F2F2"/>
<path d="M423.927 256.158H222.889V261.638H423.927V256.158Z" fill="#F2F2F2"/>
<path d="M0 332.433C0 372.817 25.2929 405.494 56.5501 405.494Z" fill="#46455B"/>
<path d="M56.5503 405.494C56.5503 364.657 84.7757 331.612 119.657 331.612Z" fill="#3498DB"/>
<path d="M20.489 336.094C20.489 374.454 36.6178 405.495 56.5499 405.495Z" fill="#3498DB"/>
<path d="M56.5503 405.495C56.5503 353.313 89.1745 311.089 129.492 311.089Z" fill="#46455B"/>
<path d="M44.6533 406.01C44.6533 406.01 52.6731 405.762 55.09 404.038C57.5069 402.314 67.4264 400.256 68.026 403.021C68.6255 405.785 80.0781 416.771 71.0239 416.845C61.9696 416.918 49.9859 415.432 47.5736 413.96C45.1613 412.488 44.6533 406.01 44.6533 406.01Z" fill="#A8A8A8"/>
<path opacity="0.2" d="M71.1855 415.882C62.1312 415.955 50.1475 414.47 47.7352 412.998C45.8981 411.877 45.166 407.855 44.9211 405.999C44.7514 406.007 44.6533 406.01 44.6533 406.01C44.6533 406.01 45.1613 412.488 47.5736 413.96C49.9859 415.432 61.9697 416.918 71.0239 416.845C73.6375 416.824 74.5403 415.892 74.4907 414.513C74.1276 415.346 73.1308 415.867 71.1855 415.882Z" fill="black"/>
<path d="M492.142 111.486C491.731 115.154 488.939 118.108 487.904 121.65C486.346 126.981 489.04 132.702 492.723 136.854C495.696 140.169 499.296 142.86 503.314 144.771C507.332 146.682 511.689 147.775 516.133 147.987C517.438 148.102 518.753 147.959 520.003 147.565C521.119 147.115 522.124 146.427 522.948 145.549C525.722 142.759 527.211 138.893 527.805 135C528.398 131.107 528.168 127.141 527.935 123.209C527.937 122.397 527.789 121.591 527.501 120.831C527.122 120.108 526.603 119.468 525.972 118.95C523.975 117.114 521.775 115.513 519.415 114.178C518.348 113.699 517.407 112.978 516.667 112.072C516.221 111.296 515.932 110.439 515.818 109.551L515.093 105.853C514.964 104.787 514.601 103.763 514.029 102.855C512.75 101.126 510.301 100.891 508.154 100.806L500.287 100.497C497.84 100.401 494.615 99.698 492.226 100.179C489.995 100.629 490.736 102.688 491.142 104.563C491.729 106.827 492.065 109.149 492.142 111.486V111.486Z" fill="#A0616A"/>
<path opacity="0.1" d="M492.142 111.486C491.731 115.154 488.939 118.108 487.904 121.65C486.346 126.981 489.04 132.702 492.723 136.854C495.696 140.169 499.296 142.86 503.314 144.771C507.332 146.682 511.689 147.775 516.133 147.987C517.438 148.102 518.753 147.959 520.003 147.565C521.119 147.115 522.124 146.427 522.948 145.549C525.722 142.759 527.211 138.893 527.805 135C528.398 131.107 528.168 127.141 527.935 123.209C527.937 122.397 527.789 121.591 527.501 120.831C527.122 120.108 526.603 119.468 525.972 118.95C523.975 117.114 521.775 115.513 519.415 114.178C518.348 113.699 517.407 112.978 516.667 112.072C516.221 111.296 515.932 110.439 515.818 109.551L515.093 105.853C514.964 104.787 514.601 103.763 514.029 102.855C512.75 101.126 510.301 100.891 508.154 100.806L500.287 100.497C497.84 100.401 494.615 99.698 492.226 100.179C489.995 100.629 490.736 102.688 491.142 104.563C491.729 106.827 492.065 109.149 492.142 111.486V111.486Z" fill="black"/>
<path d="M542.188 276.562C541.074 288.803 539.959 301.043 538.845 313.28C537.972 322.911 537.083 332.581 535.371 342.087C534.78 345.363 534.088 348.622 533.266 351.853C530.981 360.824 527.665 369.592 526.595 378.788C526.562 379.053 526.534 379.324 526.505 379.595C526.386 381.628 526.002 383.637 525.363 385.571C524.828 386.975 524.006 388.255 523.426 389.642C522.272 392.417 522.12 395.484 521.98 398.489C517.92 396.203 513.476 394.681 508.869 394.001C506.646 393.668 504.169 393.431 502.654 391.768C500.977 389.93 501.163 387.116 501.444 384.647C502.328 376.978 503.21 369.314 504.09 361.653C504.377 358.357 504.936 355.09 505.762 351.887C506.066 350.821 506.432 349.772 506.803 348.724C507.315 347.28 507.833 345.837 508.222 344.354C508.781 341.958 509.173 339.525 509.393 337.075C510.299 329.361 511.391 321.665 512.348 313.957L512.399 313.551C513.834 301.868 514.926 290.128 514.611 278.361C514.566 276.618 514.493 274.876 514.38 273.128C514.222 270.597 513.992 269.255 516.086 267.67C518.399 265.922 521.445 264.699 524.09 263.554C525.515 262.934 541.198 257.357 541.564 258.581C542.299 261.191 542.685 263.887 542.712 266.599C542.723 269.927 542.548 273.253 542.188 276.562Z" fill="#605D82"/>
<path opacity="0.1" d="M535.372 342.087C534.78 345.363 534.088 348.622 533.266 351.853C530.981 360.824 527.665 369.592 526.596 378.788C526.562 379.053 526.534 379.324 526.506 379.594C519.514 369.592 513.626 358.833 506.803 348.724C507.315 347.28 507.833 345.837 508.222 344.354C508.782 341.958 509.173 339.525 509.393 337.074C510.299 329.361 511.391 321.664 512.348 313.957L512.399 313.551C512.799 315.187 513.371 316.776 514.104 318.293C518.687 327.619 529.573 332.332 534.899 341.258C535.062 341.534 535.22 341.811 535.372 342.087Z" fill="black"/>
<path d="M478.64 260.081C478.871 267.561 480.066 274.973 481.259 282.361L483.72 297.603C485.068 305.945 486.47 314.457 490.411 321.929C493.36 327.518 497.607 332.288 501.45 337.302C510.897 349.63 517.994 363.594 526.952 376.283C529.556 379.971 533.277 383.96 537.721 383.19C540.637 382.684 542.756 380.252 545.048 378.377C547.751 376.166 551.008 374.549 553.135 371.777C555.261 369.006 555.678 364.4 552.797 362.428C551.755 361.85 550.648 361.396 549.499 361.077C545.033 359.375 542.142 355.007 540.303 350.589C538.464 346.172 537.349 341.422 534.898 337.313C529.573 328.388 518.685 323.674 514.102 314.345C511.535 309.119 511.29 303.097 511.094 297.276L510.593 282.439C510.539 280.817 510.496 279.129 511.155 277.646C512.908 273.696 518.201 273.329 522.487 272.828C527.352 272.257 532.064 270.768 536.375 268.439C538.844 267.104 541.256 265.401 542.576 262.922C543.781 260.66 543.948 258.007 544.089 255.447L545.573 228.558C545.701 226.245 545.817 223.853 545.003 221.684C542.959 216.238 536.094 214.459 530.292 214.719C519.495 215.202 509.527 219.855 499.347 222.996C496.825 223.793 494.265 224.462 491.676 225C489.391 225.46 486.626 225.269 484.447 226.005C480.572 227.313 480.67 235.802 480.121 239.324C478.986 246.182 478.49 253.131 478.64 260.081V260.081Z" fill="#605D82"/>
<path d="M536.255 384.317C537.207 385.279 537.518 386.688 537.766 388.02C539.142 395.405 539.857 402.899 539.904 410.412C539.84 411.112 539.98 411.817 540.306 412.44C540.574 412.812 540.938 413.105 541.358 413.287C544.11 414.601 547.304 412.77 549.597 410.758C553.847 407.028 557.444 402.022 557.686 396.367C557.641 394.91 557.692 393.452 557.838 392.002C558.211 389.873 559.453 388.018 560.546 386.155C562.407 382.983 563.909 379.612 565.022 376.106C565.44 374.788 565.718 373.129 564.687 372.21C564.322 371.923 563.907 371.707 563.462 371.572L551.032 366.949C549.955 366.549 547.274 373.445 546.849 374.199C545.808 376.043 544.773 377.09 542.686 377.516C540.554 377.951 538.017 377.327 536.029 378.392C532.665 380.194 534.35 382.393 536.255 384.317Z" fill="#535070"/>
<path d="M517.074 388.573C516.843 388.113 516.521 387.704 516.128 387.372C515.553 387.006 514.898 386.784 514.22 386.722C511.853 386.32 509.048 386.055 507.415 387.817C505.883 389.469 506.147 392.159 504.867 394.013C504.461 394.6 503.912 395.084 503.561 395.705C503.125 396.654 502.928 397.695 502.988 398.738C502.922 401.612 502.856 404.49 503.054 407.357C503.22 409.76 503.624 412.278 505.125 414.16C507.532 417.181 511.875 417.616 515.729 417.812L518.851 417.971C519.711 418.075 520.583 417.995 521.409 417.736C521.921 417.499 522.38 417.162 522.759 416.744C523.138 416.326 523.429 415.837 523.616 415.304C525.241 411.258 522.667 406.9 521.082 402.838C519.26 398.17 519.587 392.987 517.074 388.573Z" fill="#535070"/>
<path d="M491.238 90.8217C491.2 90.4116 491.26 89.9982 491.414 89.6161C491.871 88.8063 493.065 89.0267 493.965 89.2541C497.587 90.1688 501.404 89.3409 505.133 89.5545C508.862 89.7682 513.063 91.6356 513.813 95.3008C516.519 93.3788 518.853 90.9773 520.698 88.215C521.732 86.6636 522.635 84.8867 522.494 83.0261C522.29 80.3426 520.043 78.3357 517.961 76.6338L511.757 71.5605C510.943 70.8109 510.002 70.2119 508.979 69.7914C507.546 69.301 505.984 69.5347 504.47 69.5357C499.954 69.5386 495.138 67.4798 491.122 69.5479C489.444 70.4119 488.181 71.8923 486.963 73.3358L481.426 79.9015C481.009 80.3199 480.705 80.8371 480.541 81.405C480.383 82.2064 480.794 82.9973 480.938 83.8014C481.199 85.2682 480.568 86.8336 481.053 88.2422C481.858 90.5807 484.693 90.9117 486.426 92.2523C487.072 92.7519 488.084 94.4452 488.853 94.4246C490.242 94.3873 491.202 91.9022 491.238 90.8217Z" fill="#3F3D56"/>
<path d="M500.633 110.175C510.427 110.175 518.365 102.223 518.365 92.4141C518.365 82.6048 510.427 74.6528 500.633 74.6528C490.84 74.6528 482.901 82.6048 482.901 92.4141C482.901 102.223 490.84 110.175 500.633 110.175Z" fill="#A0616A"/>
<path d="M504.787 131.285C504.185 129.559 503.05 128.069 501.546 127.033C500.043 125.997 498.249 125.467 496.424 125.521C495.902 125.618 495.363 125.55 494.882 125.325C494.609 125.116 494.392 124.843 494.248 124.531C493.169 122.589 492.303 120.537 491.662 118.409C491.379 117.469 490.993 116.361 490.043 116.116C489.65 116.065 489.25 116.121 488.887 116.28C488.523 116.438 488.209 116.692 487.979 117.016C487.528 117.666 487.035 118.286 486.504 118.873C484.274 120.87 480.32 119.05 477.953 120.882C477.567 121.181 477.248 121.565 476.842 121.837C476.435 122.082 475.997 122.27 475.54 122.396C470.969 123.891 466.488 125.649 462.119 127.661C463.694 137.159 465.307 146.822 468.998 155.712C470.754 159.943 472.744 164.086 474.151 168.446C477.267 178.106 477.405 188.442 477.44 198.593C477.464 205.541 477.43 212.638 475.185 219.212C474.582 220.665 474.156 222.186 473.918 223.741C473.783 225.308 474.238 227.035 475.505 227.963C476.24 228.445 477.08 228.74 477.954 228.825C481.843 229.396 485.763 228.36 489.592 227.472C499.854 225.091 510.321 223.729 520.768 222.37L538.273 220.093C539.528 220.008 540.756 219.69 541.895 219.156C545.098 217.399 545.402 212.573 543.413 209.505C542.459 208.034 541.114 206.828 540.312 205.269C539.511 203.709 539.443 201.529 540.822 200.449C543.628 198.252 542.791 194.177 542.925 190.612C543.299 180.644 543.249 170.673 542.773 160.698C542.633 158.633 542.6 156.562 542.674 154.494C542.986 150.989 543.632 147.522 544.605 144.141L549.924 123.163C548.535 120.964 545.874 119.568 543.354 118.935C540.833 118.301 538.208 118.115 535.726 117.344C530.641 115.766 526.114 111.761 520.804 112.134C520.402 112.141 520.007 112.238 519.647 112.417C518.45 113.097 518.639 114.825 518.563 116.202C518.393 119.248 516.157 121.793 513.687 123.578C511.217 125.363 508.396 126.664 506.128 128.7C505.726 129.003 505.397 129.393 505.165 129.84C504.933 130.287 504.803 130.781 504.787 131.285V131.285Z" fill="#3F3D56"/>
<path d="M434.526 151.183C433.35 151.947 432.101 152.591 430.796 153.105C429.519 153.486 428.312 154.073 427.224 154.842C426.722 155.277 426.301 155.798 425.981 156.38C425.381 157.446 425.077 158.654 425.102 159.878C425.127 161.102 425.479 162.296 426.123 163.337C426.766 164.378 427.676 165.227 428.758 165.795C429.841 166.363 431.056 166.63 432.276 166.567C433.898 166.385 435.474 165.915 436.931 165.177L449.438 159.749C451.555 158.83 453.841 157.753 454.842 155.671C454.958 155.477 455.001 155.247 454.963 155.024C454.863 154.788 454.68 154.595 454.45 154.483C451.629 152.648 449.162 150.318 447.167 147.604C446.654 146.907 446.026 145.259 445.301 144.841C442.654 143.314 436.645 149.806 434.526 151.183Z" fill="#A0616A"/>
<path d="M568.229 146.729L572.84 152.005C573.83 153.137 574.821 154.271 575.723 155.475C577.939 158.534 579.716 161.888 581.004 165.44C582.006 168.075 582.838 170.881 582.488 173.678C582.255 175.112 581.869 176.517 581.335 177.868C580.49 180.465 579.442 182.993 578.202 185.426C577.158 187.275 575.98 189.044 574.676 190.719C571.106 195.458 567.199 199.934 562.987 204.11C561.411 205.674 560.75 208.201 560.063 210.314C558.798 214.211 555.786 217.246 552.874 220.124C551.938 221.114 550.903 222.006 549.787 222.785C548.113 223.865 546.158 224.422 544.168 224.388C543.297 224.394 542.435 224.215 541.638 223.863C539.645 222.915 538.632 220.607 538.424 218.407C538.239 216.41 538.573 214.399 539.394 212.571C542.04 206.7 548.834 204.155 553.637 199.872C556.453 197.36 558.607 194.205 560.731 191.084C562.174 189.135 563.378 187.02 564.319 184.785C565.391 181.918 564.974 178.525 565.911 175.611C566.307 174.379 567.011 173.267 567.437 172.045C567.863 170.823 567.97 169.373 567.225 168.316C566.663 167.644 565.947 167.119 565.137 166.785C562.069 165.225 558.633 163.218 558.046 159.822C557.812 157.939 558.303 156.037 559.42 154.504C560.532 152.991 561.832 151.627 563.289 150.443C564.63 149.254 566.887 147.917 568.229 146.729Z" fill="#A0616A"/>
<path d="M431.566 158.548C430.752 156.901 429.734 155.22 428.091 154.401C427.295 154.054 426.436 153.874 425.568 153.87C424.699 153.867 423.839 154.04 423.04 154.38C421.447 155.067 419.955 155.971 418.607 157.064L414.633 159.999C413.732 160.591 412.934 161.328 412.273 162.181C411.646 163.215 411.228 164.362 411.044 165.558C410.351 168.285 410.14 171.112 410.419 173.912C411.05 178.401 413.752 182.32 416.726 185.738C418.585 187.873 420.879 190.028 423.706 190.119C424.926 190.158 426.283 189.677 426.791 188.564C426.967 188.123 427.06 187.654 427.066 187.179C427.372 182.172 425.583 177.281 423.498 172.72C422.833 171.525 422.44 170.199 422.347 168.834C422.332 168.605 422.392 168.376 422.517 168.183C422.697 167.996 422.938 167.878 423.196 167.852C426.05 167.286 430.966 169.507 432.969 166.332C434.267 164.274 432.488 160.414 431.566 158.548Z" fill="#A0616A"/>
<path d="M490.308 85.2328C490.269 84.8227 490.33 84.4094 490.483 84.0272C490.94 83.2174 492.134 83.4378 493.035 83.6653C496.657 84.5799 500.473 83.752 504.202 83.9657C507.932 84.1793 512.132 86.0467 512.882 89.712C515.589 87.7899 517.922 85.3885 519.767 82.6261C520.802 81.0748 521.704 79.2978 521.563 77.4373C521.36 74.7537 519.112 72.7468 517.031 71.0449L510.827 65.9716C510.012 65.222 509.072 64.6231 508.049 64.2026C506.616 63.7122 505.054 63.9458 503.539 63.9468C499.023 63.9497 494.208 61.8909 490.191 63.9591C488.513 64.823 487.25 66.3034 486.033 67.747L480.495 74.3126C480.079 74.7311 479.774 75.2483 479.61 75.8161C479.453 76.6176 479.864 77.4085 480.007 78.2126C480.269 79.6793 479.638 81.2448 480.123 82.6534C480.928 84.9918 483.762 85.3228 485.495 86.6634C486.141 87.1631 487.154 88.8564 487.923 88.8357C489.311 88.7984 490.272 86.3133 490.308 85.2328Z" fill="#3F3D56"/>
<path d="M452.646 133.907C451.93 134.37 451.302 134.956 450.79 135.638C450.14 136.622 450.008 137.865 449.449 138.905C448.254 141.129 445.459 141.92 443.716 143.745C443.439 143.996 443.246 144.327 443.165 144.692C443.156 145.187 443.322 145.67 443.633 146.055L452.042 159.296C454.841 159.543 457.527 157.786 460.328 158.019C461.374 158.106 462.444 158.468 463.447 158.158C464.165 157.839 464.837 157.427 465.448 156.932C467.119 155.874 469.344 155.751 470.746 154.354C472.092 153.014 472.263 150.918 472.247 149.018C472.27 147.367 472.102 145.72 471.747 144.108C470.51 139.026 466.629 135.126 464.196 130.624C463.012 128.432 462.367 127.149 459.861 128.654C457.341 130.166 455.018 132.17 452.646 133.907Z" fill="#3F3D56"/>
<path d="M554.767 127.211C556.347 128.239 557.772 129.489 558.997 130.923C560.278 132.577 561.003 134.602 562.234 136.294C563.427 137.935 565.05 139.205 566.403 140.716C568.455 143.007 569.845 145.801 571.209 148.559C567.876 152.913 564.241 157.028 560.333 160.872C559.897 161.385 559.324 161.763 558.681 161.959C558.243 162.006 557.801 161.943 557.394 161.777C556.986 161.61 556.627 161.346 556.346 161.006C555.741 160.37 555.311 159.585 554.733 158.924C553.366 157.512 551.545 156.63 549.592 156.434C547.656 156.246 545.708 156.219 543.767 156.353C543.341 156.401 542.91 156.328 542.523 156.144C542.235 155.945 542.002 155.677 541.845 155.364C539.568 151.484 540.3 146.612 541.103 142.184L542.946 132.023C543.213 130.082 543.729 128.184 544.48 126.375C545.178 124.881 546.739 122.347 548.659 122.794C550.594 123.245 553.139 126.038 554.767 127.211Z" fill="#3F3D56"/>
<path d="M217.418 193.932C232.902 193.932 245.454 181.336 245.454 165.798C245.454 150.261 232.902 137.665 217.418 137.665C201.934 137.665 189.382 150.261 189.382 165.798C189.382 181.336 201.934 193.932 217.418 193.932Z" fill="white"/>
<path d="M217.418 132.871C210.791 132.871 204.313 134.839 198.803 138.527C193.293 142.215 188.998 147.456 186.462 153.589C183.926 159.721 183.263 166.469 184.556 172.98C185.849 179.49 189.04 185.47 193.726 190.164C198.412 194.857 204.382 198.054 210.881 199.349C217.381 200.644 224.118 199.979 230.241 197.439C236.363 194.899 241.596 190.597 245.278 185.078C248.96 179.559 250.925 173.07 250.925 166.432C250.899 157.539 247.36 149.018 241.082 142.729C234.804 136.441 226.297 132.897 217.418 132.871V132.871ZM210.54 184.326L193.368 167.126L198.184 162.302L210.556 174.693L236.668 148.538L241.485 153.363L210.54 184.326L210.54 184.326Z" fill="#57B894"/>
</g>
<defs>
<clipPath id="clip0">
<rect width="693" height="418" fill="white"/>
</clipPath>
</defs>
</svg>
