<svg width="202" height="145" viewBox="0 0 202 145" fill="none" xmlns="http://www.w3.org/2000/svg">
    <path opacity="0.1" d="M201.179 88.582C201.19 95.9811 199.601 103.241 196.585 109.57C196.585 117.31 193.747 124.325 189.143 129.438C187.991 130.716 186.75 131.859 185.436 132.854C185.383 132.897 185.329 132.937 185.274 132.977C185.176 133.051 185.078 133.124 184.977 133.2L184.884 133.27C184.464 133.572 184.035 133.862 183.597 134.135C179.562 136.657 175.122 137.958 170.626 137.936H38.1907C37.1355 137.936 36.0897 137.882 35.0533 137.775C31.3705 137.406 27.7512 136.34 24.3156 134.613C23.645 134.276 22.9873 133.914 22.3425 133.527C22.0353 133.344 21.7311 133.155 21.4298 132.961C21.2417 132.84 21.0535 132.715 20.8671 132.59C19.736 131.826 18.6404 130.979 17.5856 130.055C16.6216 129.216 15.6941 128.312 14.8071 127.345C8.82273 120.817 5.12099 111.783 5.12099 101.815C1.76664 95.2482 -0.0126257 87.583 6.74424e-05 79.7536C6.74424e-05 57.5896 13.9349 39.622 31.1264 39.622C31.6539 39.622 32.1818 39.6421 32.7093 39.6778C32.7847 39.6778 32.8587 39.6778 32.9344 39.6912C35.8325 33.4115 39.7066 27.6412 44.3649 22.5619C57.0688 8.72338 75.6357 0 96.318 0C113.696 0 129.581 6.15912 141.749 16.3357C146.359 13.0222 151.567 11.2853 156.863 11.2943C174.051 11.2943 187.99 29.262 187.99 51.426C187.987 52.8283 187.928 54.2297 187.814 55.6243C191.957 59.3529 195.334 64.2938 197.66 70.0296C199.986 75.7656 201.193 82.1285 201.179 88.582Z" fill="#3498DB"/>
    <path d="M172.696 79.0897C172.696 79.0897 155.221 71.5797 148.472 81.758C141.723 91.9364 151.178 91.3026 151.178 91.3026C151.178 91.3026 151.703 96.0086 160.629 84.8713C164.835 79.6224 172.696 79.0897 172.696 79.0897Z" fill="#BBD070"/>
    <path d="M175.742 50.0761C175.742 50.0761 160.23 45.265 150.016 64.9406C139.803 84.6161 130.621 86.1718 130.621 86.1718C130.621 86.1718 165.706 92.4674 175.742 50.0761Z" fill="#97A43C"/>
    <path d="M137.072 87.3074C138.431 93.8488 153.404 81.2346 154.879 69.9231C156.353 58.6116 153.417 50.3116 156.393 43.0557C156.393 43.0557 130.383 55.095 137.072 87.3074Z" fill="#48753A"/>
    <path d="M160.532 77.5121C156.232 77.5121 152.182 78.5793 148.63 80.4614C141.699 71.0206 130.522 64.8901 117.912 64.8901C102.859 64.8901 89.8465 73.6255 83.6629 86.3025C81.4299 85.3243 78.9652 84.7782 76.3718 84.7782C66.3195 84.7782 58.1719 92.9259 58.1719 102.976C58.1719 104.678 58.4055 106.327 58.8454 107.89H80.1412H93.8963H135.545H155.683H185.518C185.832 106.3 185.995 104.656 185.995 102.976C185.995 88.9132 174.594 77.5121 160.532 77.5121Z" fill="url(#paint0_linear)"/>
    <path d="M142.742 101.834H169.674C170.645 101.834 171.433 101.046 171.433 100.074V94.0499C171.433 93.0781 170.645 92.29 169.674 92.29H142.742V101.834Z" fill="url(#paint1_linear)"/>
    <path d="M134.246 116.133H167.067C167.765 116.133 168.332 115.567 168.332 114.868V110.867C168.332 110.168 167.765 109.602 167.067 109.602H134.246V116.133Z" fill="url(#paint2_linear)"/>
    <path d="M130.75 110.315V115.419H129.883V116.133H145.282C145.764 116.133 146.156 115.742 146.156 115.259V110.475C146.156 109.993 145.763 109.602 145.282 109.602H129.883V110.315H130.75Z" fill="#F08533"/>
    <path d="M130.75 115.42H144.535C144.999 115.42 145.375 115.043 145.375 114.58V111.156C145.375 110.692 144.999 110.316 144.535 110.316H130.75V115.42Z" fill="#FAE6DE"/>
    <path d="M138.149 93.2722V100.851H137.68V101.834H157.194C158.198 101.834 159.013 101.02 159.013 100.015V94.109C159.013 93.1045 158.199 92.2896 157.194 92.2896H137.68V93.2722H138.149Z" fill="#F08533"/>
    <path d="M138.152 100.851H156.199C157.203 100.851 158.018 100.037 158.018 99.0319V95.0909C158.018 94.0864 157.204 93.2715 156.199 93.2715H138.152V100.851Z" fill="#FAE6DE"/>
    <path d="M148.559 109.601H175.002C176.244 109.601 177.251 108.594 177.251 107.352V104.083C177.251 102.841 176.244 101.834 175.002 101.834H148.559V109.601Z" fill="url(#paint3_linear)"/>
    <path d="M143.965 102.634V108.802H143.496V109.602H162.581C163.823 109.602 164.83 108.595 164.83 107.353V104.083C164.83 102.841 163.823 101.834 162.581 101.834H143.496V102.634H143.965V102.634Z" fill="#495DA1"/>
    <path d="M143.965 108.802H161.642C162.884 108.802 163.891 107.795 163.891 106.553V104.882C163.891 103.64 162.884 102.633 161.642 102.633H143.965V108.802Z" fill="#FAE6DE"/>
    <path d="M147.084 104.795H154.656V104.6H147.084V104.795Z" fill="#DECCC5"/>
    <path d="M150.121 105.388H158.207V105.193H150.121V105.388Z" fill="#DECCC5"/>
    <path d="M132.572 111.831H140.145V111.635H132.572V111.831Z" fill="#DECCC5"/>
    <path d="M135.609 112.424H143.695V112.229H135.609V112.424Z" fill="#DECCC5"/>
    <path d="M141.155 112.965H144.5V112.77H141.155V112.965Z" fill="#DECCC5"/>
    <path d="M147.004 98.5928H155.09V98.3975H147.004V98.5928Z" fill="#DECCC5"/>
    <path d="M146.339 99.1333H149.684V98.938H146.339V99.1333Z" fill="#DECCC5"/>
    <path d="M147.539 99.6821C147.539 99.5841 147.644 99.435 147.808 99.5636C147.971 99.6923 147.769 100.162 147.637 100.121C147.504 100.079 147.539 99.7832 147.539 99.6821Z" fill="#EEA886"/>
    <path d="M145.141 101.47C145.141 101.47 145.22 102.116 145.325 102.401C145.43 102.686 146 103.344 145.759 103.976C145.498 104.662 144.358 104.001 143.893 103.792C143.428 103.582 143.534 103.203 143.485 102.739C143.435 102.274 143.208 102.261 143.292 101.935C143.376 101.608 143.884 100.982 143.884 100.982L145.141 101.47Z" fill="#213A70"/>
    <path d="M144.104 100.644C144.104 100.644 143.812 101.052 143.82 101.063C143.829 101.074 145.07 101.83 145.157 101.585C145.226 101.39 145.255 101.108 145.255 101.108L144.104 100.644Z" fill="#EEA886"/>
    <path d="M139.893 101.926C139.893 101.926 139.514 102.259 139.174 102.769C138.834 103.279 137.931 103.307 137.892 104.003C137.852 104.7 139.119 104.721 139.785 104.494C140.45 104.268 140.55 103.587 140.952 103.417C141.354 103.246 141.563 103.109 141.532 102.777C141.502 102.444 141.279 101.905 141.279 101.905C141.279 101.905 141.029 101.985 140.882 102.001C140.735 102.018 140.24 102.024 139.893 101.926Z" fill="#213A70"/>
    <path d="M144.45 83.0526C144.45 83.0526 144.195 84.5679 143.99 85.5692C143.907 85.9751 143.831 86.2965 143.784 86.3976C143.726 86.525 143.247 87.0384 142.662 87.6415C141.634 88.6991 140.277 90.0307 140.277 90.0307L139.746 89.0237C139.746 89.0237 140.952 87.6101 141.769 86.6671C142.147 86.2305 142.443 85.8951 142.496 85.847C142.667 85.694 142.866 84.1883 143.144 82.947C143.423 81.7063 143.982 81.02 143.982 81.02L144.45 83.0526Z" fill="#FAE6DE"/>
    <path d="M142.662 87.6419C141.634 88.6994 140.277 90.031 140.277 90.031L139.746 89.024C139.746 89.024 140.952 87.6105 141.769 86.6675C142.019 86.7904 142.479 87.0836 142.662 87.6419Z" fill="#EEA886"/>
    <path d="M139.954 101.462L139.895 101.927C139.895 101.927 140.554 102.16 141.281 101.906L141.295 101.493L139.954 101.462Z" fill="#EEA886"/>
    <path d="M149.312 89.8261C149.35 89.9612 142.328 89.8261 142.328 89.8261C142.328 89.8261 144.27 88.4126 144.397 88.0349C144.523 87.6572 143.902 85.3909 143.821 84.6534C143.756 84.0638 143.594 81.4237 143.983 81.0204C144.39 80.5991 145.854 80.1567 145.854 80.1567L147.988 80.2361C147.988 80.2361 148.34 80.3097 148.592 80.4269C148.844 80.5441 150.284 81.0568 150.518 81.7764C150.752 82.496 149.081 84.809 149.081 84.809C149.081 84.809 149.078 84.9127 149.073 85.083C149.067 85.3102 149.057 85.6553 149.049 86.0298C149.038 86.5151 149.028 87.049 149.028 87.4389C149.026 88.3563 149.274 89.6911 149.312 89.8261Z" fill="#FAE6DE"/>
    <path d="M149.314 89.826C149.314 89.826 150.269 91.2287 150.282 92.1864C150.296 93.1441 148.588 96.3515 148.329 96.8105C147.552 98.1901 145.42 101.166 145.42 101.166C145.42 101.166 145.053 101.157 143.906 100.711C143.906 100.711 145.324 96.781 145.504 96.3726C146.266 94.6422 146.691 93.4143 146.435 93.1179C146.179 92.8208 145.48 92.5238 145.278 92.3484C145.076 92.173 141.551 93.0142 141.181 93.1102C140.225 93.3579 140.661 95.0224 140.873 95.7682C141.227 97.016 141.536 101.524 141.536 101.524C141.536 101.524 140.855 101.814 139.714 101.568C139.714 101.568 137.473 93.4303 137.402 92.6205C137.33 91.8113 137.294 90.4765 142.816 89.4624L149.314 89.826Z" fill="#303669"/>
    <path d="M146.442 75.5203C146.442 75.5203 144.589 75.1023 145.012 77.4339C145.435 79.7654 145.881 79.9485 146.999 79.4658C148.116 78.9831 148.016 77.4896 148.072 76.7572C148.128 76.0248 147.032 75.5453 146.442 75.5203Z" fill="#EEA886"/>
    <path d="M145.949 80.7558C145.949 80.7558 146.77 81.6258 148.066 80.8352C148.066 80.8352 147.776 78.9498 147.929 78.0318C148.081 77.1138 146.237 79.4543 146.237 79.4543C146.261 79.4671 146.277 79.5548 146.281 79.679C146.284 79.7846 146.278 79.9172 146.262 80.0529C146.224 80.3582 146.128 80.6803 145.949 80.7558Z" fill="#EEA886"/>
    <path d="M147.981 77.9538C147.981 77.9538 147.933 77.2195 147.664 77.1964C147.396 77.1734 147.355 77.4692 147.355 77.4692L147.084 77.5204C147.084 77.5204 147.17 76.8763 146.901 76.7643C146.633 76.6516 145.165 77.119 144.951 76.9295C144.736 76.7406 144.837 75.4346 145.226 75.256C145.615 75.0774 146.689 74.6766 147.476 75.2093C147.476 75.2093 148.09 75.1395 148.18 75.6344C148.271 76.1292 148.148 77.5857 147.981 77.9538Z" fill="#3A3F47"/>
    <path d="M146.262 80.0527C147.6 79.6404 147.7 78.8344 147.701 78.8223C147.261 79.579 146.281 79.6795 146.281 79.6795C146.284 79.7845 146.279 79.917 146.262 80.0527Z" fill="#A77860"/>
    <path d="M148.612 80.4371C148.612 80.4371 147.633 82.3871 146.05 82.2616C144.468 82.1355 145.781 80.1753 145.853 80.1573C145.931 80.1375 147.475 79.7527 148.612 80.4371Z" fill="#EEA886"/>
    <path d="M141.527 89.7276C141.527 89.7276 146.377 90.3255 149.315 89.8262L143.701 89.1245C143.701 89.1252 143.667 89.2679 141.527 89.7276Z" fill="#FAE6DE"/>
    <path d="M145.154 88.9043L144.793 89.0874C144.793 89.0874 144.876 89.661 145.073 89.8351L145.479 89.7314C145.479 89.7314 145.394 89.1021 145.154 88.9043Z" fill="#EEA886"/>
    <path d="M150.764 87.7286C150.691 87.8125 149.738 88.1953 148.661 88.6108C147.19 89.1774 145.53 89.7139 145.53 89.7139L145.152 88.904C145.152 88.904 146.89 87.9598 148.065 87.2972C148.62 86.9841 149.049 86.7344 149.109 86.6768C149.298 86.4969 149.346 86.2088 149.207 85.7057C149.068 85.2025 148.749 82.8908 148.713 82.6212C148.677 82.3517 148.803 81.6321 149.477 81.5963C150.152 81.5604 150.495 81.7506 150.495 81.7506C150.495 81.7506 150.664 81.821 150.79 83.458C150.917 85.0936 150.935 87.5308 150.764 87.7286Z" fill="#FAE6DE"/>
    <path d="M149.075 85.0827C149.068 85.31 149.059 85.655 149.051 86.0295C148.392 84.4163 148.773 83.1282 148.779 83.1064C148.707 83.5443 149.07 85.0609 149.075 85.0827Z" fill="#968A86"/>
    <path d="M143.991 85.5695C143.908 85.9754 143.832 86.2967 143.786 86.3979C143.561 85.3096 143.763 83.9165 143.763 83.9165C143.794 84.5823 143.991 85.5695 143.991 85.5695Z" fill="#968A86"/>
    <path d="M148.661 88.611C147.19 89.1782 145.477 89.7314 145.477 89.7314L145.152 88.9042C145.152 88.9042 146.89 87.96 148.065 87.2974C148.065 87.2974 148.492 87.5054 148.661 88.611Z" fill="#EEA886"/>
    <path d="M145.048 89.7795L138.156 89.6777L141.636 91.4453L145.048 89.7795Z" fill="#807571"/>
    <path d="M141.637 91.4451L145.05 90.1231V89.7793L141.367 91.1077L141.637 91.4451Z" fill="#DBCAC2"/>
    <path d="M144.867 89.0996C144.867 89.0996 144.436 89.0324 144.139 88.9633C143.908 88.9095 143.336 88.9838 143.19 89.1317C143.044 89.2795 142.581 90.309 142.493 90.3723C142.405 90.4351 142.538 90.5804 142.692 90.5074C142.692 90.5074 142.833 90.9581 143.182 90.7891C143.531 90.6201 143.768 90.252 143.951 90.1873C144.134 90.1227 145.198 89.7949 145.198 89.7949C145.198 89.7949 145.141 88.9902 144.867 89.0996Z" fill="#EEA886"/>
    <path d="M143.3 89.0635C143.3 89.0635 143.023 89.1973 142.951 89.2568C142.879 89.3164 142.586 89.5353 142.515 89.5872C142.444 89.6384 142.622 89.785 143.145 89.5583C143.669 89.3317 143.3 89.0635 143.3 89.0635Z" fill="#EEA886"/>
    <path d="M141.636 91.445L139.586 85.8472L132.977 85.9547L134.93 91.1133L141.636 91.445Z" fill="#DBCAC2"/>
    <path d="M137.473 88.3237C137.675 88.7271 137.614 89.1662 137.337 89.3045C137.06 89.4428 136.672 89.2283 136.471 88.825C136.269 88.4217 136.33 87.9825 136.607 87.8442C136.883 87.7059 137.271 87.9204 137.473 88.3237Z" fill="#B0A29C"/>
    <path d="M147.361 77.1579C147.385 76.9524 147.792 76.8769 147.825 77.1855C147.857 77.494 147.64 78.035 147.485 77.9819C147.331 77.9281 147.327 77.4415 147.361 77.1579Z" fill="#EEA886"/>
    <path d="M59.3243 118.504H25.5794C24.2196 118.504 23.1172 117.402 23.1172 116.042V112.045C23.1172 110.685 24.2196 109.583 25.5794 109.583H59.3243V118.504Z" fill="url(#paint4_linear)"/>
    <path d="M65.1233 110.501V117.586H65.7148V118.504H41.2551C39.8954 118.504 38.793 117.402 38.793 116.042V112.045C38.793 110.685 39.8954 109.583 41.2551 109.583H65.7148V110.501H65.1233V110.501Z" fill="#FF9F55"/>
    <path d="M65.1213 117.586H43.0598C41.7001 117.586 40.5977 116.484 40.5977 115.124V112.963C40.5977 111.603 41.7001 110.501 43.0598 110.501H65.1213V117.586Z" fill="#EFF7FE"/>
    <path d="M60.9026 109.582H23.9612C22.2526 109.582 20.8672 108.197 20.8672 106.488V102.3C20.8672 100.591 22.2526 99.2061 23.9612 99.2061H60.9026V109.582Z" fill="url(#paint5_linear)"/>
    <path d="M67.4573 100.276V108.515H67.9669V109.583H47.8753C46.1666 109.583 44.7812 108.198 44.7812 106.489V102.301C44.7812 100.592 46.1666 99.207 47.8753 99.207H67.9669V100.275H67.4573V100.276Z" fill="#5284FC"/>
    <path d="M67.457 108.514H49.43C47.7213 108.514 46.3359 107.129 46.3359 105.42V103.368C46.3359 101.659 47.7213 100.274 49.43 100.274H67.457V108.514Z" fill="#EFF7FE"/>
    <path d="M34.2891 99.2049H62.3664C64.216 99.2049 65.7146 97.7056 65.7146 95.8567V89.8326C65.7146 87.9837 64.216 86.4844 62.3664 86.4844H34.2891V99.2049Z" fill="url(#paint6_linear)"/>
    <path d="M29.2563 87.7941V97.8962H28.7428V99.2054H48.7609C50.6097 99.2054 52.1091 97.7061 52.1091 95.8572V89.833C52.1091 87.9842 50.6097 86.4849 48.7609 86.4849H28.7422V87.7941H29.2563Z" fill="#FF9F55"/>
    <path d="M29.2578 97.8956H46.9603C48.7983 97.8956 50.2886 96.4059 50.2886 94.5673V91.1218C50.2886 89.2838 48.7983 87.7935 46.9603 87.7935H29.2578V97.8956Z" fill="#EFF7FE"/>
    <path d="M55.3152 86.4811H25.5432C23.5989 86.4811 22.0234 84.905 22.0234 82.9614V77.281C22.0234 75.3367 23.5996 73.7612 25.5432 73.7612H55.3152V86.4811Z" fill="url(#paint7_linear)"/>
    <path d="M60.6436 75.0704V85.1726H61.1878V86.4818H39.9533C38.0091 86.4818 36.4336 84.9056 36.4336 82.962V77.281C36.4336 75.3367 38.0097 73.7612 39.9533 73.7612H61.1878V75.0704H60.6436Z" fill="#5284FC"/>
    <path d="M60.6424 85.1718H41.7863C39.8504 85.1718 38.2812 83.6027 38.2812 81.6668V78.5753C38.2812 76.6394 39.8504 75.0703 41.7863 75.0703H60.643V85.1718H60.6424Z" fill="#EFF7FE"/>
    <path d="M63.7103 73.7574H32.6029C31.3962 73.7574 30.418 72.7792 30.418 71.5724V66.3158C30.418 65.1091 31.3962 64.1309 32.6029 64.1309H63.7103V73.7574Z" fill="url(#paint8_linear)"/>
    <path d="M69.0381 65.1219V72.767H69.5823V73.758H47.0131C45.8063 73.758 44.8281 72.7798 44.8281 71.5731V66.3158C44.8281 65.1091 45.8063 64.1309 47.0131 64.1309H69.5823V65.1219H69.0381Z" fill="#5284FC"/>
    <path d="M69.0376 72.7662H48.6732C47.4665 72.7662 46.4883 71.788 46.4883 70.5813V67.3061C46.4883 66.0993 47.4665 65.1211 48.6732 65.1211H69.0376V72.7662Z" fill="#EFF7FE"/>
    <path d="M56.7891 73.0465C56.7891 73.0465 57.1091 72.56 57.1604 72.2719C57.2116 71.9838 57.3716 71.8238 57.3716 71.8238C57.3716 71.8238 58.588 71.6445 59.0553 71.2156C59.5226 70.7803 60.5149 69.6023 60.9823 69.9544C61.4496 70.3065 60.643 71.7982 60.1692 72.2463C59.6955 72.6944 59.0489 73.4819 58.4599 73.4243C57.871 73.3666 57.0707 73.0914 56.7891 73.0465Z" fill="#CFBFB8"/>
    <path d="M56.7874 72.9701L57.3763 71.8242C57.3763 71.8242 54.5723 71.312 53.7465 70.8127C53.5416 70.691 53.3368 70.563 53.1447 70.4478C52.7094 70.1789 52.3509 69.9484 52.2228 69.8396C51.8195 69.4939 50.1934 68.3415 49.7517 67.919C49.31 67.4965 48.7978 67.7526 48.1128 67.759C47.4278 67.7654 44.9503 68.4504 44.2077 68.5528C43.4651 68.6488 40.7891 69.1482 40.7891 69.1482C41.2628 70.4414 56.7874 72.9701 56.7874 72.9701Z" fill="#606060"/>
    <path d="M40.6397 69.1157C40.6397 69.1157 42.1505 69.3334 42.541 69.3654C42.9379 69.3974 45.185 69.5767 46.2733 69.6791C47.3552 69.7815 49.4871 69.7239 49.9096 69.9096C50.3321 70.0952 52.7776 70.9211 53.5779 71.1835C54.3781 71.4396 59.57 72.3935 59.57 72.3935C59.57 72.3935 59.6597 73.0977 59.1987 73.6354C59.1987 73.6354 56.9068 73.4306 55.7033 73.6098C54.4933 73.7891 52.3871 73.5138 51.1003 72.9376C49.82 72.3551 47.7906 72.8864 46.651 73.2833C45.5179 73.6803 41.1774 74.0004 40.6333 73.8787C40.0891 73.7571 39.0136 73.2385 38.2326 72.3871C37.4515 71.5292 40.6397 69.1157 40.6397 69.1157Z" fill="#808080"/>
    <path d="M59.1953 73.6289C59.1953 73.6289 59.3874 73.0783 59.3682 72.7902C59.349 72.5022 59.4386 72.3613 59.4386 72.3613C59.4386 72.3613 60.6037 71.8364 60.9494 71.305C61.2951 70.7737 61.9737 69.3845 62.5115 69.6149C63.0493 69.8454 62.6267 71.4843 62.2746 72.0348C61.9225 72.5854 61.7049 74.0578 61.1159 74.141C60.5397 74.2307 59.477 73.6033 59.1953 73.6289Z" fill="#EDDAD3"/>
    <path d="M37.2449 68.1489C37.2449 68.1489 35.3371 72.483 38.3012 73.5329C40.6635 74.3716 45.0232 73.5969 45.0232 73.5969L42.3408 69.3717L37.2449 68.1489Z" fill="#808080"/>
    <path d="M42.1556 51.7987C41.4258 51.9588 41.8611 53.7833 41.3746 56.3376C40.888 58.892 39.3516 59.2889 39.3516 59.2889C39.3516 59.2889 40.0366 58.1558 39.9597 56.9714C39.9021 56.0496 38.7818 53.5272 39.8893 51.8755C40.7472 50.6016 42.2516 51.7603 42.2516 51.7603L42.1556 51.7987Z" fill="#603813"/>
    <path d="M41.0625 57.1125L42.4773 58.5657C42.4901 58.2968 42.5861 57.9767 42.6886 57.7014C42.7398 57.567 42.791 57.4518 42.8294 57.3557C42.8806 57.2341 42.919 57.1573 42.919 57.1573L41.6579 55.8257L41.0625 57.1125Z" fill="#C69076"/>
    <path d="M42.7451 58.425C42.7451 58.425 42.8027 59.1228 43.1804 59.7694C43.5581 60.416 44.1919 61.4851 44.1023 62.1829C44.0127 62.8807 43.7182 63.1304 43.4493 63.38C43.1804 63.6297 42.4442 65.4414 42.3546 66.1392C42.265 66.837 42.2073 68.2839 42.3802 69.3466C42.3802 69.3466 37.4251 69.9228 36.9258 69.0585C36.9258 69.0585 37.5404 66.2737 37.8284 65.5759C38.1165 64.8781 38.7247 60.704 38.9872 59.9934C39.2497 59.2828 39.8642 58.5978 40.2356 58.1049C40.5685 57.6631 41.183 56.8501 41.183 56.8501L42.7451 58.425Z" fill="#F7931E"/>
    <path d="M43.3676 51.9458C44.0206 51.9906 45.429 52.4836 45.4482 54.2313C45.4482 54.2313 45.3394 54.6922 45.1857 55.0443C45.0321 55.3964 45.333 56.3887 45.1153 56.6512C44.9744 56.8177 44.6928 56.6256 44.6928 56.6256C44.6928 56.6256 44.1742 57.7587 43.7645 57.7011C43.3548 57.6435 41.8247 57.1378 41.2614 55.5949C40.6916 54.0457 40.7236 51.773 43.3676 51.9458Z" fill="#C69076"/>
    <path d="M45.4439 54.238C45.4439 54.238 44.3044 54.8333 43.2416 54.8589C42.1789 54.8845 41.3019 56.5874 41.3019 56.5874C41.3019 56.5874 40.0151 53.6938 41.4875 52.2278C42.96 50.7681 45.9048 52.2534 45.4439 54.238Z" fill="#603813"/>
    <path d="M42.9937 54.846C43.0129 54.6411 42.8208 54.3146 42.4559 54.5515C42.091 54.7884 42.4303 55.8062 42.712 55.7422C42.9937 55.6782 42.9745 55.0572 42.9937 54.846Z" fill="#C69076"/>
    <path d="M41.8164 56.5488C41.8356 56.5808 42.3542 57.4323 42.6871 57.7012C42.7383 57.5667 42.7895 57.4515 42.8279 57.3555C42.8279 57.3555 42.0853 56.9137 41.8164 56.5488Z" fill="#A77860"/>
    <path d="M52.4805 70.1561L45.5547 68.8486L45.4407 69.4525L52.3665 70.76L52.4805 70.1561Z" fill="#C4C4C4"/>
    <path d="M55.8492 64.6012L51.8633 70.4141L52.3701 70.7616L56.356 64.9487L55.8492 64.6012Z" fill="#C4C4C4"/>
    <path d="M51.0467 69.8904C51.0788 69.7367 51.0468 69.4806 50.5602 69.2182C50.0737 68.9557 49.0302 68.3667 48.6588 68.3539C48.2875 68.3411 47.5641 68.3987 47.4169 68.3987C47.2696 68.3987 47.6473 69.2758 47.6473 69.2758L51.0467 69.8904Z" fill="#C69076"/>
    <path d="M47.5891 68.4628C47.5891 68.4628 45.5661 67.669 45.2396 67.509C44.9131 67.3489 43.3831 66.8368 43.2487 66.7663C43.1142 66.6959 42.474 62.8804 42.4164 61.9137C42.3588 60.9534 42.3012 58.9176 41.2193 59.0073C40.1309 59.0969 39.8749 59.8075 40.0093 61.2159C40.1437 62.6179 40.9504 67.6434 41.2897 67.8098C41.629 67.9827 45.5277 68.8534 47.5827 69.2631C49.5417 69.66 47.5891 68.4628 47.5891 68.4628Z" fill="#C69076"/>
    <path d="M42.5257 62.2207C42.5257 62.2207 40.9637 62.5152 40.061 62.6048C40.061 62.6048 38.9407 59.4039 40.4643 58.8982C42.2761 58.2836 42.6794 60.7675 42.5257 62.2207Z" fill="#EDDAD3"/>
    <path d="M75.1641 115.267C75.1641 115.267 75.036 116.182 75.0168 116.323C74.9976 116.464 73.5572 116.24 73.5572 116.24L73.442 115.145C73.442 115.145 74.9848 115.133 75.1641 115.267Z" fill="#5C544D"/>
    <path d="M75.0311 116.202C75.0311 116.202 75.4857 116.752 75.9274 116.995C76.3691 117.239 77.0605 117.335 77.323 117.584C77.5087 117.764 78.008 118.538 76.1771 118.526C74.3461 118.513 73.4563 118.634 73.2642 118.34C73.0658 118.045 73.5459 116.144 73.5459 116.144C73.5459 116.144 73.9812 116.298 75.0311 116.202Z" fill="#3C4145"/>
    <path d="M85.4922 115.267C85.4922 115.267 85.3641 116.182 85.3449 116.323C85.3257 116.464 83.8853 116.24 83.8853 116.24L83.7701 115.145C83.7701 115.145 85.3129 115.133 85.4922 115.267Z" fill="#5C544D"/>
    <path d="M85.3564 116.202C85.3564 116.202 85.811 116.752 86.2527 116.995C86.6944 117.239 88.3205 117.437 88.583 117.687C88.7686 117.866 89.0823 118.59 86.5024 118.526C84.6714 118.474 83.7816 118.634 83.5895 118.34C83.391 118.045 83.8712 116.144 83.8712 116.144C83.8712 116.144 84.2809 116.31 85.3564 116.202Z" fill="#3C4145"/>
    <path d="M75.6773 91.5605C75.6773 91.5605 74.9091 93.8396 75.0115 95.805C75.1139 97.7704 74.6146 99.915 74.4097 101.97C74.1856 104.255 73.2574 109.671 73.219 110.894C73.1806 112.117 73.3598 116.022 73.3598 116.022L75.2164 116.067C75.2164 116.067 76.7784 106.605 77.1817 105.638C77.585 104.672 79.5888 97.7896 79.6592 97.0149C79.7297 96.2339 75.6773 91.5605 75.6773 91.5605Z" fill="#808080"/>
    <path d="M83.4887 91.9641C83.4887 91.9641 84.5066 97.3481 84.6411 98.5452C84.7755 99.7488 84.8651 104.358 84.9356 105.114C85.006 105.863 85.3837 114.94 85.7422 116.054H83.3671C83.3671 116.054 81.5426 109.454 81.5426 106.336C81.5426 103.212 80.1341 99.5503 79.2251 97.4889C78.316 95.4275 76.2354 95.3827 75.6784 91.5608C75.6784 91.5608 82.7269 90.7541 83.4887 91.9641Z" fill="#808080"/>
    <path d="M78.6631 73.578C78.6631 73.578 80.5325 72.8802 81.3967 74.3014C82.261 75.7291 82.1777 78.5779 81.2302 78.93C80.2892 79.2821 78.868 79.0965 78.3878 78.2066C77.9077 77.3167 77.466 76.0235 77.4916 75.1657C77.5108 74.3014 78.1702 73.8277 78.6631 73.578Z" fill="#C69076"/>
    <path d="M80.9128 78.8467C80.9128 78.8467 80.8359 79.3396 80.964 79.5765C81.092 79.8198 78.6081 79.8262 78.6081 79.8262C78.6081 79.8262 78.4096 78.5138 78.0255 77.3999C77.6478 76.2859 80.9128 78.8467 80.9128 78.8467Z" fill="#C69076"/>
    <path d="M78.0249 77.3998C78.0249 77.3998 78.1978 77.6814 78.8956 77.5726C79.5934 77.4638 80.4448 76.5355 80.7393 76.4331C81.0338 76.3306 81.0338 76.1578 81.0338 76.1578L81.2194 76.4267L81.5267 76.4459C81.5267 76.4459 81.2451 75.6136 81.6676 75.2743C82.0965 74.935 81.2258 72.5855 78.9852 73.3666C78.9852 73.3666 77.2631 73.8403 77.3271 74.8198C77.3911 75.7993 77.6408 76.9132 78.0249 77.3998Z" fill="#1A1A1A"/>
    <path d="M81.1133 79.5446C81.1133 79.5446 81.1069 79.0837 80.8956 79.0389C80.6844 78.9941 78.5845 78.7956 78.3285 78.8916V79.4294C78.3285 79.4358 78.8214 79.7367 81.1133 79.5446Z" fill="#E2D2CA"/>
    <path d="M80.9937 75.7995C80.9553 75.633 80.5392 75.1657 80.3792 75.6714C80.2191 76.1708 80.6224 76.8494 80.8465 76.7918C81.0642 76.7341 81.0898 76.2156 80.9937 75.7995Z" fill="#C69076"/>
    <path d="M81.1128 79.5445C81.1128 79.5445 82.2651 79.9606 83.5967 80.524C83.5967 80.524 85.1332 81.1001 85.2996 82.7902C85.3892 83.6929 86.3431 88.4623 86.5224 88.872C86.7016 89.2754 88.8271 95.7669 88.9039 95.9013C88.9807 96.0357 87.169 96.7848 87.0473 96.7271C86.9257 96.6695 84.9923 90.8054 84.7939 90.3701C84.7939 90.3701 83.6799 86.8554 83.6479 86.3305C83.6479 86.3305 83.6159 87.8221 83.5583 88.2447C83.5007 88.6608 84.5506 96.7976 84.5186 97.028C84.4866 97.2521 79.7364 97.5402 77.8414 97.3289C75.9401 97.1177 74.41 96.6823 74.41 96.6823C74.41 96.6823 75.9081 90.2612 75.8568 89.5506C75.7544 88.0014 75.2359 85.0757 75.2359 85.0757L73.6866 87.995L75.6712 93.0973L75.2166 94.6465C75.2166 94.6465 71.5292 89.0769 71.4075 88.5647C71.2859 88.059 71.5868 87.406 71.7852 86.9899C71.9773 86.5738 73.2577 83.3792 73.5585 82.9311C73.8594 82.483 74.3652 80.684 75.588 80.1847C76.6123 79.7686 78.328 79.4229 78.328 79.4229L81.1128 79.5445Z" fill="#00618C"/>
    <path d="M82.0913 92.7952L90.7734 90.5688L92.3271 96.6277L83.645 98.8541L82.0913 92.7952Z" fill="#D6D6D6"/>
    <path d="M87.8543 98.603C87.8543 98.603 87.707 98.4494 87.675 98.3533C87.675 98.3533 87.6302 98.1677 87.5918 98.0396C87.579 98.0012 87.5662 97.9628 87.5598 97.9436C87.5214 97.854 87.3998 97.6619 87.3613 97.4187C87.3229 97.169 87.2141 96.0615 87.2141 96.0615L87.8863 95.895L88.4241 95.7798C88.4241 95.7798 89.5892 96.9449 89.6532 97.169C89.6596 97.1882 89.666 97.2138 89.666 97.233C89.698 97.4315 89.6404 97.5915 89.6468 97.6939C89.6468 97.7324 89.6404 98.1165 89.5508 98.1933C89.4292 98.2957 89.3011 98.3149 89.1923 98.2765C89.1923 98.2765 88.9362 98.4622 88.725 98.4494C88.725 98.4494 88.4945 98.6286 88.2384 98.539C88.2512 98.539 88.0015 98.6926 87.8543 98.603Z" fill="#C69076"/>
    <path d="M85.2291 91.5738C85.2291 91.5738 86.7719 96.2408 87.0536 96.7337C87.0536 96.7337 88.1867 96.4969 88.9102 95.9079L87.2201 90.8696L85.2291 91.5738Z" fill="#495678"/>
    <path d="M122.432 104.078H99.5007C97.1961 104.078 95.3203 102.202 95.3203 99.8978V61.8962C95.3203 59.5916 97.1961 57.7158 99.5007 57.7158H122.432C124.737 57.7158 126.613 59.5916 126.613 61.8962V99.8914C126.619 102.202 124.743 104.078 122.432 104.078ZM99.5071 60.9168C98.9694 60.9168 98.5277 61.3585 98.5277 61.8962V99.8914C98.5277 100.429 98.9694 100.871 99.5071 100.871H122.432C122.97 100.871 123.412 100.429 123.412 99.8914V61.8962C123.412 61.3585 122.97 60.9168 122.432 60.9168H99.5071Z" fill="#00618C"/>
    <path d="M125.021 61.8964V99.8915C125.021 101.095 124.195 102.113 123.075 102.395C122.87 102.446 122.659 102.471 122.441 102.471H99.5096C98.082 102.471 96.9297 101.313 96.9297 99.8915V61.8964C96.9297 60.4687 98.0884 59.3164 99.5096 59.3164H122.435C123.862 59.3164 125.021 60.4751 125.021 61.8964Z" fill="#F4F4F4"/>
    <path d="M114.564 60.8784H107.381C106.721 60.8784 106.184 60.3407 106.184 59.6813V58.8042H115.761V59.6813C115.754 60.3471 115.223 60.8784 114.564 60.8784Z" fill="#00618C"/>
    <path d="M120.608 66.5951C121.845 66.5951 122.848 65.5919 122.848 64.3544C122.848 63.1169 121.845 62.1138 120.608 62.1138C119.37 62.1138 118.367 63.1169 118.367 64.3544C118.367 65.5919 119.37 66.5951 120.608 66.5951Z" fill="#BBBBBB"/>
    <path d="M105.213 64.3543H99.8739C99.6306 64.3543 99.4258 64.1558 99.4258 63.9061C99.4258 63.6629 99.6242 63.458 99.8739 63.458H105.213C105.456 63.458 105.661 63.6565 105.661 63.9061C105.661 64.1558 105.456 64.3543 105.213 64.3543Z" fill="#BBBBBB"/>
    <path d="M119.717 70.4876H114.378C114.135 70.4876 113.93 70.2891 113.93 70.0394C113.93 69.7962 114.128 69.5913 114.378 69.5913H119.717C119.96 69.5913 120.165 69.7898 120.165 70.0394C120.159 70.2891 119.96 70.4876 119.717 70.4876Z" fill="#BBBBBB"/>
    <path d="M107.536 65.9168H99.8661C99.6228 65.9168 99.418 65.7183 99.418 65.4686C99.418 65.2254 99.6164 65.0205 99.8661 65.0205H107.536C107.779 65.0205 107.984 65.219 107.984 65.4686C107.984 65.7119 107.785 65.9168 107.536 65.9168Z" fill="#E6E6E6"/>
    <path d="M122.039 72.2801H114.37C114.127 72.2801 113.922 72.0816 113.922 71.8319C113.922 71.5887 114.12 71.3838 114.37 71.3838H122.039C122.283 71.3838 122.488 71.5822 122.488 71.8319C122.488 72.0752 122.289 72.2801 122.039 72.2801Z" fill="#E6E6E6"/>
    <path d="M120.273 80.8972H114.312C114.095 80.8972 113.922 80.7243 113.922 80.5067V80.3978C113.922 80.1802 114.095 80.0073 114.312 80.0073H120.273C120.49 80.0073 120.663 80.1802 120.663 80.3978V80.5067C120.663 80.7243 120.49 80.8972 120.273 80.8972Z" fill="#E6E6E6"/>
    <path d="M117.392 79.5144H114.312C114.095 79.5144 113.922 79.3415 113.922 79.1239V79.015C113.922 78.7974 114.095 78.6245 114.312 78.6245H117.392C117.609 78.6245 117.782 78.7974 117.782 79.015V79.1239C117.782 79.3351 117.609 79.5144 117.392 79.5144Z" fill="#E6E6E6"/>
    <path d="M110.006 84.559L109.021 83.9572L108.086 84.559V82.376H110.006V84.559Z" fill="white" stroke="#B3B3B3" stroke-miterlimit="10"/>
    <path d="M109.993 83.0607H101.095C100.365 83.0607 99.7695 82.4653 99.7695 81.7355V68.5732C99.7695 67.8434 100.365 67.248 101.095 67.248H109.993C110.723 67.248 111.319 67.8434 111.319 68.5732V81.7355C111.312 82.4717 110.723 83.0607 109.993 83.0607Z" fill="#D9E021"/>
    <path d="M111.582 102.478H111.524H100.039V89.5908C100.039 88.861 100.634 88.2656 101.364 88.2656H110.263C110.897 88.2656 111.434 88.7138 111.556 89.3155C111.575 89.4052 111.582 89.4948 111.582 89.5908V102.478Z" fill="white"/>
    <path d="M111.523 102.478V89.5908C111.523 89.4948 111.53 89.4052 111.555 89.3155C111.683 88.7138 112.215 88.2656 112.849 88.2656H121.747C122.477 88.2656 123.072 88.861 123.072 89.5908V102.401C122.867 102.452 122.656 102.478 122.439 102.478H111.587" fill="white"/>
    <path d="M120.652 74.9879H114.922C113.648 74.9879 112.617 73.9572 112.617 72.6832V70.9995C112.617 69.7255 113.648 68.6948 114.922 68.6948H120.652C121.926 68.6948 122.956 69.7255 122.956 70.9995V72.6832C122.956 73.9572 121.919 74.9879 120.652 74.9879Z" stroke="#E6E6E6" stroke-width="3" stroke-miterlimit="10"/>
    <path d="M110.162 90.6665H101.27V91.0122H110.162V90.6665Z" fill="#BBBBBB"/>
    <path d="M110.162 91.8188H101.27V92.1645H110.162V91.8188Z" fill="#BBBBBB"/>
    <path d="M110.162 92.9712H101.27V93.3169H110.162V92.9712Z" fill="#BBBBBB"/>
    <path d="M110.162 94.1235H101.27V94.4693H110.162V94.1235Z" fill="#E6E6E6"/>
    <path d="M110.162 95.2754H101.27V95.6211H110.162V95.2754Z" fill="#BBBBBB"/>
    <path d="M110.162 96.4282H101.27V96.7739H110.162V96.4282Z" fill="#E6E6E6"/>
    <path d="M110.162 97.5806H101.27V97.9263H110.162V97.5806Z" fill="#E6E6E6"/>
    <path d="M110.162 98.7329H101.27V99.0786H110.162V98.7329Z" fill="#E6E6E6"/>
    <path d="M110.162 99.8853H101.27V100.231H110.162V99.8853Z" fill="#E6E6E6"/>
    <path d="M121.748 99.7124H112.855V100.058H121.748V99.7124Z" fill="#BBBBBB"/>
    <path d="M121.748 98.5601H112.855V98.9058H121.748V98.5601Z" fill="#BBBBBB"/>
    <path d="M121.748 97.4077H112.855V97.7534H121.748V97.4077Z" fill="#BBBBBB"/>
    <path d="M121.748 96.2554H112.855V96.6011H121.748V96.2554Z" fill="#E6E6E6"/>
    <path d="M121.748 95.103H112.855V95.4487H121.748V95.103Z" fill="#BBBBBB"/>
    <path d="M121.748 93.9507H112.855V94.2964H121.748V93.9507Z" fill="#E6E6E6"/>
    <path d="M121.748 92.7983H112.855V93.144H121.748V92.7983Z" fill="#E6E6E6"/>
    <path d="M121.748 91.646H112.855V91.9917H121.748V91.646Z" fill="#E6E6E6"/>
    <path d="M121.748 90.4937H112.855V90.8393H121.748V90.4937Z" fill="#E6E6E6"/>
    <path d="M120.584 75.7213C120.584 75.7213 120.456 75.8814 120.367 75.9198C120.367 75.9198 120.194 75.9838 120.079 76.035C120.04 76.0542 120.008 76.067 119.989 76.0798C119.906 76.131 119.739 76.2655 119.509 76.3359C119.279 76.3999 118.229 76.6432 118.229 76.6432L117.985 76.0222L117.812 75.5165C117.812 75.5165 118.786 74.2553 118.99 74.1721C119.01 74.1657 119.029 74.1529 119.054 74.1529C119.24 74.0952 119.4 74.1337 119.503 74.1144C119.541 74.108 119.912 74.0632 119.989 74.1465C120.098 74.2553 120.136 74.3705 120.117 74.4794C120.117 74.4794 120.328 74.697 120.341 74.9019C120.341 74.9019 120.54 75.1003 120.488 75.3564C120.476 75.35 120.655 75.5677 120.584 75.7213Z" fill="#9C7248"/>
    <path d="M104.134 73.3846C104.134 73.3846 105.94 72.7124 106.772 74.0824C107.604 75.4588 107.527 78.2116 106.612 78.5445C105.703 78.8838 104.333 78.7046 103.865 77.8467C103.398 76.9889 102.975 75.7405 103.001 74.9147C103.027 74.0824 103.66 73.6215 104.134 73.3846Z" fill="#9C7248"/>
    <path d="M106.313 78.468C106.313 78.468 106.242 78.9418 106.358 79.1722C106.479 79.4027 104.085 79.4091 104.085 79.4091C104.085 79.4091 103.893 78.1415 103.522 77.0724C103.157 75.9969 106.313 78.468 106.313 78.468Z" fill="#9C7248"/>
    <path d="M103.531 77.072C103.531 77.072 103.697 77.3473 104.369 77.2385C105.041 77.1297 105.867 76.2334 106.149 76.1374C106.431 76.0413 106.431 75.8749 106.431 75.8749L106.61 76.131L106.911 76.1502C106.911 76.1502 106.635 75.3499 107.052 75.0234C107.461 74.6969 106.623 72.4307 104.465 73.1797C104.465 73.1797 102.807 73.6342 102.865 74.5817C102.916 75.5228 103.159 76.5983 103.531 77.072Z" fill="black"/>
    <path d="M106.385 75.5294C106.346 75.3693 105.943 74.9212 105.789 75.4013C105.636 75.8879 106.02 76.5345 106.237 76.4833C106.455 76.4256 106.481 75.9327 106.385 75.5294Z" fill="#9C7248"/>
    <path d="M107.295 112.558C107.295 112.558 107.077 113.422 107.045 113.556C107.013 113.684 105.656 113.326 105.656 113.326V112.263C105.656 112.27 107.135 112.417 107.295 112.558Z" fill="#666FB3"/>
    <path d="M108.97 91.2329C108.97 91.2329 109.962 94.9076 110.218 96.22C110.442 97.366 109.623 103.486 109.687 104.21C109.751 104.933 108.048 111.943 107.741 113.211L105.02 112.775C105.02 112.775 106.806 106.361 106.191 104.018C105.462 101.233 106.896 98.2558 105.007 96.4505C103.439 94.9524 102.12 94.4147 101.582 90.7272C101.582 90.7336 108.24 90.0614 108.97 91.2329Z" fill="#12161E"/>
    <path d="M107.907 114.382C107.171 113.966 107.068 113.448 107.068 113.448C106.025 113.441 105.653 113.236 105.653 113.236C105.653 113.236 104.994 115.01 105.154 115.311C105.314 115.618 106.178 115.554 107.932 115.791C108.156 115.823 108.509 115.842 108.841 115.855C109.238 115.874 109.565 115.535 109.386 115.176L107.907 114.382Z" fill="#12161E"/>
    <path d="M100.557 113.537C100.557 113.537 100.339 114.401 100.307 114.536C100.275 114.664 98.918 114.305 98.918 114.305V113.243C98.918 113.249 100.397 113.396 100.557 113.537Z" fill="#666FB3"/>
    <path d="M101.583 90.7334C101.583 90.7334 101.09 92.7756 100.942 94.8242C100.808 96.7128 100.558 98.7934 100.366 100.772C100.149 102.98 99.5212 106.54 99.4891 107.724C99.4571 108.902 98.4648 114.062 98.4648 114.062L101.006 114.356C101.006 114.356 102.658 105.246 103.049 104.312C103.439 103.384 105.372 96.7384 105.436 95.9958C105.494 95.2403 101.583 90.7334 101.583 90.7334Z" fill="#12161E"/>
    <path d="M100.334 114.427C100.334 114.427 100.711 115.003 101.115 115.285C101.518 115.567 103.055 115.919 103.279 116.188C103.439 116.38 103.669 117.109 101.198 116.777C99.4439 116.54 98.5796 116.597 98.4196 116.296C98.2595 115.989 98.9189 114.222 98.9189 114.222C98.9189 114.222 99.2966 114.414 100.334 114.427Z" fill="#12161E"/>
    <path d="M109.326 83.89C109.569 83.7364 109.883 83.5251 110.971 82.981C112.994 81.9695 115.491 80.1321 115.965 79.8697C116.695 79.4599 118.999 76.6431 118.999 76.6431C118.878 76.2206 117.789 75.3691 117.789 75.3691C117.789 75.3691 114.294 78.6789 113.532 79.0886C112.873 79.4407 109.633 79.7928 108.737 79.8825C108.59 79.8953 108.506 79.9081 108.506 79.9081C107.565 81.182 108.807 84.2293 109.326 83.89Z" fill="#B3B3B3"/>
    <path d="M99.4934 85.369C99.5126 85.6059 99.7814 85.862 99.9671 85.99C100.082 86.0732 100.23 86.118 100.377 86.1244L100.486 86.1308L102.361 86.1949C102.361 86.1949 103.757 81.6879 101.139 79.9658C101.062 79.9722 99.3141 83.1988 99.4934 85.369Z" fill="#B3B3B3"/>
    <path d="M109.482 95.8165C109.699 95.7845 108.944 89.3378 109.001 88.9345C109.04 88.6656 109.033 86.5658 109.021 85.2598L109.258 83.9347C109.392 83.8386 109.565 83.7298 109.776 83.6082C110.103 83.4161 110.512 83.2048 110.973 82.9744C110.922 82.6607 110.884 82.4174 110.871 82.2702C110.756 81.1114 109.975 80.4904 109.533 80.2344C109.354 80.1319 109.226 80.0807 109.226 80.0807C109.059 80.0103 108.893 79.9399 108.733 79.8759C107.67 79.4405 106.313 79.0244 106.313 79.0244H104.136C104.136 79.0244 102.484 79.3573 101.492 79.7606C101.364 79.8118 101.249 79.8759 101.134 79.9591L101.428 86.1561C101.428 86.1561 101.428 86.1561 101.428 86.1625V86.1689C101.562 87.0396 101.703 88.0703 101.748 88.7873C101.767 89.0818 101.428 90.663 101.255 92.1162L100.641 95.5861C100.653 95.5925 101.006 97.0329 109.482 95.8165Z" fill="#B3B3B3"/>
    <defs>
    <linearGradient id="paint0_linear" x1="58.1721" y1="86.3894" x2="185.995" y2="86.3894" gradientUnits="userSpaceOnUse">
    <stop stop-color="#6B9E34"/>
    <stop offset="0.1351" stop-color="#61933C"/>
    <stop offset="1" stop-color="#1F4A6E"/>
    </linearGradient>
    <linearGradient id="paint1_linear" x1="149.314" y1="97.0617" x2="168.293" y2="97.0617" gradientUnits="userSpaceOnUse">
    <stop stop-color="#FF9F55"/>
    <stop offset="1" stop-color="#FFD255"/>
    </linearGradient>
    <linearGradient id="paint2_linear" x1="140.398" y1="112.868" x2="159.194" y2="112.868" gradientUnits="userSpaceOnUse">
    <stop stop-color="#FF9F55"/>
    <stop offset="1" stop-color="#FFD255"/>
    </linearGradient>
    <linearGradient id="paint3_linear" x1="182.106" y1="105.718" x2="146.257" y2="105.718" gradientUnits="userSpaceOnUse">
    <stop stop-color="#609FF0"/>
    <stop offset="1" stop-color="#5A3F9E"/>
    </linearGradient>
    <linearGradient id="paint4_linear" x1="41.2206" y1="117.713" x2="41.2206" y2="108.144" gradientUnits="userSpaceOnUse">
    <stop stop-color="#FF9F55"/>
    <stop offset="1" stop-color="#FFD255"/>
    </linearGradient>
    <linearGradient id="paint5_linear" x1="40.8851" y1="96.1383" x2="40.8851" y2="109.384" gradientUnits="userSpaceOnUse">
    <stop stop-color="#40D5E6"/>
    <stop offset="1" stop-color="#5577FF"/>
    </linearGradient>
    <linearGradient id="paint6_linear" x1="50.0019" y1="96.774" x2="50.0019" y2="86.8711" gradientUnits="userSpaceOnUse">
    <stop stop-color="#FF9F55"/>
    <stop offset="1" stop-color="#FFD255"/>
    </linearGradient>
    <linearGradient id="paint7_linear" x1="38.6693" y1="70.1487" x2="38.6693" y2="81.2738" gradientUnits="userSpaceOnUse">
    <stop stop-color="#40D5E6"/>
    <stop offset="1" stop-color="#5577FF"/>
    </linearGradient>
    <linearGradient id="paint8_linear" x1="47.0643" y1="64.663" x2="47.0643" y2="73.5615" gradientUnits="userSpaceOnUse">
    <stop stop-color="#40D5E6"/>
    <stop offset="1" stop-color="#5577FF"/>
    </linearGradient>
    </defs>
</svg>
