<svg width="590" height="423" viewBox="0 0 590 423" fill="none" xmlns="http://www.w3.org/2000/svg">
<path opacity="0.1" d="M586.479 258.235C586.51 279.805 581.878 300.97 573.088 319.419C573.088 341.983 564.814 362.434 551.392 377.339C548.032 381.065 544.416 384.397 540.585 387.297C540.432 387.421 540.273 387.539 540.114 387.656C539.827 387.871 539.54 388.086 539.248 388.307L538.976 388.509C537.751 389.389 536.5 390.237 535.224 391.031C523.46 398.385 510.518 402.177 497.41 402.111H111.334C108.258 402.111 105.209 401.955 102.188 401.642C91.4515 400.567 80.9007 397.461 70.8851 392.426C68.9302 391.444 67.0128 390.388 65.1331 389.259C64.2377 388.725 63.3508 388.175 62.4724 387.61C61.9239 387.258 61.3754 386.893 60.8319 386.528C57.5347 384.299 54.3407 381.832 51.2658 379.138C48.4556 376.693 45.7516 374.056 43.1658 371.239C25.7201 352.208 14.9288 325.872 14.9288 296.811C5.15012 277.669 -0.0368065 255.323 0.000196609 232.498C0.000196609 167.886 40.6231 115.506 90.7399 115.506C92.2779 115.506 93.8166 115.565 95.3545 115.669C95.5743 115.669 95.7901 115.669 96.0107 115.708C104.459 97.4015 115.753 80.5799 129.333 65.7726C166.368 25.4305 220.494 0 280.787 0C331.447 0 377.756 17.9551 413.227 47.6219C426.668 37.9626 441.849 32.8989 457.289 32.9254C507.396 32.9254 548.029 85.305 548.029 149.918C548.022 154.005 547.851 158.091 547.516 162.157C559.595 173.026 569.44 187.43 576.221 204.151C583.002 220.873 586.52 239.422 586.479 258.235Z" fill="#3498DB"/>
<path d="M504.964 230.565C504.964 230.565 454.022 208.672 434.347 238.344C414.673 268.016 442.236 266.168 442.236 266.168C442.236 266.168 443.766 279.888 469.788 247.42C482.05 232.118 504.964 230.565 504.964 230.565Z" fill="#BBD070"/>
<path d="M513.848 145.983C513.848 145.983 468.628 131.958 438.853 189.317C409.081 246.675 382.312 251.21 382.312 251.21C382.312 251.21 484.592 269.563 513.848 145.983Z" fill="#97A43C"/>
<path d="M401.12 254.521C405.081 273.59 448.731 236.817 453.029 203.842C457.327 170.866 448.768 146.67 457.445 125.518C457.445 125.518 381.62 160.615 401.12 254.521Z" fill="#48753A"/>
<path d="M469.502 225.965C456.968 225.965 445.161 229.076 434.807 234.563C414.601 207.04 382.018 189.169 345.257 189.169C301.374 189.169 263.44 214.634 245.413 251.59C238.904 248.739 231.718 247.147 224.158 247.147C194.854 247.147 171.102 270.899 171.102 300.196C171.102 305.16 171.783 309.966 173.065 314.522H235.147H275.246H396.661H455.368H542.343C543.259 309.888 543.733 305.095 543.733 300.196C543.733 259.201 510.496 225.965 469.502 225.965Z" fill="url(#paint0_linear)"/>
<path d="M417.652 296.868H496.163C498.996 296.868 501.294 294.571 501.294 291.738V274.176C501.294 271.343 498.996 269.046 496.163 269.046H417.652V296.868Z" fill="url(#paint1_linear)"/>
<path d="M392.879 338.554H488.558C490.594 338.554 492.245 336.902 492.245 334.866V323.2C492.245 321.164 490.594 319.512 488.558 319.512H392.879V338.554Z" fill="url(#paint2_linear)"/>
<path d="M382.687 321.593V336.471H380.16V338.552H425.052C426.457 338.552 427.599 337.412 427.599 336.005V322.06C427.599 320.652 426.455 319.512 425.052 319.512H380.16V321.593H382.687Z" fill="#F08533"/>
<path d="M382.688 336.473H422.874C424.227 336.473 425.323 335.375 425.323 334.024V324.043C425.323 322.69 424.225 321.595 422.874 321.595H382.688V336.473Z" fill="#FAE6DE"/>
<path d="M404.263 271.909V294.004H402.895V296.868H459.783C462.711 296.868 465.087 294.494 465.087 291.564V274.348C465.087 271.42 462.713 269.044 459.783 269.044H402.895V271.909H404.263Z" fill="#F08533"/>
<path d="M404.262 294.004H456.87C459.799 294.004 462.174 291.63 462.174 288.7V277.211C462.174 274.283 459.8 271.907 456.87 271.907H404.262V294.004Z" fill="#FAE6DE"/>
<path d="M434.605 319.512H511.692C515.313 319.512 518.249 316.576 518.249 312.956V303.424C518.249 299.804 515.313 296.868 511.692 296.868H434.605V319.512Z" fill="url(#paint3_linear)"/>
<path d="M421.22 299.201V317.183H419.852V319.514H475.487C479.108 319.514 482.044 316.578 482.044 312.957V303.424C482.044 299.804 479.108 296.868 475.487 296.868H419.852V299.199H421.22V299.201Z" fill="#495DA1"/>
<path d="M421.219 317.181H472.752C476.373 317.181 479.309 314.245 479.309 310.625V305.754C479.309 302.133 476.373 299.197 472.752 299.197H421.219V317.181Z" fill="#FAE6DE"/>
<path d="M430.312 305.501H452.387V304.932H430.312V305.501Z" fill="#DECCC5"/>
<path d="M439.159 307.229H462.73V306.66H439.159V307.229Z" fill="#DECCC5"/>
<path d="M387.996 326.011H410.07V325.442H387.996V326.011Z" fill="#DECCC5"/>
<path d="M396.849 327.739H420.422V327.17H396.849V327.739Z" fill="#DECCC5"/>
<path d="M413.026 329.318H422.777V328.749H413.026V329.318Z" fill="#DECCC5"/>
<path d="M430.069 287.418H453.641V286.849H430.069V287.418Z" fill="#DECCC5"/>
<path d="M428.131 288.996H437.883V288.426H428.131V288.996Z" fill="#DECCC5"/>
<path d="M431.629 290.596C431.629 290.31 431.934 289.876 432.411 290.251C432.887 290.626 432.299 291.996 431.915 291.874C431.527 291.753 431.629 290.891 431.629 290.596Z" fill="#EEA886"/>
<path d="M424.639 295.807C424.639 295.807 424.87 297.69 425.176 298.523C425.482 299.353 427.143 301.272 426.442 303.114C425.68 305.113 422.358 303.187 421.001 302.576C419.645 301.966 419.954 300.861 419.811 299.506C419.667 298.151 419.004 298.114 419.249 297.162C419.493 296.21 420.975 294.385 420.975 294.385L424.639 295.807Z" fill="#213A70"/>
<path d="M421.616 293.398C421.616 293.398 420.765 294.589 420.79 294.62C420.814 294.652 424.433 296.856 424.686 296.141C424.886 295.574 424.97 294.751 424.97 294.751L421.616 293.398Z" fill="#EEA886"/>
<path d="M409.344 297.138C409.344 297.138 408.24 298.106 407.249 299.594C406.258 301.081 403.624 301.161 403.51 303.192C403.397 305.223 407.09 305.286 409.029 304.623C410.968 303.963 411.261 301.979 412.433 301.482C413.605 300.986 414.213 300.585 414.124 299.616C414.034 298.648 413.385 297.076 413.385 297.076C413.385 297.076 412.657 297.309 412.228 297.356C411.798 297.405 410.358 297.421 409.344 297.138Z" fill="#213A70"/>
<path d="M422.635 242.118C422.635 242.118 421.893 246.535 421.293 249.454C421.051 250.637 420.831 251.574 420.694 251.869C420.523 252.241 419.129 253.737 417.421 255.495C414.426 258.579 410.469 262.46 410.469 262.46L408.922 259.525C408.922 259.525 412.436 255.404 414.819 252.655C415.922 251.382 416.783 250.404 416.939 250.264C417.438 249.818 418.016 245.429 418.828 241.81C419.64 238.193 421.269 236.192 421.269 236.192L422.635 242.118Z" fill="#FAE6DE"/>
<path d="M417.421 255.495C414.426 258.578 410.469 262.46 410.469 262.46L408.922 259.525C408.922 259.525 412.436 255.404 414.819 252.655C415.549 253.013 416.889 253.868 417.421 255.495Z" fill="#EEA886"/>
<path d="M409.517 295.785L409.344 297.138C409.344 297.138 411.266 297.817 413.384 297.078L413.427 295.874L409.517 295.785Z" fill="#EEA886"/>
<path d="M436.805 261.863C436.915 262.257 416.445 261.863 416.445 261.863C416.445 261.863 422.108 257.742 422.475 256.641C422.843 255.54 421.035 248.934 420.798 246.784C420.609 245.065 420.135 237.368 421.27 236.192C422.455 234.964 426.723 233.675 426.723 233.675L432.945 233.906C432.945 233.906 433.972 234.121 434.707 234.462C435.44 234.804 439.638 236.299 440.321 238.397C441.002 240.494 436.133 247.237 436.133 247.237C436.133 247.237 436.123 247.539 436.109 248.036C436.09 248.698 436.062 249.704 436.038 250.796C436.006 252.211 435.976 253.767 435.976 254.904C435.97 257.578 436.695 261.469 436.805 261.863Z" fill="#FAE6DE"/>
<path d="M436.805 261.863C436.805 261.863 439.589 265.952 439.629 268.744C439.668 271.536 434.689 280.886 433.935 282.224C431.669 286.246 425.454 294.921 425.454 294.921C425.454 294.921 424.383 294.895 421.04 293.596C421.04 293.596 425.174 282.139 425.699 280.948C427.921 275.903 429.161 272.324 428.414 271.46C427.668 270.594 425.63 269.728 425.04 269.216C424.45 268.705 414.174 271.157 413.097 271.437C410.309 272.16 411.58 277.012 412.198 279.186C413.23 282.824 414.131 295.964 414.131 295.964C414.131 295.964 412.146 296.809 408.82 296.095C408.82 296.095 402.288 272.37 402.079 270.01C401.87 267.651 401.765 263.759 417.862 260.803L436.805 261.863Z" fill="#303669"/>
<path d="M428.429 220.159C428.429 220.159 423.028 218.94 424.261 225.737C425.495 232.534 426.794 233.068 430.052 231.661C433.311 230.254 433.02 225.9 433.182 223.765C433.346 221.63 430.151 220.232 428.429 220.159Z" fill="#EEA886"/>
<path d="M427 235.422C427 235.422 429.393 237.958 433.172 235.653C433.172 235.653 432.326 230.157 432.771 227.481C433.215 224.804 427.838 231.628 427.838 231.628C427.909 231.665 427.956 231.92 427.967 232.283C427.976 232.59 427.959 232.977 427.911 233.372C427.801 234.263 427.523 235.201 427 235.422Z" fill="#EEA886"/>
<path d="M432.922 227.253C432.922 227.253 432.782 225.112 432 225.045C431.218 224.978 431.097 225.84 431.097 225.84L430.307 225.99C430.307 225.99 430.557 224.112 429.775 223.785C428.993 223.457 424.714 224.819 424.089 224.267C423.462 223.716 423.757 219.909 424.891 219.388C426.026 218.868 429.156 217.699 431.451 219.252C431.451 219.252 433.239 219.049 433.504 220.491C433.769 221.934 433.409 226.18 432.922 227.253Z" fill="#3A3F47"/>
<path d="M427.91 233.373C431.811 232.171 432.104 229.821 432.107 229.786C430.823 231.992 427.966 232.285 427.966 232.285C427.975 232.591 427.961 232.977 427.91 233.373Z" fill="#A77860"/>
<path d="M434.769 234.492C434.769 234.492 431.914 240.177 427.3 239.811C422.687 239.444 426.515 233.729 426.724 233.677C426.953 233.619 431.455 232.497 434.769 234.492Z" fill="#EEA886"/>
<path d="M414.105 261.576C414.105 261.576 428.243 263.319 436.807 261.863L420.441 259.818C420.441 259.82 420.344 260.236 414.105 261.576Z" fill="#FAE6DE"/>
<path d="M424.678 259.176L423.625 259.71C423.625 259.71 423.866 261.382 424.442 261.889L425.624 261.587C425.624 261.587 425.377 259.752 424.678 259.176Z" fill="#EEA886"/>
<path d="M441.034 255.749C440.823 255.994 438.044 257.11 434.905 258.321C430.616 259.972 425.777 261.536 425.777 261.536L424.676 259.176C424.676 259.176 429.743 256.423 433.166 254.491C434.784 253.579 436.034 252.851 436.209 252.683C436.76 252.158 436.902 251.319 436.497 249.852C436.092 248.385 435.161 241.646 435.056 240.86C434.952 240.074 435.317 237.977 437.284 237.872C439.252 237.767 440.252 238.322 440.252 238.322C440.252 238.322 440.745 238.527 441.112 243.299C441.48 248.067 441.532 255.172 441.034 255.749Z" fill="#FAE6DE"/>
<path d="M436.104 248.036C436.085 248.699 436.057 249.705 436.033 250.796C434.114 246.093 435.223 242.338 435.242 242.275C435.033 243.551 436.089 247.973 436.104 248.036Z" fill="#968A86"/>
<path d="M421.291 249.454C421.048 250.637 420.828 251.574 420.692 251.869C420.037 248.696 420.627 244.635 420.627 244.635C420.716 246.576 421.291 249.454 421.291 249.454Z" fill="#968A86"/>
<path d="M434.905 258.321C430.616 259.975 425.622 261.587 425.622 261.587L424.676 259.176C424.676 259.176 429.743 256.423 433.166 254.492C433.167 254.492 434.412 255.098 434.905 258.321Z" fill="#EEA886"/>
<path d="M424.374 261.727L404.281 261.43L414.424 266.583L424.374 261.727Z" fill="#807571"/>
<path d="M414.422 266.583L424.372 262.729V261.727L413.637 265.599L414.422 266.583Z" fill="#DBCAC2"/>
<path d="M423.851 259.745C423.851 259.745 422.595 259.549 421.728 259.347C421.056 259.191 419.387 259.407 418.962 259.838C418.536 260.269 417.185 263.27 416.929 263.455C416.674 263.638 417.06 264.062 417.51 263.849C417.51 263.849 417.922 265.163 418.939 264.67C419.956 264.177 420.647 263.104 421.181 262.916C421.714 262.727 424.816 261.772 424.816 261.772C424.816 261.772 424.65 259.426 423.851 259.745Z" fill="#EEA886"/>
<path d="M419.269 259.641C419.269 259.641 418.463 260.031 418.252 260.204C418.041 260.378 417.188 261.016 416.981 261.167C416.774 261.317 417.293 261.744 418.817 261.083C420.344 260.423 419.269 259.641 419.269 259.641Z" fill="#EEA886"/>
<path d="M414.423 266.583L408.447 250.264L389.18 250.578L394.876 265.616L414.423 266.583Z" fill="#DBCAC2"/>
<path d="M402.285 257.483C402.873 258.659 402.696 259.939 401.888 260.342C401.081 260.745 399.95 260.12 399.362 258.944C398.775 257.769 398.952 256.488 399.76 256.085C400.566 255.682 401.697 256.307 402.285 257.483Z" fill="#B0A29C"/>
<path d="M431.113 224.933C431.184 224.334 432.369 224.114 432.464 225.013C432.559 225.913 431.925 227.49 431.475 227.335C431.025 227.178 431.014 225.76 431.113 224.933Z" fill="#EEA886"/>
<path d="M174.469 345.465H76.0957C72.1317 345.465 68.918 342.251 68.918 338.287V326.636C68.918 322.672 72.1317 319.458 76.0957 319.458H174.469V345.465Z" fill="url(#paint4_linear)"/>
<path d="M191.364 322.135V342.789H193.088V345.465H121.783C117.819 345.465 114.605 342.251 114.605 338.287V326.634C114.605 322.67 117.819 319.457 121.783 319.457H193.088V322.133H191.364V322.135Z" fill="#FF9F55"/>
<path d="M191.363 342.789H127.049C123.085 342.789 119.871 339.575 119.871 335.611V329.312C119.871 325.348 123.085 322.135 127.049 322.135H191.363V342.789Z" fill="#EFF7FE"/>
<path d="M179.063 319.457H71.3713C66.3902 319.457 62.3516 315.418 62.3516 310.437V298.228C62.3516 293.247 66.3902 289.208 71.3713 289.208H179.063V319.457Z" fill="url(#paint5_linear)"/>
<path d="M198.164 292.324V316.345H199.65V319.458H141.078C136.097 319.458 132.059 315.42 132.059 310.438V298.229C132.059 293.248 136.097 289.209 141.078 289.209H199.65V292.322H198.164V292.324Z" fill="#5284FC"/>
<path d="M198.166 316.344H145.614C140.632 316.344 136.594 312.305 136.594 307.324V301.341C136.594 296.359 140.632 292.321 145.614 292.321H198.166V316.344Z" fill="#EFF7FE"/>
<path d="M101.477 289.204H183.328C188.72 289.204 193.089 284.833 193.089 279.444V261.882C193.089 256.492 188.72 252.121 183.328 252.121H101.477V289.204Z" fill="url(#paint6_linear)"/>
<path d="M86.815 255.94V285.39H85.3183V289.206H143.675C149.065 289.206 153.436 284.835 153.436 279.445V261.884C153.436 256.494 149.065 252.123 143.675 252.123H85.3164V255.94H86.815Z" fill="#FF9F55"/>
<path d="M86.8164 285.387H138.423C143.781 285.387 148.126 281.045 148.126 275.685V265.64C148.126 260.282 143.781 255.938 138.423 255.938H86.8164V285.387Z" fill="#EFF7FE"/>
<path d="M162.767 252.111H75.9757C70.3078 252.111 65.7148 247.517 65.7148 241.851V225.291C65.7148 219.623 70.3096 215.03 75.9757 215.03H162.767V252.111Z" fill="url(#paint7_linear)"/>
<path d="M178.304 218.847V248.297H179.89V252.113H117.987C112.319 252.113 107.727 247.519 107.727 241.853V225.291C107.727 219.623 112.321 215.03 117.987 215.03H179.89V218.847H178.304Z" fill="#5284FC"/>
<path d="M178.301 248.295H123.331C117.688 248.295 113.113 243.721 113.113 238.077V229.065C113.113 223.421 117.688 218.847 123.331 218.847H178.303V248.295H178.301Z" fill="#EFF7FE"/>
<path d="M187.25 215.019H96.5649C93.047 215.019 90.1953 212.168 90.1953 208.65V193.326C90.1953 189.808 93.047 186.956 96.5649 186.956H187.25V215.019Z" fill="url(#paint8_linear)"/>
<path d="M202.784 189.845V212.132H204.371V215.021H138.577C135.059 215.021 132.207 212.17 132.207 208.652V193.326C132.207 189.808 135.059 186.956 138.577 186.956H204.371V189.845H202.784Z" fill="#5284FC"/>
<path d="M202.783 212.131H143.416C139.899 212.131 137.047 209.279 137.047 205.761V196.213C137.047 192.695 139.899 189.844 143.416 189.844H202.783V212.131Z" fill="#EFF7FE"/>
<path d="M167.066 212.948C167.066 212.948 168 211.53 168.149 210.69C168.298 209.85 168.765 209.384 168.765 209.384C168.765 209.384 172.311 208.861 173.673 207.611C175.035 206.341 177.928 202.907 179.29 203.934C180.653 204.96 178.301 209.309 176.92 210.615C175.539 211.922 173.654 214.217 171.937 214.049C170.22 213.881 167.888 213.079 167.066 212.948Z" fill="#CFBFB8"/>
<path d="M167.068 212.724L168.785 209.383C168.785 209.383 160.611 207.89 158.203 206.434C157.606 206.08 157.009 205.706 156.449 205.371C155.18 204.587 154.135 203.915 153.762 203.598C152.586 202.59 147.845 199.23 146.558 197.999C145.27 196.767 143.777 197.513 141.78 197.532C139.783 197.551 132.561 199.548 130.396 199.846C128.231 200.126 120.43 201.582 120.43 201.582C121.811 205.352 167.068 212.724 167.068 212.724Z" fill="#606060"/>
<path d="M119.982 201.489C119.982 201.489 124.386 202.124 125.525 202.217C126.682 202.31 133.232 202.833 136.405 203.132C139.559 203.43 145.774 203.262 147.006 203.803C148.237 204.345 155.367 206.752 157.699 207.517C160.032 208.264 175.168 211.045 175.168 211.045C175.168 211.045 175.429 213.098 174.085 214.665C174.085 214.665 167.404 214.068 163.895 214.591C160.368 215.113 154.228 214.311 150.477 212.631C146.744 210.933 140.828 212.482 137.506 213.639C134.203 214.796 121.549 215.729 119.963 215.374C118.377 215.02 115.241 213.508 112.965 211.026C110.688 208.525 119.982 201.489 119.982 201.489Z" fill="#808080"/>
<path d="M174.086 214.646C174.086 214.646 174.646 213.041 174.59 212.201C174.534 211.362 174.795 210.951 174.795 210.951C174.795 210.951 178.192 209.421 179.2 207.872C180.207 206.323 182.186 202.273 183.753 202.945C185.321 203.617 184.089 208.394 183.063 209.999C182.036 211.604 181.402 215.897 179.685 216.139C178.005 216.401 174.907 214.572 174.086 214.646Z" fill="#EDDAD3"/>
<path d="M110.09 198.671C110.09 198.671 104.528 211.306 113.169 214.366C120.056 216.811 132.765 214.553 132.765 214.553L124.945 202.236L110.09 198.671Z" fill="#808080"/>
<path d="M124.405 151.006C122.277 151.472 123.546 156.791 122.128 164.238C120.71 171.684 116.23 172.841 116.23 172.841C116.23 172.841 118.227 169.538 118.003 166.085C117.835 163.398 114.569 156.045 117.798 151.23C120.299 147.516 124.685 150.894 124.685 150.894L124.405 151.006Z" fill="#603813"/>
<path d="M121.211 166.496L125.335 170.733C125.373 169.949 125.653 169.016 125.951 168.213C126.101 167.821 126.25 167.485 126.362 167.206C126.511 166.851 126.623 166.627 126.623 166.627L122.947 162.745L121.211 166.496Z" fill="#C69076"/>
<path d="M126.121 170.322C126.121 170.322 126.289 172.356 127.39 174.241C128.491 176.126 130.339 179.242 130.077 181.277C129.816 183.311 128.958 184.039 128.174 184.767C127.39 185.494 125.244 190.776 124.982 192.81C124.721 194.845 124.553 199.062 125.057 202.16C125.057 202.16 110.612 203.84 109.156 201.321C109.156 201.321 110.948 193.202 111.788 191.168C112.628 189.134 114.401 176.966 115.166 174.894C115.931 172.822 117.722 170.825 118.805 169.388C119.775 168.101 121.567 165.73 121.567 165.73L126.121 170.322Z" fill="#F7931E"/>
<path d="M127.93 151.435C129.834 151.566 133.94 153.003 133.996 158.098C133.996 158.098 133.678 159.442 133.23 160.468C132.783 161.495 133.66 164.387 133.025 165.153C132.615 165.638 131.793 165.078 131.793 165.078C131.793 165.078 130.282 168.381 129.087 168.213C127.893 168.045 123.433 166.571 121.79 162.073C120.129 157.557 120.223 150.931 127.93 151.435Z" fill="#C69076"/>
<path d="M133.995 158.117C133.995 158.117 130.673 159.852 127.575 159.927C124.477 160.002 121.92 164.966 121.92 164.966C121.92 164.966 118.169 156.53 122.461 152.257C126.754 148.001 135.339 152.331 133.995 158.117Z" fill="#603813"/>
<path d="M126.848 159.89C126.904 159.292 126.344 158.341 125.28 159.031C124.216 159.722 125.205 162.689 126.027 162.503C126.848 162.316 126.792 160.506 126.848 159.89Z" fill="#C69076"/>
<path d="M123.414 164.854C123.47 164.947 124.982 167.429 125.952 168.213C126.101 167.821 126.251 167.485 126.363 167.205C126.363 167.205 124.198 165.917 123.414 164.854Z" fill="#A77860"/>
<path d="M154.507 204.521L134.316 200.709L133.984 202.469L154.174 206.281L154.507 204.521Z" fill="#C4C4C4"/>
<path d="M164.331 188.328L152.711 205.273L154.188 206.287L165.808 189.341L164.331 188.328Z" fill="#C4C4C4"/>
<path d="M150.326 203.747C150.419 203.299 150.326 202.553 148.907 201.788C147.489 201.022 144.447 199.305 143.364 199.268C142.282 199.231 140.173 199.399 139.744 199.399C139.315 199.399 140.416 201.956 140.416 201.956L150.326 203.747Z" fill="#C69076"/>
<path d="M140.247 199.585C140.247 199.585 134.349 197.271 133.398 196.804C132.446 196.338 127.985 194.845 127.594 194.639C127.202 194.434 125.335 183.311 125.167 180.493C124.999 177.694 124.831 171.759 121.677 172.02C118.505 172.281 117.758 174.353 118.15 178.459C118.542 182.546 120.894 197.196 121.883 197.681C122.872 198.185 134.237 200.724 140.228 201.918C145.939 203.075 140.247 199.585 140.247 199.585Z" fill="#C69076"/>
<path d="M125.487 181.388C125.487 181.388 120.933 182.247 118.302 182.508C118.302 182.508 115.036 173.177 119.477 171.702C124.759 169.911 125.935 177.152 125.487 181.388Z" fill="#EDDAD3"/>
<path d="M220.637 336.029C220.637 336.029 220.263 338.698 220.207 339.108C220.151 339.519 215.952 338.866 215.952 338.866L215.616 335.674C215.616 335.674 220.114 335.637 220.637 336.029Z" fill="#5C544D"/>
<path d="M220.246 338.754C220.246 338.754 221.572 340.359 222.859 341.068C224.147 341.777 226.163 342.057 226.928 342.785C227.469 343.308 228.925 345.566 223.587 345.528C218.25 345.491 215.655 345.846 215.096 344.987C214.517 344.129 215.917 338.586 215.917 338.586C215.917 338.586 217.186 339.034 220.246 338.754Z" fill="#3C4145"/>
<path d="M250.742 336.029C250.742 336.029 250.369 338.698 250.313 339.108C250.257 339.519 246.058 338.866 246.058 338.866L245.722 335.674C245.722 335.674 250.22 335.637 250.742 336.029Z" fill="#5C544D"/>
<path d="M250.349 338.754C250.349 338.754 251.674 340.359 252.962 341.068C254.25 341.777 258.99 342.356 259.755 343.084C260.296 343.606 261.211 345.715 253.69 345.529C248.352 345.379 245.758 345.846 245.198 344.987C244.62 344.129 246.019 338.586 246.019 338.586C246.019 338.586 247.214 339.071 250.349 338.754Z" fill="#3C4145"/>
<path d="M222.131 266.92C222.131 266.92 219.892 273.564 220.19 279.294C220.489 285.023 219.033 291.275 218.436 297.266C217.783 303.929 215.077 319.718 214.965 323.282C214.853 326.847 215.375 338.231 215.375 338.231L220.788 338.362C220.788 338.362 225.341 310.778 226.517 307.96C227.693 305.142 233.534 285.079 233.74 282.821C233.945 280.544 222.131 266.92 222.131 266.92Z" fill="#808080"/>
<path d="M244.899 268.096C244.899 268.096 247.867 283.792 248.259 287.282C248.651 290.79 248.912 304.228 249.117 306.43C249.323 308.613 250.424 335.077 251.469 338.325H244.545C244.545 338.325 239.226 319.083 239.226 309.995C239.226 300.887 235.12 290.212 232.47 284.202C229.82 278.193 223.754 278.062 222.131 266.921C222.131 266.921 242.679 264.569 244.899 268.096Z" fill="#808080"/>
<path d="M230.827 214.496C230.827 214.496 236.276 212.462 238.796 216.605C241.315 220.767 241.072 229.072 238.31 230.099C235.567 231.125 231.424 230.584 230.024 227.99C228.624 225.395 227.337 221.626 227.411 219.125C227.467 216.605 229.39 215.224 230.827 214.496Z" fill="#C69076"/>
<path d="M237.399 229.856C237.399 229.856 237.175 231.293 237.549 231.984C237.922 232.693 230.681 232.711 230.681 232.711C230.681 232.711 230.102 228.886 228.982 225.638C227.881 222.391 237.399 229.856 237.399 229.856Z" fill="#C69076"/>
<path d="M228.982 225.638C228.982 225.638 229.486 226.459 231.521 226.142C233.555 225.825 236.037 223.119 236.895 222.82C237.754 222.522 237.754 222.018 237.754 222.018L238.295 222.802L239.191 222.858C239.191 222.858 238.37 220.431 239.602 219.442C240.852 218.453 238.314 211.604 231.782 213.881C231.782 213.881 226.762 215.262 226.948 218.117C227.135 220.973 227.863 224.22 228.982 225.638Z" fill="#1A1A1A"/>
<path d="M237.977 231.89C237.977 231.89 237.958 230.547 237.342 230.416C236.726 230.285 230.605 229.707 229.858 229.987V231.554C229.858 231.573 231.295 232.45 237.977 231.89Z" fill="#E2D2CA"/>
<path d="M237.622 220.972C237.51 220.487 236.297 219.125 235.831 220.599C235.364 222.055 236.54 224.033 237.193 223.865C237.828 223.697 237.902 222.185 237.622 220.972Z" fill="#C69076"/>
<path d="M237.976 231.89C237.976 231.89 241.335 233.103 245.217 234.746C245.217 234.746 249.696 236.425 250.181 241.352C250.443 243.984 253.223 257.888 253.746 259.082C254.268 260.258 260.464 279.182 260.688 279.574C260.912 279.966 255.631 282.149 255.276 281.981C254.922 281.813 249.285 264.718 248.707 263.449C248.707 263.449 245.46 253.203 245.366 251.673C245.366 251.673 245.273 256.021 245.105 257.253C244.937 258.466 247.998 282.187 247.904 282.858C247.811 283.512 233.963 284.351 228.439 283.736C222.896 283.12 218.436 281.851 218.436 281.851C218.436 281.851 222.803 263.132 222.654 261.06C222.355 256.544 220.843 248.015 220.843 248.015L216.327 256.525L222.112 271.399L220.787 275.916C220.787 275.916 210.037 259.679 209.683 258.186C209.328 256.712 210.205 254.808 210.784 253.595C211.344 252.382 215.076 243.069 215.954 241.763C216.831 240.456 218.305 235.212 221.87 233.757C224.856 232.543 229.857 231.536 229.857 231.536L237.976 231.89Z" fill="#00618C"/>
<path d="M240.834 270.519L266.145 264.029L270.674 281.692L245.364 288.182L240.834 270.519Z" fill="#D6D6D6"/>
<path d="M257.627 287.45C257.627 287.45 257.198 287.002 257.105 286.722C257.105 286.722 256.974 286.18 256.862 285.807C256.825 285.695 256.788 285.583 256.769 285.527C256.657 285.266 256.302 284.706 256.19 283.997C256.078 283.269 255.761 280.04 255.761 280.04L257.721 279.555L259.288 279.219C259.288 279.219 262.685 282.616 262.872 283.269C262.89 283.325 262.909 283.4 262.909 283.456C263.002 284.034 262.834 284.501 262.853 284.799C262.853 284.911 262.834 286.031 262.573 286.255C262.219 286.554 261.845 286.61 261.528 286.498C261.528 286.498 260.782 287.039 260.166 287.002C260.166 287.002 259.494 287.524 258.747 287.263C258.785 287.263 258.057 287.711 257.627 287.45Z" fill="#C69076"/>
<path d="M249.976 266.958C249.976 266.958 254.474 280.563 255.295 282C255.295 282 258.598 281.31 260.707 279.593L255.78 264.905L249.976 266.958Z" fill="#495678"/>
<path d="M358.439 303.412H291.589C284.871 303.412 279.402 297.944 279.402 291.225V180.443C279.402 173.724 284.871 168.256 291.589 168.256H358.439C365.158 168.256 370.626 173.724 370.626 180.443V291.207C370.645 297.944 365.177 303.412 358.439 303.412ZM291.608 177.587C290.04 177.587 288.752 178.875 288.752 180.443V291.207C288.752 292.774 290.04 294.062 291.608 294.062H358.439C360.007 294.062 361.295 292.774 361.295 291.207V180.443C361.295 178.875 360.007 177.587 358.439 177.587H291.608Z" fill="#00618C"/>
<path d="M365.978 180.443V291.207C365.978 294.716 363.571 297.683 360.305 298.504C359.708 298.653 359.092 298.728 358.457 298.728H291.607C287.445 298.728 284.086 295.35 284.086 291.207V180.443C284.086 176.281 287.464 172.922 291.607 172.922H358.439C362.6 172.922 365.978 176.3 365.978 180.443Z" fill="#F4F4F4"/>
<path d="M335.504 177.475H314.564C312.642 177.475 311.074 175.908 311.074 173.986V171.429H338.994V173.986C338.975 175.926 337.426 177.475 335.504 177.475Z" fill="#00618C"/>
<path d="M353.122 194.141C356.729 194.141 359.654 191.217 359.654 187.609C359.654 184.002 356.729 181.077 353.122 181.077C349.514 181.077 346.59 184.002 346.59 187.609C346.59 191.217 349.514 194.141 353.122 194.141Z" fill="#BBBBBB"/>
<path d="M308.235 187.609H292.67C291.96 187.609 291.363 187.03 291.363 186.302C291.363 185.593 291.942 184.996 292.67 184.996H308.235C308.944 184.996 309.541 185.575 309.541 186.302C309.541 187.03 308.944 187.609 308.235 187.609Z" fill="#BBBBBB"/>
<path d="M350.527 205.488H334.963C334.253 205.488 333.656 204.909 333.656 204.181C333.656 203.472 334.235 202.875 334.963 202.875H350.527C351.237 202.875 351.834 203.454 351.834 204.181C351.815 204.909 351.237 205.488 350.527 205.488Z" fill="#BBBBBB"/>
<path d="M315.012 192.163H292.654C291.945 192.163 291.348 191.584 291.348 190.856C291.348 190.147 291.926 189.55 292.654 189.55H315.012C315.721 189.55 316.318 190.128 316.318 190.856C316.318 191.565 315.74 192.163 315.012 192.163Z" fill="#E6E6E6"/>
<path d="M357.301 210.713H334.943C334.234 210.713 333.637 210.135 333.637 209.407C333.637 208.698 334.215 208.101 334.943 208.101H357.301C358.01 208.101 358.608 208.679 358.608 209.407C358.608 210.116 358.029 210.713 357.301 210.713Z" fill="#E6E6E6"/>
<path d="M352.15 235.834H334.775C334.141 235.834 333.637 235.33 333.637 234.695V234.378C333.637 233.744 334.141 233.24 334.775 233.24H352.15C352.785 233.24 353.289 233.744 353.289 234.378V234.695C353.289 235.33 352.785 235.834 352.15 235.834Z" fill="#E6E6E6"/>
<path d="M343.752 231.803H334.775C334.141 231.803 333.637 231.299 333.637 230.664V230.347C333.637 229.712 334.141 229.208 334.775 229.208H343.752C344.387 229.208 344.89 229.712 344.89 230.347V230.664C344.89 231.28 344.387 231.803 343.752 231.803Z" fill="#E6E6E6"/>
<path d="M322.216 246.509L319.342 244.755L316.617 246.509V240.145H322.216V246.509Z" fill="white" stroke="#B3B3B3" stroke-miterlimit="10"/>
<path d="M322.18 242.142H296.238C294.111 242.142 292.375 240.406 292.375 238.279V199.908C292.375 197.781 294.111 196.045 296.238 196.045H322.18C324.307 196.045 326.043 197.781 326.043 199.908V238.279C326.024 240.425 324.307 242.142 322.18 242.142Z" fill="#D9E021"/>
<path d="M326.805 298.746H326.637H293.156V261.178C293.156 259.05 294.892 257.314 297.019 257.314H322.961C324.808 257.314 326.376 258.621 326.731 260.375C326.787 260.636 326.805 260.898 326.805 261.178V298.746Z" fill="white"/>
<path d="M326.637 298.746V261.178C326.637 260.898 326.655 260.637 326.73 260.376C327.103 258.621 328.652 257.315 330.5 257.315H356.441C358.569 257.315 360.304 259.051 360.304 261.178V298.522C359.707 298.672 359.091 298.746 358.457 298.746H326.823" fill="white"/>
<path d="M353.254 218.608H336.551C332.837 218.608 329.832 215.604 329.832 211.89V206.981C329.832 203.267 332.837 200.263 336.551 200.263H353.254C356.968 200.263 359.973 203.267 359.973 206.981V211.89C359.973 215.604 356.949 218.608 353.254 218.608Z" stroke="#E6E6E6" stroke-width="3" stroke-miterlimit="10"/>
<path d="M322.661 264.313H296.738V265.321H322.661V264.313Z" fill="#BBBBBB"/>
<path d="M322.661 267.673H296.738V268.681H322.661V267.673Z" fill="#BBBBBB"/>
<path d="M322.661 271.032H296.738V272.04H322.661V271.032Z" fill="#BBBBBB"/>
<path d="M322.661 274.392H296.738V275.399H322.661V274.392Z" fill="#E6E6E6"/>
<path d="M322.661 277.751H296.738V278.759H322.661V277.751Z" fill="#BBBBBB"/>
<path d="M322.661 281.11H296.738V282.118H322.661V281.11Z" fill="#E6E6E6"/>
<path d="M322.661 284.469H296.738V285.477H322.661V284.469Z" fill="#E6E6E6"/>
<path d="M322.661 287.829H296.738V288.836H322.661V287.829Z" fill="#E6E6E6"/>
<path d="M322.661 291.188H296.738V292.196H322.661V291.188Z" fill="#E6E6E6"/>
<path d="M356.442 290.684H330.52V291.692H356.442V290.684Z" fill="#BBBBBB"/>
<path d="M356.442 287.325H330.52V288.333H356.442V287.325Z" fill="#BBBBBB"/>
<path d="M356.442 283.965H330.52V284.973H356.442V283.965Z" fill="#BBBBBB"/>
<path d="M356.442 280.606H330.52V281.614H356.442V280.606Z" fill="#E6E6E6"/>
<path d="M356.442 277.247H330.52V278.255H356.442V277.247Z" fill="#BBBBBB"/>
<path d="M356.442 273.888H330.52V274.896H356.442V273.888Z" fill="#E6E6E6"/>
<path d="M356.442 270.528H330.52V271.536H356.442V270.528Z" fill="#E6E6E6"/>
<path d="M356.442 267.169H330.52V268.177H356.442V267.169Z" fill="#E6E6E6"/>
<path d="M356.442 263.81H330.52V264.817H356.442V263.81Z" fill="#E6E6E6"/>
<path d="M353.046 220.747C353.046 220.747 352.673 221.213 352.411 221.325C352.411 221.325 351.907 221.512 351.571 221.661C351.459 221.717 351.366 221.755 351.31 221.792C351.068 221.941 350.582 222.333 349.91 222.539C349.239 222.725 346.178 223.434 346.178 223.434L345.469 221.624L344.965 220.15C344.965 220.15 347.802 216.473 348.399 216.231C348.455 216.212 348.511 216.175 348.585 216.175C349.127 216.007 349.593 216.119 349.892 216.063C350.004 216.044 351.086 215.913 351.31 216.156C351.627 216.473 351.739 216.809 351.683 217.126C351.683 217.126 352.299 217.761 352.337 218.358C352.337 218.358 352.915 218.937 352.766 219.683C352.728 219.664 353.251 220.299 353.046 220.747Z" fill="#9C7248"/>
<path d="M305.103 213.935C305.103 213.935 310.366 211.975 312.792 215.969C315.219 219.982 314.995 228.007 312.326 228.977C309.676 229.966 305.682 229.444 304.32 226.943C302.957 224.442 301.725 220.803 301.8 218.395C301.875 215.969 303.722 214.625 305.103 213.935Z" fill="#9C7248"/>
<path d="M311.449 228.753C311.449 228.753 311.244 230.134 311.58 230.806C311.934 231.478 304.955 231.496 304.955 231.496C304.955 231.496 304.395 227.801 303.312 224.685C302.248 221.549 311.449 228.753 311.449 228.753Z" fill="#9C7248"/>
<path d="M303.328 224.684C303.328 224.684 303.813 225.487 305.773 225.17C307.732 224.852 310.14 222.239 310.961 221.96C311.782 221.68 311.782 221.194 311.782 221.194L312.305 221.941L313.182 221.997C313.182 221.997 312.379 219.664 313.593 218.712C314.787 217.76 312.342 211.154 306.053 213.337C306.053 213.337 301.219 214.662 301.387 217.424C301.536 220.168 302.246 223.303 303.328 224.684Z" fill="black"/>
<path d="M311.651 220.187C311.539 219.72 310.363 218.414 309.916 219.814C309.468 221.232 310.587 223.117 311.222 222.968C311.856 222.8 311.931 221.363 311.651 220.187Z" fill="#9C7248"/>
<path d="M314.301 328.132C314.301 328.132 313.667 330.651 313.573 331.043C313.48 331.417 309.523 330.371 309.523 330.371V327.273C309.523 327.292 313.835 327.721 314.301 328.132Z" fill="#666FB3"/>
<path d="M319.193 265.966C319.193 265.966 322.086 276.679 322.832 280.505C323.486 283.845 321.097 301.687 321.283 303.796C321.47 305.905 316.506 326.341 315.61 330.036L307.678 328.767C307.678 328.767 312.885 310.067 311.093 303.236C308.966 295.118 313.146 286.439 307.641 281.177C303.068 276.809 299.224 275.242 297.656 264.492C297.656 264.511 317.066 262.551 319.193 265.966Z" fill="#12161E"/>
<path d="M316.094 333.452C313.948 332.238 313.649 330.727 313.649 330.727C310.607 330.708 309.525 330.111 309.525 330.111C309.525 330.111 307.603 335.28 308.069 336.158C308.536 337.053 311.055 336.867 316.169 337.557C316.822 337.651 317.848 337.707 318.819 337.744C319.976 337.8 320.928 336.811 320.405 335.766L316.094 333.452Z" fill="#12161E"/>
<path d="M294.668 330.987C294.668 330.987 294.034 333.507 293.94 333.899C293.847 334.272 289.891 333.227 289.891 333.227V330.129C289.891 330.148 294.202 330.577 294.668 330.987Z" fill="#666FB3"/>
<path d="M297.655 264.511C297.655 264.511 296.218 270.464 295.789 276.436C295.397 281.942 294.669 288.007 294.109 293.774C293.475 300.213 291.646 310.589 291.552 314.042C291.459 317.476 288.566 332.518 288.566 332.518L295.976 333.377C295.976 333.377 300.791 306.819 301.929 304.095C303.067 301.388 308.704 282.016 308.89 279.852C309.058 277.649 297.655 264.511 297.655 264.511Z" fill="#12161E"/>
<path d="M294.016 333.582C294.016 333.582 295.118 335.261 296.293 336.082C297.469 336.904 301.948 337.93 302.601 338.714C303.068 339.274 303.74 341.401 296.536 340.431C291.422 339.74 288.903 339.908 288.436 339.031C287.97 338.135 289.892 332.984 289.892 332.984C289.892 332.984 290.993 333.544 294.016 333.582Z" fill="#12161E"/>
<path d="M320.239 244.56C320.948 244.112 321.862 243.496 325.035 241.91C330.932 238.961 338.211 233.605 339.592 232.84C341.72 231.645 348.438 223.434 348.438 223.434C348.084 222.202 344.911 219.72 344.911 219.72C344.911 219.72 334.721 229.368 332.5 230.563C330.578 231.589 321.134 232.616 318.522 232.877C318.092 232.914 317.85 232.952 317.85 232.952C315.106 236.666 318.727 245.549 320.239 244.56Z" fill="#B3B3B3"/>
<path d="M291.573 248.871C291.629 249.562 292.413 250.308 292.954 250.681C293.29 250.924 293.719 251.055 294.148 251.073L294.465 251.092L299.934 251.279C299.934 251.279 304.002 238.14 296.369 233.12C296.145 233.138 291.05 242.544 291.573 248.871Z" fill="#B3B3B3"/>
<path d="M320.687 279.329C321.322 279.236 319.12 260.442 319.288 259.266C319.4 258.483 319.381 252.361 319.344 248.554L320.034 244.691C320.426 244.411 320.93 244.094 321.546 243.739C322.498 243.179 323.692 242.563 325.036 241.891C324.887 240.977 324.775 240.268 324.737 239.839C324.401 236.461 322.124 234.65 320.837 233.904C320.314 233.605 319.941 233.456 319.941 233.456C319.456 233.251 318.97 233.045 318.504 232.859C315.406 231.59 311.449 230.376 311.449 230.376H305.104C305.104 230.376 300.289 231.347 297.396 232.523C297.023 232.672 296.687 232.859 296.351 233.101L297.21 251.167C297.21 251.167 297.21 251.167 297.21 251.185V251.204C297.602 253.742 298.012 256.747 298.143 258.837C298.199 259.696 297.21 264.305 296.706 268.542L294.914 278.657C294.951 278.676 295.978 282.875 320.687 279.329Z" fill="#B3B3B3"/>
<defs>
<linearGradient id="paint0_linear" x1="171.102" y1="251.844" x2="543.732" y2="251.844" gradientUnits="userSpaceOnUse">
<stop stop-color="#6B9E34"/>
<stop offset="0.1351" stop-color="#61933C"/>
<stop offset="1" stop-color="#1F4A6E"/>
</linearGradient>
<linearGradient id="paint1_linear" x1="436.809" y1="282.956" x2="492.138" y2="282.956" gradientUnits="userSpaceOnUse">
<stop stop-color="#FF9F55"/>
<stop offset="1" stop-color="#FFD255"/>
</linearGradient>
<linearGradient id="paint2_linear" x1="410.814" y1="329.033" x2="465.607" y2="329.033" gradientUnits="userSpaceOnUse">
<stop stop-color="#FF9F55"/>
<stop offset="1" stop-color="#FFD255"/>
</linearGradient>
<linearGradient id="paint3_linear" x1="532.404" y1="308.191" x2="427.896" y2="308.191" gradientUnits="userSpaceOnUse">
<stop stop-color="#609FF0"/>
<stop offset="1" stop-color="#5A3F9E"/>
</linearGradient>
<linearGradient id="paint4_linear" x1="121.693" y1="343.159" x2="121.693" y2="315.265" gradientUnits="userSpaceOnUse">
<stop stop-color="#FF9F55"/>
<stop offset="1" stop-color="#FFD255"/>
</linearGradient>
<linearGradient id="paint5_linear" x1="120.708" y1="280.265" x2="120.708" y2="318.879" gradientUnits="userSpaceOnUse">
<stop stop-color="#40D5E6"/>
<stop offset="1" stop-color="#5577FF"/>
</linearGradient>
<linearGradient id="paint6_linear" x1="147.283" y1="282.117" x2="147.283" y2="253.248" gradientUnits="userSpaceOnUse">
<stop stop-color="#FF9F55"/>
<stop offset="1" stop-color="#FFD255"/>
</linearGradient>
<linearGradient id="paint7_linear" x1="114.241" y1="204.499" x2="114.241" y2="236.931" gradientUnits="userSpaceOnUse">
<stop stop-color="#40D5E6"/>
<stop offset="1" stop-color="#5577FF"/>
</linearGradient>
<linearGradient id="paint8_linear" x1="138.723" y1="188.507" x2="138.723" y2="214.448" gradientUnits="userSpaceOnUse">
<stop stop-color="#40D5E6"/>
<stop offset="1" stop-color="#5577FF"/>
</linearGradient>
</defs>
</svg>
