<svg width="24" height="24" viewBox="0 0 24 24" fill="none" xmlns="http://www.w3.org/2000/svg">
<path d="M21.9295 20.243L20.2114 17.381C19.4194 16.06 19.0004 14.548 19.0004 13.007V10.5C19.0004 6.641 15.8594 3.5 12.0004 3.5C8.14145 3.5 5.00045 6.641 5.00045 10.5V13.007C5.00045 14.548 4.58144 16.06 3.78944 17.381L2.07142 20.243C1.97842 20.397 1.97641 20.59 2.06444 20.746C2.15345 20.903 2.32042 21 2.50042 21H21.5004C21.6804 21 21.8474 20.903 21.9364 20.746C22.0244 20.59 22.0225 20.397 21.9295 20.243ZM3.38345 20L4.64645 17.895C5.53244 16.419 6.00044 14.729 6.00044 13.007V10.5C6.00044 7.19098 8.69144 4.49998 12.0004 4.49998C15.3094 4.49998 18.0004 7.19098 18.0004 10.5V13.007C18.0004 14.729 18.4684 16.419 19.3534 17.895L20.6174 20H3.38345Z" fill="#696969"/>
<path d="M12 0C10.897 0 10 0.897 10 2.00002V4.00003C10 4.27598 10.224 4.5 10.5 4.5C10.776 4.5 11 4.27598 11 3.99998V2.00002C11 1.44802 11.448 1.00003 12 1.00003C12.552 1.00003 13 1.44802 13 2.00002V4.00003C13 4.27598 13.224 4.5 13.5 4.5C13.776 4.5 14 4.27598 14 3.99998V2.00002C14 0.897 13.103 0 12 0Z" fill="#696969"/>
<path d="M14.164 20.2469C14.023 20.0089 13.718 19.9309 13.479 20.0679C13.24 20.2079 13.16 20.5149 13.3 20.7529C13.43 20.9739 13.501 21.2389 13.501 21.4999C13.501 22.3269 12.828 22.9999 12.001 22.9999C11.174 22.9999 10.501 22.3269 10.501 21.4999C10.501 21.2389 10.572 20.9739 10.702 20.7529C10.841 20.5138 10.761 20.2078 10.523 20.0679C10.282 19.9309 9.97798 20.0089 9.83801 20.2469C9.617 20.6249 9.5 21.0579 9.5 21.4999C9.50005 22.8789 10.621 23.9999 12 23.9999C13.379 23.9999 14.5 22.8789 14.502 21.4999C14.502 21.0579 14.385 20.6249 14.164 20.2469Z" fill="#696969"/>
</svg>
