<svg width="449" height="377" viewBox="0 0 449 377" fill="none" xmlns="http://www.w3.org/2000/svg">
<path d="M123.046 125.873C143.738 175.041 215.236 210.533 299.16 211.957C343.528 212.709 390.215 203.817 424.207 172.702C484.971 117.079 420.473 78.6423 375.506 60.3778C353.782 51.5361 334.207 40.9047 317.349 28.7915C286.976 7.01167 228.544 -20.0528 158.955 22.353C108.517 53.0888 109.262 93.1224 123.046 125.873Z" fill="#FFF6E7" fill-opacity="0.5"/>
<path d="M220.842 117L164.953 112.464L171.112 37.0371L227.001 41.5735L220.842 117Z" fill="url(#paint0_linear)"/>
<path d="M223.385 104.317L168.319 114.863L154 40.5462L209.067 30L223.385 104.317Z" fill="url(#paint1_linear)"/>
<path d="M216.73 35.6133H160.656V111.29H216.73V35.6133Z" fill="url(#paint2_linear)"/>
<path d="M215.973 36.6328H161.41V110.27H215.973V36.6328Z" fill="white"/>
<path d="M179.798 49.338C179.857 54.2654 183.913 58.212 188.855 58.151C193.798 58.09 197.759 54.0485 197.697 49.12C197.678 47.2883 197.09 45.5068 196.012 44.0174C194.935 42.5279 193.421 41.4025 191.676 40.7939L191.703 43.0921C191.715 43.8912 191.407 44.6625 190.846 45.2371C190.285 45.8116 189.516 46.1426 188.709 46.1574C187.903 46.162 187.128 45.8505 186.553 45.2912C185.979 44.7318 185.651 43.9701 185.642 43.1723L185.615 40.8742C183.885 41.524 182.399 42.6846 181.359 44.1987C180.318 45.7128 179.773 47.507 179.798 49.338Z" fill="url(#paint3_linear)"/>
<path d="M197.701 48.3986C197.701 43.4701 193.695 39.4727 188.751 39.4727C183.807 39.4727 179.801 43.4679 179.801 48.3986C179.798 50.2306 180.364 52.0192 181.423 53.5216C182.482 55.0241 183.982 56.1676 185.72 56.797V54.4988C185.72 53.701 186.038 52.9355 186.606 52.3693C187.174 51.8032 187.945 51.4826 188.751 51.4775C189.557 51.4826 190.328 51.8032 190.896 52.3693C191.464 52.9355 191.782 53.701 191.782 54.4988V56.7981C193.52 56.1687 195.02 55.025 196.079 53.5223C197.139 52.0196 197.705 50.2308 197.701 48.3986Z" fill="#3498DB"/>
<path d="M188.757 50.6018C190.657 50.6018 192.197 49.066 192.197 47.1715C192.197 45.277 190.657 43.7412 188.757 43.7412C186.857 43.7412 185.316 45.277 185.316 47.1715C185.316 49.066 186.857 50.6018 188.757 50.6018Z" fill="white" stroke="white" stroke-miterlimit="10"/>
<path d="M188.749 51.4775C187.943 51.4826 187.172 51.8032 186.604 52.3694C186.037 52.9355 185.718 53.701 185.719 54.4988V56.7981C187.677 57.4981 189.821 57.4981 191.78 56.7981V54.4988C191.781 53.701 191.462 52.9355 190.894 52.3694C190.326 51.8032 189.555 51.4826 188.749 51.4775Z" fill="white" stroke="white" stroke-miterlimit="10"/>
<path d="M185.287 46.9817C185.01 46.4483 184.884 45.8513 184.92 45.253C184.959 44.6531 185.233 44.0919 185.683 43.6881C186.184 43.2622 186.863 43.1119 187.519 43.0599C188.176 43.0079 188.841 43.0396 189.487 42.9119C190.022 42.8033 190.53 42.5903 190.98 42.2854C191.431 41.9804 191.816 41.5896 192.113 41.1357C192.154 41.6385 192.195 42.1526 192.098 42.6452C192.001 43.1379 191.745 43.6282 191.314 43.8881C191.836 43.6474 191.779 44.2124 191.666 44.5502C191.925 44.8621 192.554 44.914 192.586 45.3174C192.618 45.7208 192.613 46.1377 192.455 46.5094C192.297 46.8811 192.466 47.5376 192.062 47.5658" fill="white"/>
<path d="M185.287 46.9817C185.01 46.4483 184.884 45.8513 184.92 45.253C184.959 44.6531 185.233 44.0919 185.683 43.6881C186.184 43.2622 186.863 43.1119 187.519 43.0599C188.176 43.0079 188.841 43.0396 189.487 42.9119C190.022 42.8033 190.53 42.5903 190.98 42.2854C191.431 41.9804 191.816 41.5896 192.113 41.1357C192.154 41.6385 192.195 42.1526 192.098 42.6452C192.001 43.1379 191.745 43.6282 191.314 43.8881C191.836 43.6474 191.779 44.2124 191.666 44.5502C191.925 44.8621 192.554 44.914 192.586 45.3174C192.618 45.7208 192.613 46.1377 192.455 46.5094C192.297 46.8811 192.466 47.5376 192.062 47.5658" stroke="white" stroke-miterlimit="10"/>
<path d="M191.504 43.8135C191.504 43.8135 193.901 44.0225 192.196 47.5748L191.504 43.8135Z" fill="white"/>
<path d="M173.935 94.8545H166.523V102.244H173.935V94.8545Z" fill="url(#paint4_linear)"/>
<path d="M173.293 95.4922H167.16V101.607H173.293V95.4922Z" fill="#F14336"/>
<path d="M197.702 64.2783H179.812V65.5528H197.702V64.2783Z" fill="#69F0AE"/>
<path d="M209.969 66.0625H179.812V67.337H209.969V66.0625Z" fill="#E0E0E0"/>
<path d="M209.969 67.8447H179.812V69.1192H209.969V67.8447Z" fill="#E0E0E0"/>
<path d="M197.702 80.2031H179.812V81.4776H197.702V80.2031Z" fill="#69F0AE"/>
<path d="M209.969 81.9863H179.812V83.2608H209.969V81.9863Z" fill="#E0E0E0"/>
<path d="M209.969 83.7705H179.812V85.045H209.969V83.7705Z" fill="#E0E0E0"/>
<path d="M197.702 96.1279H179.812V97.4024H197.702V96.1279Z" fill="#3498DB"/>
<path d="M209.969 97.9121H179.812V99.1866H209.969V97.9121Z" fill="#E0E0E0"/>
<path d="M209.969 99.6963H179.812V100.971H209.969V99.6963Z" fill="#E0E0E0"/>
<path opacity="0.1" d="M79.5586 376.353C123.433 376.353 159 368.755 159 359.384C159 350.012 123.433 342.414 79.5586 342.414C35.6843 342.414 0.117188 350.012 0.117188 359.384C0.117188 368.755 35.6843 376.353 79.5586 376.353Z" fill="#C4C4C4"/>
<path d="M158.82 106.378C158.543 105.819 158.325 105.233 158.171 104.628C158.107 103.934 158.379 103.02 157.763 102.683C157.419 102.495 156.94 102.638 156.635 102.392C156.447 102.173 156.332 101.901 156.305 101.614C156.154 101.07 155.834 100.589 155.391 100.239C154.948 99.8897 154.405 99.6901 153.841 99.6694C154.49 97.9128 156.875 97.485 157.925 95.9358C158.45 95.1645 158.282 93.7449 157.355 93.7385C157.13 93.7467 156.909 93.8019 156.706 93.9005L153.252 95.3265C152.586 95.5874 151.936 95.8882 151.307 96.2275C149.408 97.31 147.988 99.0665 146.711 100.849C145.504 102.424 144.54 104.172 143.853 106.035C143.466 107.182 143.261 108.382 143.244 109.593C143.244 109.716 143.244 109.839 143.244 109.956C142.68 110.053 142.22 110.3 141.63 110.416L140.288 113.962C140.11 114.554 139.813 115.104 139.413 115.576C139.116 115.847 138.8 116.097 138.467 116.321C137.786 116.903 137.258 117.642 136.929 118.475C136.6 119.308 136.48 120.209 136.58 121.098C135.367 121.575 134.38 122.495 133.819 123.672C133.258 124.849 133.165 126.195 133.56 127.438C132.553 127.655 131.619 128.127 130.847 128.808C130.074 129.489 129.488 130.356 129.146 131.327C129.053 131.773 128.855 132.191 128.569 132.545C128.13 132.883 127.585 133.05 127.033 133.018C125.516 133.116 124.194 134.315 122.826 133.667C121.268 132.937 119.527 132.693 117.828 132.967C117.478 133.05 117.118 133.083 116.759 133.064C116.453 133.01 116.157 132.907 115.884 132.759C115.268 132.395 114.599 132.13 113.9 131.975C113.55 131.9 113.186 131.929 112.852 132.058C112.519 132.187 112.229 132.41 112.021 132.701C111.541 132.176 111.256 131.495 110.822 130.931C110.627 130.631 110.353 130.391 110.031 130.237C109.708 130.082 109.349 130.02 108.994 130.056C109.447 129.648 108.994 128.831 108.391 128.689C107.783 128.636 107.172 128.658 106.569 128.753C104.988 128.753 103.769 127.301 102.233 126.919C100.82 126.575 98.9338 126.99 98.2079 125.72C97.981 125.312 97.9162 124.78 97.5597 124.475C97.4786 124.132 97.3213 123.81 97.0995 123.535C96.5161 122.887 95.5374 122.784 94.6623 122.81C93.6999 122.837 92.7461 123 91.8298 123.296C91.8298 123.185 91.7714 123.062 91.7325 122.933C91.1774 121.317 90.0652 119.952 88.5953 119.082C87.4544 118.41 86.2171 117.916 84.9266 117.618C84.9266 117.501 84.9266 117.391 84.9266 117.274C84.9059 115.638 85.16 114.01 85.6785 112.458C85.7303 112.289 85.7951 112.121 85.8535 111.952C88.797 111.183 91.4846 109.649 93.6434 107.506C95.8023 105.362 97.3556 102.686 98.1455 99.7476C98.9355 96.8096 98.934 93.715 98.1412 90.7778C97.3484 87.8406 95.7926 85.1655 93.6317 83.024C93.6275 82.6741 93.5817 82.326 93.4955 81.9869C93.3065 81.2433 92.952 80.552 92.4585 79.9646C91.6677 78.2015 90.4361 77.4237 88.8611 76.6848C88.4073 76.4709 87.9277 76.2634 87.4221 76.0366C84.9136 74.9087 82.4894 73.2494 79.6439 73.2559C77.0511 73.2559 74.5492 74.6884 71.9824 74.6365H71.7879H71.5999H71.3666C70.6471 74.5522 69.785 74.3837 69.3118 74.9347C69.1592 75.1525 69.037 75.3902 68.9488 75.6412C68.9121 75.7245 68.8687 75.8046 68.8192 75.881C68.7239 76.0405 68.6131 76.1903 68.4886 76.3283C67.659 77.2357 66.2654 77.6246 65.1181 78.2339C62.5254 79.5627 60.8271 82.2721 60.153 85.1111C59.4789 87.9502 59.7122 90.9448 60.2178 93.8227C60.4771 95.2617 61.0345 96.8951 62.0586 97.8026C62.0586 97.8026 53.3924 103.967 54.974 104.842C55.8361 105.322 59.427 103.046 62.5189 100.875C62.5513 101.005 62.5772 101.141 62.6161 101.27C62.9847 102.654 63.4571 104.009 64.0291 105.322C64.6773 106.871 65.6107 108.562 67.2247 109.01C67.5809 109.109 67.9507 109.15 68.3201 109.133H68.6053C68.6855 111.505 68.4346 113.876 67.8599 116.179C66.9197 116.125 65.988 116.382 65.2088 116.911C64.9132 117.202 64.5393 117.4 64.1328 117.481C63.7124 117.43 63.3218 117.239 63.0245 116.937C61.8619 116.099 60.448 115.683 59.0169 115.759C57.5858 115.834 56.2235 116.396 55.1555 117.352C52.0183 120.314 52.3748 126.096 48.6737 128.339C47.6625 128.954 46.3661 129.285 45.7698 130.315C45.6268 130.645 45.46 130.963 45.2707 131.268C45.0256 131.544 44.7253 131.765 44.3892 131.917C43.321 132.395 42.3045 132.981 41.3557 133.667C40.8815 134.014 40.4826 134.454 40.1829 134.96C39.8833 135.465 39.6891 136.027 39.6121 136.609C39.5982 137.462 39.78 138.307 40.1435 139.079C40.6956 140.435 41.3727 141.737 42.1659 142.968C41.7353 143.525 41.4541 144.184 41.3492 144.88C41.0899 146.702 41.9585 148.497 42.0557 150.338C42.14 151.945 41.6279 153.514 41.3427 155.096C40.2019 161.279 42.3863 167.541 44.5836 173.413C45.0077 174.368 45.2706 175.386 45.3615 176.427C45.4198 178.372 44.3244 180.102 44.0197 181.995C43.3715 185.975 46.3078 189.722 46.3726 193.747C46.3726 195.607 45.8152 197.493 46.2819 199.289C46.5865 200.488 47.3319 201.518 47.8634 202.64C48.7968 204.623 49.0496 206.872 49.9441 208.875C51.0135 211.055 52.5974 212.942 54.5592 214.372C55.6805 217.93 54.086 222.228 54.5592 226.039C55.1685 225.797 55.7842 225.581 56.4065 225.391C56.0201 231.056 57.4506 236.696 60.49 241.492C61.4947 243.061 62.6744 244.525 63.4328 246.23C63.9253 247.445 64.3092 248.701 64.5801 249.983C65.6647 254.507 66.745 259.027 67.821 263.543C68.7025 267.205 69.5905 270.932 69.3248 274.692C69.1433 277.285 68.4821 280.247 70.0896 282.321C70.4766 282.715 70.8022 283.165 71.0554 283.656C71.2112 284.234 71.2112 284.842 71.0554 285.419C70.2695 289.791 69.7328 294.203 69.4479 298.636C69.085 299.122 68.722 299.615 68.3914 300.101C65.7274 303.99 64.444 308.663 63.4069 313.272C61.4952 322.327 60.3762 331.531 60.0623 340.781C58.7285 341.991 57.5797 343.391 56.6528 344.936C55.2592 347.528 55.0777 350.575 54.9286 353.518C54.869 353.994 54.9224 354.478 55.0842 354.931C55.4394 355.439 55.9482 355.821 56.5361 356.02L57.3399 356.402C57.1649 357.05 57.0093 357.698 56.8732 358.379C55.849 357.225 54.0276 355.397 53.7165 356.733C52.6921 361.2 52.136 365.762 52.0572 370.344C52.0209 370.52 52.0264 370.702 52.0731 370.875C52.1199 371.049 52.2066 371.208 52.3264 371.342C52.4462 371.476 52.5957 371.579 52.7628 371.645C52.9299 371.71 53.1101 371.735 53.2887 371.719C57.7412 372.507 62.2557 372.893 66.7774 372.872C70.4397 372.872 74.0954 372.574 77.7447 372.295L81.4847 372.01C85.3309 371.804 89.158 371.33 92.9381 370.591C94.591 370.228 96.2957 369.716 97.5402 368.555C98.7848 367.395 99.394 365.412 98.5384 363.94C97.4949 362.164 95.0577 362.035 93.0224 361.749C91.0051 361.466 89.0502 360.844 87.2406 359.909C86.8322 359.701 86.4368 359.468 86.0414 359.26C86.1451 359.26 86.2554 359.209 86.3526 359.17C88.1027 358.58 89.4963 357.225 91.1427 356.415C93.0872 355.475 95.2327 355.261 97.3458 354.995C99.4588 354.73 101.637 354.347 103.393 353.142C105.04 352.014 106.206 349.959 105.824 348.027C105.798 347.891 105.763 347.757 105.72 347.626C105.072 345.532 102.803 344.385 100.69 343.866C98.5773 343.348 96.2828 343.036 94.5716 341.675L94.3188 341.474C94.1762 341.351 94.0271 341.234 93.8715 341.111C94.2488 340.474 94.4229 339.737 94.3706 338.998C94.2799 337.838 93.6058 336.814 93.1455 335.757C92.2446 333.651 92.1733 331.298 91.927 329.023C91.3177 323.299 89.5611 317.777 88.2388 312.17C88.0897 311.522 87.9471 310.874 87.8045 310.225C89.0952 307.546 90.6754 305.016 92.5168 302.681C94.6244 300.047 96.1687 297.009 97.0541 293.755C97.3263 292.757 97.5273 291.746 97.7347 290.728C100.077 279.022 102.289 267.296 104.372 255.551C104.717 253.878 104.914 252.177 104.962 250.469C105.507 248.92 105.802 247.295 105.837 245.653C106.446 243.274 107.062 240.779 106.563 239.223C106.213 238.121 106.038 234.355 105.843 230.745C105.899 228.809 105.782 226.872 105.493 224.957C105.435 224.626 105.37 224.309 105.299 223.978C105.26 223.784 105.221 223.622 105.182 223.492C104.909 222.406 104.527 221.351 104.042 220.342C103.794 219.739 103.508 219.152 103.186 218.585C102.993 218.25 102.777 217.93 102.538 217.626C103.887 217.683 105.233 217.809 106.569 218.002C106.894 218.047 107.295 218.073 107.496 217.807C107.58 217.655 107.62 217.482 107.613 217.308C107.676 215.779 107.312 214.262 106.563 212.926C106.044 212.006 105.325 211.112 105.344 210.055C105.379 209.563 105.5 209.08 105.701 208.629L107.496 203.807C109.02 199.729 108.294 195.004 109.084 190.726C109.701 187.383 110.095 184.003 110.264 180.608C110.413 177.711 110.322 174.567 108.579 172.246C108.076 171.686 107.64 171.068 107.282 170.406C107.029 169.702 106.923 168.954 106.971 168.208C106.941 163.667 107.032 159.129 107.244 154.596C114.877 154.382 122.477 153.515 129.962 152.004C130.847 151.852 131.715 151.618 132.555 151.304C133.481 150.861 134.351 150.31 135.148 149.664C137.695 147.823 140.281 145.95 142.22 143.474C144.522 140.47 145.969 136.9 146.407 133.142C148.248 131.437 149.226 129.013 150.147 126.66C150.602 125.666 150.891 124.604 151.002 123.516C151.048 122.401 150.315 121.234 150.523 120.139C150.877 118.252 151.829 116.529 153.239 115.226C153.539 115.013 153.765 114.711 153.887 114.364C153.928 114.074 153.876 113.779 153.738 113.521L153.679 113.424C153.861 113.314 154.029 113.197 154.204 113.08C154.807 112.652 155.384 112.179 155.948 111.719C156.81 111.069 157.573 110.296 158.21 109.425C158.525 108.99 158.742 108.494 158.847 107.968C158.953 107.442 158.943 106.9 158.82 106.378ZM75.6511 354.82C75.4955 354.82 75.3399 354.82 75.1908 354.859C74.6228 354.94 74.0687 355.099 73.5445 355.332L73.4213 355.397C74.1343 353.855 74.8084 352.286 75.4177 350.691C75.489 350.504 75.5539 350.316 75.6252 350.121L75.5474 351.184C75.4127 352.395 75.4476 353.619 75.6511 354.82Z" fill="url(#paint5_linear)"/>
<path d="M84.9237 118.609C84.9886 121.124 85.8442 123.561 85.9738 126.076C78.5651 126.446 71.2471 122.835 63.9355 123.95C65.9903 122.621 67.0857 120.229 67.7339 117.877C68.5551 114.835 68.7991 111.667 68.4534 108.536C68.4336 108.364 68.4032 108.193 68.3627 108.024C68.0904 106.793 67.3839 105.049 67.5718 104.083C67.8246 102.787 69.0303 103.053 70.1192 103.124C73.4362 103.387 76.7377 103.82 80.0105 104.42C80.8661 104.569 89.1693 106.643 89.299 106.43C87.8397 108.764 86.6337 111.248 85.7016 113.838C85.1766 115.374 84.9137 116.986 84.9237 118.609Z" fill="#EE8E9E"/>
<path d="M158.204 110.831C157.568 111.7 156.805 112.469 155.941 113.113C155.378 113.573 154.801 114.046 154.198 114.467C153.123 115.3 151.841 115.822 150.49 115.978C148.727 116.094 144.974 115.057 143.879 113.547C143.41 112.788 143.184 111.904 143.231 111.013C143.249 109.808 143.454 108.614 143.84 107.474C144.526 105.611 145.49 103.863 146.698 102.288C147.995 100.512 149.395 98.7685 151.294 97.6925C151.923 97.3532 152.573 97.0524 153.239 96.7915L156.693 95.3785C156.895 95.2778 157.116 95.2204 157.342 95.21C158.268 95.21 158.437 96.636 157.912 97.4008C156.862 98.9435 154.496 99.3454 153.828 101.115C154.388 101.133 154.928 101.327 155.371 101.671C155.813 102.014 156.136 102.489 156.291 103.027C156.318 103.312 156.434 103.582 156.622 103.798C156.927 104.038 157.406 103.902 157.75 104.09C158.366 104.414 158.093 105.328 158.158 106.035C158.312 106.635 158.529 107.217 158.806 107.772C158.936 108.295 158.948 108.84 158.844 109.368C158.74 109.897 158.521 110.396 158.204 110.831Z" fill="#EE8E9E"/>
<path d="M56.0156 363.202C56.586 362.631 57.5194 362.728 58.3167 362.852C62.5945 363.526 66.9173 363.875 71.2479 363.895C71.7924 361.251 70.2173 358.71 69.7118 356.026C69.6388 355.339 69.464 354.666 69.1932 354.03C68.5839 352.863 67.2097 352.325 65.9199 352.085C63.5929 351.593 59.9501 350.73 58.6472 353.083C57.0851 355.877 56.586 360.051 56.0156 363.202Z" fill="#65617D"/>
<path d="M103.392 353.2C101.636 354.399 99.4577 354.768 97.3446 355.041C95.2316 355.313 93.0602 355.52 91.1416 356.46C89.4952 357.277 88.1016 358.612 86.3515 359.195C84.7277 359.643 83.0169 359.67 81.3799 359.273C79.4354 358.904 77.3223 358.191 76.2657 356.493C75.3194 354.989 75.4166 353.077 75.5463 351.307C75.7018 349.304 75.8509 347.288 75.9935 345.279C75.987 344.77 76.1168 344.269 76.3694 343.827C77.789 341.753 81.2438 344.689 83.0911 344.689C86.0209 344.689 89.1646 343.095 91.2712 341.156C91.4601 340.963 91.679 340.801 91.9194 340.677C92.7555 340.301 93.5917 340.994 94.3306 341.597L94.5834 341.798C96.2946 343.153 98.5892 343.432 100.702 343.983C102.815 344.534 105.077 345.635 105.732 347.723C105.776 347.852 105.81 347.984 105.836 348.118C106.205 350.03 105.019 352.072 103.392 353.2Z" fill="#3F3D56"/>
<path d="M103.392 353.2C101.636 354.399 99.4577 354.768 97.3446 355.041C95.2316 355.313 93.0602 355.52 91.1416 356.46C89.4952 357.277 88.1016 358.612 86.3515 359.195C84.7277 359.643 83.0169 359.67 81.3799 359.273C79.4354 358.904 77.3223 358.191 76.2657 356.493C75.3194 354.989 75.4166 353.077 75.5463 351.307C75.7018 349.304 75.8509 347.288 75.9935 345.279C75.987 344.77 76.1168 344.269 76.3694 343.827C77.789 341.753 81.2438 344.689 83.0911 344.689C86.0209 344.689 89.1646 343.095 91.2712 341.156C91.4601 340.963 91.679 340.801 91.9194 340.677C92.7555 340.301 93.5917 340.994 94.3306 341.597L94.5834 341.798C96.2946 343.153 98.5892 343.432 100.702 343.983C102.815 344.534 105.077 345.635 105.732 347.723C105.776 347.852 105.81 347.984 105.836 348.118C106.205 350.03 105.019 352.072 103.392 353.2Z" fill="#434175"/>
<path d="M103.392 353.874C101.636 355.073 99.4577 355.449 97.3446 355.721C95.2316 355.993 93.0602 356.194 91.1416 357.134C89.4952 357.951 88.1016 359.286 86.3515 359.87C84.7277 360.317 83.0169 360.344 81.3799 359.947C79.2889 359.509 77.453 358.269 76.2657 356.493C75.3194 354.989 75.4166 353.077 75.5463 351.307C75.7018 349.304 75.8509 347.288 75.9935 345.279C75.987 344.77 76.1168 344.269 76.3694 343.827C77.789 341.753 81.2438 344.689 83.0911 344.689C86.0209 344.689 89.1646 343.095 91.2712 341.156C91.4601 340.963 91.679 340.801 91.9194 340.677C92.7555 340.301 93.5917 340.994 94.3306 341.597C93.8455 343.103 93.154 344.534 92.2759 345.849C91.5656 346.963 90.6146 347.904 89.4929 348.601C88.3711 349.299 87.1072 349.736 85.7941 349.881C84.4977 349.978 83.143 349.719 81.9049 350.056C80.6669 350.393 79.4613 351.689 79.9085 352.921C80.3558 354.153 81.892 354.379 83.1494 354.451C84.9313 354.655 86.7356 354.528 88.471 354.075C89.5081 353.731 90.461 353.161 91.4657 352.74C95.7566 350.964 101.188 351.955 104.727 348.948C105.065 348.642 105.427 348.365 105.81 348.118C106.75 350.056 105.019 352.778 103.392 353.874Z" fill="#E8EAF2"/>
<path opacity="0.05" d="M103.392 353.874C101.636 355.073 99.4577 355.449 97.3446 355.721C95.2316 355.993 93.0602 356.194 91.1416 357.134C89.4952 357.951 88.1016 359.286 86.3515 359.87C84.7277 360.317 83.0169 360.344 81.3799 359.947C79.2889 359.509 77.453 358.269 76.2657 356.493C75.3194 354.989 75.4166 353.077 75.5463 351.307C75.7018 349.304 75.8509 347.288 75.9935 345.279C75.987 344.77 76.1168 344.269 76.3694 343.827C77.789 341.753 81.2438 344.689 83.0911 344.689C86.0209 344.689 89.1646 343.095 91.2712 341.156C91.4601 340.963 91.679 340.801 91.9194 340.677C92.7555 340.301 93.5917 340.994 94.3306 341.597C93.8455 343.103 93.154 344.534 92.2759 345.849C91.5656 346.963 90.6146 347.904 89.4929 348.601C88.3711 349.299 87.1072 349.736 85.7941 349.881C84.4977 349.978 83.143 349.719 81.9049 350.056C80.6669 350.393 79.4613 351.689 79.9085 352.921C80.3558 354.153 81.892 354.379 83.1494 354.451C84.9313 354.655 86.7356 354.528 88.471 354.075C89.5081 353.731 90.461 353.161 91.4657 352.74C95.7566 350.964 101.188 351.955 104.727 348.948C105.065 348.642 105.427 348.365 105.81 348.118C106.75 350.056 105.019 352.778 103.392 353.874Z" fill="black"/>
<path d="M56.82 222.539C55.4631 229.245 56.7596 236.215 60.4369 241.984C61.4416 243.54 62.6213 245.005 63.3796 246.697C63.8729 247.907 64.2569 249.158 64.5269 250.437L67.7679 263.919C68.6494 267.562 69.5374 271.269 69.2716 275.009C69.0901 277.602 68.429 280.538 70.0365 282.6C70.4233 282.992 70.7489 283.44 71.0023 283.928C71.1579 284.501 71.1579 285.106 71.0023 285.679C69.3559 295.473 68.1308 305.707 71.106 315.177C73.8089 323.766 73.9645 333.281 76.2591 341.98C76.4446 343.085 76.9364 344.115 77.6786 344.955C78.294 345.468 79.0302 345.816 79.8176 345.966C83.2011 346.776 86.7726 345.83 89.9228 344.372C92.1396 343.341 94.5249 341.539 94.3369 339.108C94.2462 337.948 93.572 336.93 93.1118 335.867C92.2109 333.774 92.1396 331.44 91.8932 329.172C91.2839 323.481 89.5274 317.984 88.2051 312.423C86.8828 306.861 85.9753 301.034 87.0967 295.421C89.3924 283.813 93.0632 272.519 98.0315 261.78C98.2492 261.21 98.5926 260.696 99.0362 260.276C99.534 259.992 100.009 259.669 100.456 259.31C100.799 258.777 101.02 258.175 101.104 257.547C101.597 255.771 103.048 254.455 104.04 252.9C106.523 248.959 105.738 243.91 105.648 239.256C105.557 234.718 106.205 230.181 105.466 225.696C104.727 221.21 102.199 216.66 97.8889 215.286C95.7564 214.592 93.4489 214.754 91.2191 214.975C79.4028 216.141 67.9169 218.287 56.82 222.539Z" fill="#696791"/>
<path opacity="0.1" d="M56.82 223.187C55.4631 229.893 56.7596 236.864 60.4369 242.633C61.4416 244.189 62.6213 245.653 63.3796 247.345C63.8729 248.555 64.2569 249.807 64.5269 251.085L67.7679 264.567C68.6494 268.21 69.5374 271.918 69.2716 275.658C69.0901 278.251 68.429 281.187 70.0365 283.248C70.4233 283.64 70.7489 284.088 71.0023 284.577C71.1579 285.15 71.1579 285.754 71.0023 286.327C69.3559 296.121 68.1308 306.356 71.106 315.826C73.8089 324.414 73.9645 333.93 76.2591 342.628C76.4446 343.733 76.9364 344.764 77.6786 345.603C78.294 346.117 79.0302 346.465 79.8176 346.615C83.2011 347.425 86.7726 346.478 89.9228 345.02C92.1396 343.989 94.5249 342.187 94.3369 339.757C94.2462 338.596 93.572 337.579 93.1118 336.516C92.2109 334.422 92.1396 332.089 91.8932 329.82C91.2839 324.129 89.5274 318.632 88.2051 313.071C86.8828 307.51 85.9753 301.682 87.0967 296.069C89.3924 284.461 93.0632 273.168 98.0315 262.428C98.2492 261.858 98.5926 261.344 99.0362 260.925C99.534 260.64 100.009 260.317 100.456 259.959C100.799 259.426 101.02 258.824 101.104 258.196C101.597 256.42 103.048 255.104 104.04 253.548C106.523 249.607 105.738 244.558 105.648 239.904C105.557 235.367 106.205 230.829 105.466 226.344C104.727 221.859 102.199 217.308 97.8889 215.934C95.7564 215.241 93.4489 215.403 91.2191 215.623C79.4028 216.79 67.9169 218.935 56.82 223.187Z" fill="black"/>
<path d="M104.969 250.923C104.934 252.681 104.736 254.432 104.379 256.153C102.292 267.821 100.071 279.488 97.7156 291.155C97.5081 292.167 97.3072 293.178 97.035 294.169C96.1476 297.409 94.6032 300.432 92.4977 303.05C82.6777 315.294 81.8286 333.073 76.5005 347.839C76.1375 348.837 75.781 349.842 75.3986 350.827C74.4349 353.328 73.3379 355.775 72.1123 358.158C71.9775 358.502 71.7538 358.804 71.4641 359.033C71.1344 359.202 70.7641 359.276 70.3946 359.247C65.5992 359.271 60.8624 358.193 56.5494 356.097C55.9346 355.867 55.4159 355.435 55.0781 354.872C54.9156 354.422 54.8622 353.94 54.9225 353.465C55.0716 350.542 55.2531 347.508 56.6466 344.935C57.5739 343.397 58.7227 342.003 60.0561 340.8C60.3668 331.597 61.486 322.44 63.4007 313.433C64.4378 308.844 65.7212 304.21 68.3852 300.334C70.3298 297.469 73.1689 294.643 72.8188 291.188C72.6698 289.671 72.0345 287.785 73.2661 286.897C73.8041 286.501 74.6014 286.45 74.9708 285.892C75.1157 285.629 75.1978 285.336 75.2106 285.037C75.4635 282.667 75.3145 280.272 74.7699 277.952C74.3221 276.435 73.9693 274.891 73.7133 273.33C73.5938 272.547 73.635 271.748 73.8345 270.981C74.034 270.214 74.3875 269.496 74.8736 268.871C74.9384 265.714 74.8736 262.441 74.9189 259.291C75.044 257.496 74.8932 255.692 74.4717 253.943C74.2384 253.12 73.8689 252.329 73.6874 251.487C73.0392 248.46 74.6726 244.83 72.7151 242.412C71.8984 241.414 70.6409 240.915 69.5714 240.195C67.4736 238.674 65.9521 236.488 65.2545 233.992C64.5576 231.51 64.1444 228.957 64.023 226.382C63.9615 225.837 63.9615 225.287 64.023 224.742C64.0543 224.459 64.1286 224.181 64.2434 223.919C64.8527 222.552 66.4861 222.02 67.9445 221.67C77.2024 219.451 86.6916 218.341 96.2118 218.364C99.7379 215.966 101.715 216.828 103.212 219.363C104.034 220.916 104.701 222.546 105.202 224.23C105.85 226.292 105.928 237.842 106.589 239.897C107.432 242.587 104.936 248.097 104.969 250.923Z" fill="#696791"/>
<path d="M41.2901 145.956C41.0308 147.771 41.8994 149.553 41.9966 151.388C42.0809 152.989 41.5688 154.551 41.2836 156.126C40.1428 162.271 42.3271 168.5 44.5245 174.346C44.9485 175.294 45.2114 176.307 45.3023 177.341C45.3606 179.247 44.2652 180.997 43.9606 182.883C43.3124 186.843 46.2487 190.564 46.3135 194.55C46.3135 196.398 45.756 198.277 46.2227 200.06C46.5274 201.253 47.2728 202.283 47.7978 203.392C48.7377 205.336 48.9905 207.605 49.885 209.595C51.499 213.192 54.9667 215.545 58.2725 217.703C60.1457 217.055 62.1616 216.336 63.2116 214.644C63.6651 213.812 63.9576 212.901 64.0737 211.961C64.7867 207.857 64.7608 203.67 64.7219 199.509C64.7926 195.927 64.6128 192.345 64.1839 188.788C63.5357 184.251 62.0514 179.908 60.9949 175.455C59.6985 169.848 58.9919 164.053 56.9242 158.667C55.1028 153.942 52.2768 149.696 49.2951 145.625C48.1608 144.076 47.2598 141.859 45.056 142.216C44.1201 142.377 43.2565 142.822 42.5826 143.491C41.9088 144.161 41.4575 145.021 41.2901 145.956Z" fill="#434175"/>
<path opacity="0.05" d="M41.2901 144.66C41.0308 146.475 41.8994 148.257 41.9966 150.092C42.0809 151.693 41.5688 153.255 41.2836 154.83C40.1428 160.975 42.3271 167.204 44.5245 173.05C44.9485 173.998 45.2114 175.011 45.3023 176.045C45.3606 177.951 44.2652 179.701 43.9606 181.587C43.3124 185.547 46.2487 189.268 46.3135 193.254C46.3135 195.102 45.756 196.981 46.2227 198.764C46.5274 199.957 47.2728 200.987 47.7978 202.096C48.7377 204.04 48.9905 206.309 49.885 208.299C51.499 211.896 54.9667 214.249 58.2725 216.408C60.1457 215.759 62.1616 215.04 63.2116 213.348C63.6651 212.516 63.9576 211.605 64.0737 210.665C64.7867 206.562 64.7608 202.374 64.7219 198.213C64.7926 194.631 64.6128 191.049 64.1839 187.492C63.5357 182.955 62.0514 178.612 60.9949 174.159C59.6985 168.552 58.9919 162.757 56.9242 157.371C55.1028 152.646 52.2768 148.4 49.2951 144.329C48.1608 142.78 47.2598 140.564 45.056 140.92C44.1201 141.081 43.2565 141.526 42.5826 142.196C41.9088 142.865 41.4575 143.725 41.2901 144.66Z" fill="black"/>
<path opacity="0.1" d="M89.239 106.41C87.7797 108.745 86.5737 111.228 85.6416 113.819C84.3054 114.148 82.9342 114.313 81.558 114.312C76.2105 114.312 72.4316 111.272 69.2879 107.428C69.0157 106.196 67.3434 105.049 67.5119 104.083C67.7647 102.787 68.9703 103.053 70.0593 103.124C73.3763 103.387 76.6777 103.82 79.9506 104.42C80.8062 104.524 89.1094 106.624 89.239 106.41Z" fill="black"/>
<path d="M81.558 113.845C91.0123 113.845 98.6765 106.181 98.6765 96.7269C98.6765 87.2726 91.0123 79.6084 81.558 79.6084C72.1037 79.6084 64.4395 87.2726 64.4395 96.7269C64.4395 106.181 72.1037 113.845 81.558 113.845Z" fill="#EE8E9E"/>
<path opacity="0.1" d="M103.191 219.376C100.229 219.201 97.2408 219.324 94.2721 219.441C92.4113 219.462 90.5563 219.653 88.7302 220.011C86.481 220.523 84.3809 221.547 82.1641 222.189C78.612 223.22 74.8655 223.265 71.1903 223.628C68.7739 223.861 66.3736 224.238 64.002 224.756C64.0333 224.472 64.1076 224.194 64.2224 223.933C64.8316 222.565 66.4651 222.034 67.9235 221.684C77.1815 219.464 86.6706 218.355 96.1908 218.378C99.7169 216.012 101.694 216.842 103.191 219.376Z" fill="black"/>
<path d="M91.522 124.754C90.7765 125.616 89.7719 126.569 88.67 126.29C88.2687 126.153 87.8922 125.952 87.5551 125.694C85.6105 124.398 83.1604 124.126 80.8399 123.75C76.1606 123.045 71.5379 122.005 67.0076 120.638C65.6905 120.161 64.31 119.882 62.9111 119.809C60.0137 119.809 57.4405 121.753 55.6255 124.009C53.8106 126.265 52.5143 128.916 50.7318 131.204C49.4354 132.837 47.9446 134.276 46.7584 135.968C43.7638 140.239 43.1156 145.814 43.8934 150.973C44.6713 156.133 46.726 161.001 48.7742 165.804C49.8595 168.608 51.1913 171.311 52.7541 173.88C52.067 177.769 52.43 182.306 54.2968 185.807C54.8996 186.954 55.645 188.069 55.8459 189.352C55.9371 190.217 55.9022 191.09 55.7422 191.945L54.8672 198.142C54.6014 200.028 54.3357 201.914 53.9921 203.794C53.344 207.223 52.5143 210.924 54.1023 214.048C56.0015 217.769 54.0051 222.533 54.5042 226.681C59.8606 224.611 65.4733 223.279 71.1884 222.721C74.8636 222.358 78.6101 222.312 82.1622 221.282C84.379 220.634 86.4791 219.616 88.7283 219.097C90.5545 218.741 92.4096 218.552 94.2703 218.533C98.3733 218.371 102.502 218.203 106.586 218.806C106.91 218.858 107.312 218.884 107.513 218.618C107.596 218.47 107.639 218.302 107.636 218.132C107.698 216.61 107.334 215.102 106.586 213.776C106.067 212.862 105.348 211.967 105.367 210.917C105.402 210.427 105.523 209.946 105.724 209.498L107.519 204.701C109.042 200.65 108.316 195.944 109.107 191.692C109.724 188.367 110.118 185.004 110.287 181.626C110.436 178.741 110.345 175.617 108.602 173.31C108.099 172.752 107.663 172.136 107.305 171.475C107.052 170.776 106.947 170.033 106.994 169.291C106.955 163.518 107.113 157.745 107.467 151.971C105.951 149.243 104.362 146.455 102.846 143.727C101.076 140.55 99.2872 137.31 98.5742 133.745C98.101 131.392 98.114 128.961 97.7769 126.582C97.7405 125.976 97.5313 125.394 97.1741 124.903C96.8439 124.615 96.455 124.401 96.0343 124.277C95.6136 124.153 95.1711 124.121 94.737 124.184C93.6424 124.208 92.558 124.4 91.522 124.754Z" fill="#434175"/>
<path opacity="0.1" d="M154.198 114.468C153.123 115.3 151.841 115.822 150.49 115.978C148.727 116.095 144.974 115.058 143.879 113.547C143.41 112.788 143.184 111.904 143.231 111.013C143.47 110.936 143.718 110.888 143.97 110.87C145.885 110.662 147.82 110.741 149.712 111.104C151.579 111.557 153.381 112.692 154.165 114.448L154.198 114.468Z" fill="black"/>
<path d="M97.2429 151.491C98.2864 152.788 99.3689 154.123 100.847 154.894C102.551 155.776 104.554 155.795 106.466 155.756C114.355 155.581 122.213 154.714 129.95 153.164C130.834 153.012 131.702 152.779 132.543 152.47C133.467 152.027 134.337 151.479 135.136 150.837C137.683 149.009 140.269 147.142 142.207 144.673C144.509 141.691 145.956 138.14 146.395 134.399C148.235 132.707 149.214 130.289 150.135 127.962C150.59 126.975 150.879 125.919 150.99 124.838C151.036 123.73 150.303 122.569 150.511 121.48C150.863 119.6 151.816 117.886 153.226 116.593C153.527 116.38 153.753 116.079 153.875 115.731C153.915 115.444 153.863 115.151 153.726 114.895C152.935 113.138 151.133 112.011 149.266 111.55C147.372 111.184 145.434 111.105 143.517 111.317C142.878 111.438 142.25 111.607 141.637 111.823L140.295 115.342C140.118 115.933 139.82 116.48 139.42 116.95C139.124 117.221 138.807 117.47 138.474 117.695C137.794 118.271 137.266 119.006 136.937 119.835C136.608 120.664 136.488 121.56 136.588 122.446C135.378 122.916 134.393 123.829 133.832 124.999C133.271 126.169 133.176 127.509 133.567 128.747C132.56 128.964 131.626 129.435 130.853 130.116C130.081 130.797 129.495 131.664 129.153 132.636C129.059 133.08 128.861 133.495 128.576 133.848C128.142 134.182 127.607 134.356 127.059 134.34C125.543 134.431 124.22 135.637 122.853 134.989C121.294 134.262 119.553 134.018 117.855 134.289C117.505 134.372 117.145 134.405 116.786 134.386C116.479 134.332 116.184 134.229 115.911 134.081C115.293 133.721 114.624 133.459 113.927 133.303C113.577 133.229 113.213 133.257 112.879 133.386C112.545 133.515 112.256 133.739 112.047 134.029C111.568 133.504 111.283 132.83 110.848 132.266C110.653 131.966 110.38 131.726 110.057 131.572C109.735 131.417 109.376 131.355 109.02 131.391C109.474 130.989 109.02 130.179 108.418 130.03C107.81 129.984 107.199 130.006 106.596 130.095C105.015 130.095 103.796 128.649 102.26 128.273C100.847 127.93 98.9606 128.345 98.2346 127.081C97.9818 126.634 97.9299 126.024 97.4957 125.784C97.1984 125.637 96.8592 125.598 96.5363 125.674C95.5334 125.806 94.559 126.102 93.6519 126.549C92.1676 132.383 92.9454 138.372 94.0732 144.245C94.4898 146.892 95.5814 149.388 97.2429 151.491Z" fill="#434175"/>
<path opacity="0.1" d="M97.198 172.265L89.8281 187.135C90.6254 185.754 92.3042 185.19 93.633 184.341C95.3108 183.123 96.5717 181.416 97.2433 179.454C97.9102 177.499 98.3772 175.481 98.637 173.432C98.786 172.492 99.0972 171.17 98.637 170.314C97.8202 170.489 97.548 171.572 97.198 172.265Z" fill="black"/>
<path opacity="0.1" d="M75.988 184.899C74.3222 186.545 72.2869 187.757 70.459 189.216C66.181 192.625 63.1345 197.292 60.1593 201.875C59.3185 203.073 58.612 204.359 58.0527 205.712C58.4028 206.01 58.9213 205.712 59.2713 205.394L65.0596 200.313C65.7743 199.734 66.4261 199.083 67.0042 198.368C68.0088 197.013 68.4561 195.328 69.37 193.908C70.3637 192.55 71.5492 191.342 72.8897 190.324C74.2184 189.183 80.3243 184.017 78.84 182.008C77.7446 182.526 76.8631 184.017 75.988 184.899Z" fill="black"/>
<path d="M88.6352 120.457C86.7372 119.408 84.6596 118.724 82.5099 118.441C81.235 118.152 79.9238 118.058 78.6208 118.162C77.4151 118.311 76.2549 118.778 75.0428 118.81C73.3381 118.908 71.7111 118.214 70.0647 117.767C68.4183 117.319 66.5191 117.119 65.1385 118.136C64.8429 118.427 64.469 118.625 64.0625 118.707C63.6437 118.65 63.2546 118.459 62.9541 118.162C61.7899 117.329 60.3769 116.916 58.947 116.991C57.5172 117.067 56.1554 117.626 55.0852 118.577C51.948 121.52 52.3045 127.269 48.6034 129.505C47.5922 130.154 46.2958 130.445 45.6995 131.45C45.555 131.776 45.3883 132.093 45.2004 132.396C44.956 132.673 44.6555 132.894 44.3189 133.044C43.2508 133.521 42.2344 134.105 41.2854 134.788C40.8118 135.132 40.413 135.568 40.1133 136.071C39.8136 136.573 39.6191 137.131 39.5417 137.711C39.528 138.56 39.7098 139.401 40.0733 140.168C41.8739 144.583 44.9971 148.332 49.0139 150.9C53.0307 153.468 57.7441 154.73 62.5069 154.512C63.3539 154.56 64.1897 154.3 64.8598 153.78C65.2123 153.381 65.4911 152.922 65.683 152.425C67.4137 148.802 70.661 146.125 72.7223 142.702C73.9473 140.648 74.7381 138.347 76.0215 136.324C77.9661 133.258 80.9088 130.99 83.7997 128.792C85.4332 127.554 87.2416 126.251 89.2898 126.336C91.1112 126.414 92.44 126.511 91.7659 124.281C91.2117 122.674 90.1013 121.317 88.6352 120.457Z" fill="#434175"/>
<path opacity="0.05" d="M88.6352 120.457C86.7372 119.408 84.6596 118.724 82.5099 118.441C81.235 118.152 79.9238 118.058 78.6208 118.162C77.4151 118.311 76.2549 118.778 75.0428 118.81C73.3381 118.908 71.7111 118.214 70.0647 117.767C68.4183 117.319 66.5191 117.119 65.1385 118.136C64.8429 118.427 64.469 118.625 64.0625 118.707C63.6437 118.65 63.2546 118.459 62.9541 118.162C61.7899 117.329 60.3769 116.916 58.947 116.991C57.5172 117.067 56.1554 117.626 55.0852 118.577C51.948 121.52 52.3045 127.269 48.6034 129.505C47.5922 130.154 46.2958 130.445 45.6995 131.45C45.555 131.776 45.3883 132.093 45.2004 132.396C44.956 132.673 44.6555 132.894 44.3189 133.044C43.2508 133.521 42.2344 134.105 41.2854 134.788C40.8118 135.132 40.413 135.568 40.1133 136.071C39.8136 136.573 39.6191 137.131 39.5417 137.711C39.528 138.56 39.7098 139.401 40.0733 140.168C41.8739 144.583 44.9971 148.332 49.0139 150.9C53.0307 153.468 57.7441 154.73 62.5069 154.512C63.3539 154.56 64.1897 154.3 64.8598 153.78C65.2123 153.381 65.4911 152.922 65.683 152.425C67.4137 148.802 70.661 146.125 72.7223 142.702C73.9473 140.648 74.7381 138.347 76.0215 136.324C77.9661 133.258 80.9088 130.99 83.7997 128.792C85.4332 127.554 87.2416 126.251 89.2898 126.336C91.1112 126.414 92.44 126.511 91.7659 124.281C91.2117 122.674 90.1013 121.317 88.6352 120.457Z" fill="black"/>
<path d="M97.5458 368.568C96.3013 369.728 94.5966 370.234 92.9437 370.59C89.1636 371.329 85.3365 371.804 81.4903 372.01L77.7503 372.295C74.101 372.574 70.4452 372.853 66.783 372.865C62.2588 372.879 57.7425 372.489 53.2878 371.699C53.0834 371.691 52.8827 371.641 52.6986 371.552C52.5145 371.463 52.351 371.336 52.2183 371.18C52.0793 370.92 52.0228 370.624 52.0563 370.331C52.1346 365.77 52.6908 361.229 53.7156 356.784C54.1369 354.963 57.4103 359.053 57.5594 359.228C57.8973 359.705 58.3426 360.096 58.8593 360.37C59.3761 360.643 59.9499 360.792 60.5345 360.803C64.3005 361.01 68.5201 358.722 71.5083 356.687C72.1503 356.21 72.8311 355.787 73.5436 355.423C74.067 355.189 74.6215 355.032 75.1899 354.956C77.1276 354.776 79.0755 355.17 80.7902 356.09C83.0394 357.205 85.0099 358.806 87.2721 359.98C89.0835 360.908 91.0379 361.526 93.0539 361.807C95.0892 362.086 97.5263 362.222 98.5699 363.985C99.3996 365.444 98.7773 367.414 97.5458 368.568Z" fill="#434175"/>
<path d="M97.5484 369.243C96.3039 370.403 94.5992 370.908 92.9463 371.265C89.1662 372.004 85.3391 372.478 81.4929 372.684L77.7529 372.97C74.1036 373.248 70.4479 373.527 66.7856 373.54C62.2613 373.557 57.7447 373.167 53.2904 372.373C53.0864 372.367 52.8859 372.318 52.7018 372.23C52.5177 372.142 52.3539 372.016 52.2209 371.861C51.8692 371.395 51.5876 370.879 51.3848 370.331C51.4625 365.794 52.6811 361.224 53.7182 356.784C54.1395 354.963 57.4129 359.053 57.562 359.228C57.8999 359.705 58.3452 360.096 58.8619 360.37C59.3787 360.644 59.9525 360.792 60.5371 360.803C64.3031 361.011 68.5227 358.723 71.5109 356.687C72.1529 356.21 72.8337 355.787 73.5462 355.423C74.0696 355.189 74.6241 355.032 75.1925 354.957C74.7064 357.666 70.8238 360.939 68.8144 361.937C64.7568 363.953 59.9343 362.942 55.41 363.182C55.0782 363.175 54.7502 363.253 54.4571 363.409C53.9192 363.772 53.8868 364.543 53.8997 365.191C53.9386 366.267 54.0747 367.538 55.0146 368.082C55.4826 368.309 55.9988 368.418 56.5184 368.4C67.6742 368.888 78.8511 368.495 89.9452 367.227C91.8114 367.103 93.6477 366.694 95.39 366.015C96.5294 365.482 97.5914 364.797 98.5466 363.979C99.9726 365.094 98.7799 368.089 97.5484 369.243Z" fill="#E8EAF2"/>
<path d="M88.2248 96.545C88.1599 98.3145 89.3655 101.73 86.0533 100.791C84.1088 100.22 83.5254 97.8802 81.0234 98.3988C78.5214 98.9173 77.9381 102.009 77.0954 104.025C76.4069 105.627 75.3392 107.038 73.9841 108.135C72.6291 109.233 71.0274 109.985 69.3172 110.325C68.6116 110.491 67.8774 110.491 67.1717 110.325C65.5578 109.865 64.6373 108.199 63.9762 106.657C63.4052 105.35 62.9329 104.002 62.5632 102.625C62.3026 101.657 62.1312 100.668 62.0511 99.6692C61.996 98.9898 61.996 98.3069 62.0511 97.6275C62.3493 93.6022 64.6438 89.9335 67.5736 87.1593C70.5034 84.3851 74.0554 82.3757 77.588 80.3987C78.7387 79.6839 79.9818 79.13 81.2827 78.7523C82.5629 78.4969 83.8753 78.4445 85.1718 78.5968C86.8859 78.667 88.5709 79.063 90.1369 79.7635C90.7777 80.0797 91.3658 80.4929 91.8805 80.9886C92.6158 81.6675 93.142 82.5423 93.3973 83.51C94.0454 86.1027 92.3731 88.4557 91.0249 90.5104C89.7933 92.3318 88.309 94.2634 88.2248 96.545Z" fill="#434175"/>
<path opacity="0.1" d="M143.911 134.535C143.204 132.752 140.235 127.82 141.091 126.108C141.986 127.373 142.744 128.729 143.353 130.153C143.911 131.547 143.47 133.4 143.911 134.535Z" fill="black"/>
<path opacity="0.1" d="M91.0657 90.5043C92.4139 88.4495 94.0733 86.1031 93.4381 83.5039C93.1237 82.357 92.4403 81.3456 91.4935 80.626C91.7133 81.0051 91.8791 81.4131 91.9862 81.8381C92.6344 84.4308 90.962 86.7772 89.6138 88.8385C88.4147 90.6663 86.9303 92.6044 86.8396 94.8795C86.7748 96.6491 87.9869 100.065 84.6746 99.1251C82.7301 98.5547 82.1467 96.2148 79.6383 96.7333C77.1298 97.2519 76.5594 100.337 75.7103 102.36C75.0227 103.962 73.9552 105.374 72.6 106.471C71.2448 107.569 69.6427 108.32 67.9321 108.66C67.2265 108.825 66.4922 108.825 65.7866 108.66C65.4232 108.553 65.081 108.384 64.7754 108.161C65.2807 109.17 66.156 109.946 67.2191 110.326C67.9272 110.488 68.6629 110.488 69.371 110.326C71.081 109.982 72.6821 109.229 74.0369 108.13C75.3917 107.032 76.4597 105.621 77.1492 104.019C77.9984 101.997 78.5493 98.9242 81.0772 98.3992C83.6051 97.8741 84.1367 100.214 86.1136 100.784C89.4258 101.744 88.2137 98.3084 88.2785 96.5389C88.3822 94.2702 89.8731 92.3322 91.0657 90.5043Z" fill="black"/>
<path opacity="0.1" d="M91.7968 86.9843C91.4903 87.4889 91.1526 87.9738 90.7856 88.4362C90.0867 89.3188 89.303 90.1308 88.4457 90.8604C87.9336 91.3012 87.4086 91.7095 86.8641 92.0984C85.8481 92.8146 84.7799 93.4538 83.6686 94.0106C80.3784 95.5418 76.9546 96.7677 73.4403 97.6728L66.6084 99.6628C65.7657 100.311 64.2296 101.439 62.5378 102.625C62.2772 101.657 62.1058 100.668 62.0257 99.6692C61.9706 98.9898 61.9706 98.3069 62.0257 97.6275C62.3239 93.6022 64.6185 89.9335 67.5483 87.1593C70.478 84.3851 74.0301 82.3757 77.5627 80.3987C78.7134 79.6839 79.9564 79.13 81.2574 78.7523C82.5375 78.4969 83.8499 78.4445 85.1465 78.5968C86.8605 78.667 88.5455 79.063 90.1115 79.7635C90.7523 80.0797 91.3404 80.4929 91.8551 80.9886C92.242 81.557 92.5372 82.1825 92.7302 82.8424C93.158 84.236 92.5616 85.7268 91.7968 86.9843Z" fill="black"/>
<path d="M91.799 86.524C91.4926 87.0286 91.1549 87.5135 90.7879 87.976C90.089 88.8585 89.3052 89.6705 88.4479 90.4002C87.9359 90.8409 87.4108 91.2493 86.8664 91.6382C85.8488 92.352 84.7808 92.9911 83.6708 93.5503C80.3806 95.0815 76.9568 96.3074 73.4425 97.2126L66.6106 99.196C64.2253 101.004 56.2397 106.916 54.8979 106.177C53.3164 105.308 61.9826 99.1701 61.9826 99.1701L62.378 99.4747C61.0816 98.6775 60.4334 96.8302 60.1612 95.2291C59.6556 92.3642 59.4158 89.3955 60.0964 86.5629C60.777 83.7304 62.4752 81.0469 65.0614 79.7246C66.2087 79.1282 67.6023 78.7329 68.432 77.8254C68.5565 77.6874 68.6672 77.5376 68.7626 77.3782C68.8134 77.3049 68.8568 77.2267 68.8922 77.1448C68.979 76.8933 69.1013 76.6554 69.2552 76.4383C69.7284 75.8938 70.5905 76.0559 71.3099 76.1466H71.5433C71.6707 76.1532 71.7983 76.1532 71.9257 76.1466C74.5185 76.2049 76.988 74.7725 79.5873 74.7725C82.4328 74.7725 84.857 76.4188 87.3655 77.5467C87.871 77.7736 88.3507 77.981 88.8044 78.1949C90.6193 79.0375 91.9805 79.9385 92.6935 82.3303C93.1602 83.7822 92.5639 85.2795 91.799 86.524Z" fill="#3498DB"/>
<path opacity="0.1" d="M71.9234 76.1854C72.0665 76.4269 72.1178 76.7118 72.0678 76.988C72.0178 77.2643 71.8699 77.5132 71.6512 77.6892C71.3354 77.9148 70.9626 78.0473 70.5752 78.0716C70.2958 78.1095 70.0144 78.1312 69.7325 78.1364C69.3533 78.1656 68.9726 78.101 68.6241 77.9484C68.5561 77.9127 68.4911 77.8715 68.4297 77.8253C68.5542 77.6873 68.6649 77.5375 68.7603 77.378C68.8251 77.4299 68.8899 77.4169 69.1427 77.378C69.6127 77.3557 70.0783 77.2773 70.5298 77.1447C70.717 77.0938 70.893 77.008 71.0484 76.8919C71.2797 76.695 71.4505 76.4365 71.541 76.1465L71.9234 76.1854Z" fill="black"/>
<path opacity="0.1" d="M62.1465 99.1052C62.5081 99.3307 62.9116 99.4806 63.3327 99.546C63.6325 99.6219 63.9382 99.6718 64.2466 99.6951C65.0321 99.655 65.7976 99.4331 66.4828 99.0469" fill="black"/>
<defs>
<linearGradient id="paint0_linear" x1="192.882" y1="114.74" x2="198.958" y2="39.2742" gradientUnits="userSpaceOnUse">
<stop stop-color="#808080" stop-opacity="0.25"/>
<stop offset="0.54" stop-color="#808080" stop-opacity="0.12"/>
<stop offset="1" stop-color="#808080" stop-opacity="0.1"/>
</linearGradient>
<linearGradient id="paint1_linear" x1="59757" y1="57585.9" x2="49131.7" y2="1685.77" gradientUnits="userSpaceOnUse">
<stop stop-color="#808080" stop-opacity="0.25"/>
<stop offset="0.54" stop-color="#808080" stop-opacity="0.12"/>
<stop offset="1" stop-color="#808080" stop-opacity="0.1"/>
</linearGradient>
<linearGradient id="paint2_linear" x1="29202.7" y1="54481.8" x2="29202.7" y2="3795.22" gradientUnits="userSpaceOnUse">
<stop stop-color="#808080" stop-opacity="0.25"/>
<stop offset="0.54" stop-color="#808080" stop-opacity="0.12"/>
<stop offset="1" stop-color="#808080" stop-opacity="0.1"/>
</linearGradient>
<linearGradient id="paint3_linear" x1="189.318" y1="58.0069" x2="188.424" y2="40.5884" gradientUnits="userSpaceOnUse">
<stop stop-opacity="0.12"/>
<stop offset="0.55" stop-opacity="0.09"/>
<stop offset="1" stop-opacity="0.02"/>
</linearGradient>
<linearGradient id="paint4_linear" x1="2806.29" y1="4819.61" x2="2806.29" y2="4336.34" gradientUnits="userSpaceOnUse">
<stop stop-color="#808080" stop-opacity="0.25"/>
<stop offset="0.54" stop-color="#808080" stop-opacity="0.12"/>
<stop offset="1" stop-color="#808080" stop-opacity="0.1"/>
</linearGradient>
<linearGradient id="paint5_linear" x1="99.232" y1="372.866" x2="99.232" y2="73.2494" gradientUnits="userSpaceOnUse">
<stop stop-color="#808080" stop-opacity="0.25"/>
<stop offset="0.54" stop-color="#808080" stop-opacity="0.12"/>
<stop offset="1" stop-color="#808080" stop-opacity="0.1"/>
</linearGradient>
</defs>
</svg>
