<svg width="25" height="25" viewBox="0 0 25 25" fill="none" xmlns="http://www.w3.org/2000/svg">
<path d="M24.7822 23.7251L18.7068 17.6497C20.3365 15.7761 21.3232 13.3315 21.3232 10.6596C21.3232 4.77827 16.5394 0 10.6636 0C4.78218 0 0.00390625 4.78381 0.00390625 10.6596C0.00390625 16.5355 4.78772 21.3193 10.6636 21.3193C13.3354 21.3193 15.78 20.3326 17.6536 18.7029L23.729 24.7783C23.8731 24.9224 24.0671 25 24.2556 25C24.444 25 24.6381 24.9279 24.7822 24.7783C25.0704 24.49 25.0704 24.0133 24.7822 23.7251ZM1.49504 10.6596C1.49504 5.60421 5.60812 1.49667 10.658 1.49667C15.7134 1.49667 19.821 5.60976 19.821 10.6596C19.821 15.7095 15.7134 19.8282 10.658 19.8282C5.60812 19.8282 1.49504 15.7151 1.49504 10.6596Z" fill="white"/>
</svg>
