<svg width="702" height="551" viewBox="0 0 702 551" fill="none" xmlns="http://www.w3.org/2000/svg">
<g clip-path="url(#clip0)">
<path d="M334.108 537.273C426.047 537.273 500.578 534.685 500.578 531.493C500.578 528.3 426.047 525.712 334.108 525.712C242.169 525.712 167.638 528.3 167.638 531.493C167.638 534.685 242.169 537.273 334.108 537.273Z" fill="#3F3D56"/>
<path d="M256.506 273.187C289.404 273.187 316.072 247.256 316.072 215.269C316.072 183.282 289.404 157.351 256.506 157.351C223.609 157.351 196.94 183.282 196.94 215.269C196.94 247.256 223.609 273.187 256.506 273.187Z" fill="#FDB813"/>
<path d="M186.326 516.328C214.052 516.328 236.529 514.313 236.529 511.828C236.529 509.343 214.052 507.329 186.326 507.329C158.599 507.329 136.122 509.343 136.122 511.828C136.122 514.313 158.599 516.328 186.326 516.328Z" fill="#3F3D56"/>
<path d="M277.785 531.888C277.785 531.888 319.453 423.848 296.482 357.362C273.512 290.876 255.349 293.473 255.349 293.473C255.349 293.473 224.365 285.682 185.902 308.537C147.44 331.391 137.29 338.144 115.388 328.794C93.4854 319.444 89.2118 304.901 35.7916 306.459C35.7916 306.459 64.1043 291.396 91.8828 304.901C119.661 318.406 138.358 325.677 166.671 304.901C194.984 284.124 233.981 257.114 271.909 273.216C271.909 273.216 244.13 246.725 235.049 246.725C225.968 246.725 183.231 242.57 169.342 228.546C169.342 228.546 149.577 215.041 114.319 248.284C79.062 281.527 87.6092 281.527 56.0913 278.93C24.5733 276.332 0 261.269 0 261.269C0 261.269 36.86 275.813 59.2965 268.541C81.733 261.269 100.964 233.74 120.73 224.39C140.495 215.041 152.248 202.575 178.958 216.079C178.958 216.079 167.74 171.409 146.371 175.045C125.003 178.681 156.521 164.657 156.521 164.657C156.521 164.657 150.645 88.8212 139.427 83.6269C128.209 78.4327 135.153 64.9278 114.319 62.3306C114.319 62.3306 139.961 59.2141 144.769 76.355C149.577 93.4959 182.697 185.953 182.697 185.953C182.697 185.953 202.997 225.429 225.433 216.079C247.87 206.73 216.886 154.268 216.886 154.268L178.424 137.127C178.424 137.127 207.271 136.089 224.899 152.191C242.528 168.293 243.596 220.235 243.596 220.235C243.596 220.235 287.935 226.468 298.619 249.842C298.619 249.842 305.564 229.065 292.209 216.599C288.87 213.482 285.364 208.061 281.984 201.682C269.056 177.287 264.67 149.478 268.737 122.321C270.727 109.032 271.952 96.0383 269.772 92.9765C264.964 86.224 244.665 44.6703 243.062 33.7624C241.459 22.8546 244.665 0 244.665 0C244.665 0 245.199 28.0488 251.609 36.8789C258.02 45.7091 276.183 89.3406 276.183 89.3406C276.183 89.3406 276.183 144.399 291.14 171.409C306.098 198.419 334.945 228.546 333.342 248.284V259.711C333.342 259.711 365.394 230.104 363.258 220.235C361.121 210.366 358.45 186.992 338.15 172.967C317.85 158.943 304.495 136.608 318.919 104.404C333.342 72.1996 333.342 66.486 333.342 66.486L323.727 106.481C323.727 106.481 318.385 142.322 333.342 154.788C348.3 167.254 368.065 190.108 368.065 190.108L363.792 115.312L377.681 144.919C377.681 144.919 407.596 107.52 442.854 95.0542C478.111 82.5881 500.013 38.9566 500.013 38.9566L529.929 16.102L505.355 44.6703C505.355 44.6703 497.877 78.4327 455.675 102.326C413.473 126.22 386.228 161.54 384.626 183.356C383.023 205.172 381.42 224.39 381.42 224.39C381.42 224.39 460.482 221.793 478.111 188.031C495.74 154.268 497.342 87.2629 514.437 76.355C531.531 65.4471 563.583 51.9422 563.583 51.9422L527.792 80.5104C527.792 80.5104 520.313 103.884 521.916 120.506C523.518 137.127 510.163 152.71 510.163 152.71L500.013 181.798L488.795 206.73C488.795 206.73 534.737 207.769 558.776 234.259C582.815 260.75 642.645 268.541 642.645 268.541L608.991 277.371C608.991 277.371 576.939 266.983 546.489 247.764C516.039 228.546 519.245 211.405 481.316 230.623C443.388 249.842 391.57 265.944 391.57 265.944C391.57 265.944 421.486 252.439 475.44 285.163C529.394 317.886 448.73 279.449 424.691 291.915C400.652 304.381 389.433 288.799 379.818 319.964C370.202 351.129 352.574 436.314 372.873 484.101L393.173 531.888H277.785Z" fill="#3F3D56"/>
<path opacity="0.1" d="M478.921 188.031C464.599 215.46 409.728 222.319 389.648 223.928C389.085 230.969 388.714 235.422 388.714 235.422C388.714 235.422 467.776 232.825 485.404 199.062C503.033 165.3 504.636 98.2945 521.73 87.3866C523.543 86.2298 525.526 85.0436 527.619 83.8476C528.206 81.7512 528.602 80.5103 528.602 80.5103L564.394 51.9421C564.394 51.9421 532.342 65.4471 515.247 76.355C498.153 87.2628 496.55 154.268 478.921 188.031Z" fill="black"/>
<path opacity="0.1" d="M386.798 135.556C386.682 148.344 384.975 155.95 384.975 155.95C384.975 155.95 414.877 118.568 450.125 106.094C452.208 104.812 454.322 103.551 456.485 102.326C498.687 78.4327 506.166 44.6702 506.166 44.6702L530.739 16.1021L500.824 38.9566C500.824 38.9566 478.921 82.5881 443.664 95.0542C419.631 103.552 398.084 123.63 386.798 135.556Z" fill="black"/>
<path opacity="0.1" d="M340.636 259.315V270.742C340.636 270.742 372.688 241.135 370.551 231.266C368.917 223.719 366.961 208.276 357.055 195.154C361.52 205.07 362.879 214.743 364.068 220.235C365.6 227.312 349.553 244.537 340.35 253.718C340.672 255.566 340.769 257.445 340.636 259.315Z" fill="black"/>
<path opacity="0.1" d="M297.641 180.896C297.894 181.422 298.156 181.94 298.434 182.441C306.625 197.233 318.976 212.958 328.216 227.401C320.748 213.097 307.751 196.741 297.641 180.896Z" fill="black"/>
<path opacity="0.1" d="M323.684 158.782C319.376 148.519 318.666 136.307 323.615 121.996C323.553 116.81 323.861 111.626 324.536 106.481L332.948 71.4944C331.397 76.5399 327.849 86.2734 319.729 104.404C309.449 127.356 313.285 145.291 323.684 158.782Z" fill="black"/>
<path opacity="0.1" d="M559.585 234.259C542.914 215.888 515.713 209.759 500.603 207.727L496.088 217.762C496.088 217.762 542.029 218.8 566.068 245.291C579.399 259.981 603.733 268.919 622.771 273.968L643.455 268.541C643.455 268.541 583.624 260.75 559.585 234.259Z" fill="black"/>
<path opacity="0.1" d="M232.727 227.111C255.163 217.761 224.18 165.3 224.18 165.3L223.332 164.922C231.057 180.769 242.259 209.406 226.244 216.079C211.257 222.324 197.227 206.787 189.56 195.78C189.838 196.558 189.991 196.985 189.991 196.985C189.991 196.985 210.29 236.461 232.727 227.111Z" fill="black"/>
<path opacity="0.1" d="M305.912 260.874C305.912 260.874 312.673 240.611 299.972 228.101C303.087 238.878 299.429 249.842 299.429 249.842C291.164 231.76 262.765 223.938 250.325 221.322C250.808 227.342 250.889 231.266 250.889 231.266C250.889 231.266 295.228 237.5 305.912 260.874Z" fill="black"/>
<path opacity="0.1" d="M332.948 71.4945C334.152 67.578 334.152 66.4861 334.152 66.4861L332.948 71.4945Z" fill="black"/>
<path opacity="0.1" d="M66.266 279.672C66.3737 279.638 66.4831 279.608 66.5902 279.573C89.0267 272.301 108.258 244.772 128.023 235.422C147.789 226.072 159.541 213.606 186.251 227.111C186.251 227.111 181.579 208.513 172.523 196.294C175.523 202.673 177.947 209.293 179.768 216.08C153.058 202.575 141.306 215.041 121.54 224.39C101.775 233.74 82.5435 261.269 60.107 268.541C37.6705 275.813 0.810547 261.269 0.810547 261.269C0.810547 261.269 25.3838 276.332 56.9018 278.93C60.5072 279.227 63.5836 279.489 66.266 279.672Z" fill="black"/>
<path opacity="0.1" d="M288.981 531.888C298.769 502.713 322.309 422.036 303.776 368.394C295.772 345.228 288.354 330.456 282.083 321.032C286.773 329.954 291.9 341.754 297.293 357.362C320.264 423.848 278.596 531.888 278.596 531.888H288.981Z" fill="black"/>
<path opacity="0.1" d="M80.3599 310.637C86.9092 311.283 93.2841 313.077 99.176 315.932C121.115 326.598 137.392 333.362 157.212 325.506C161.727 323.187 166.777 320.317 172.602 316.901C173.056 316.578 173.505 316.269 173.964 315.932C202.277 295.155 241.274 268.146 279.202 284.248C279.202 284.248 271.537 276.94 262.944 270C228.18 261.708 193.366 285.906 167.481 304.901C139.168 325.678 120.471 318.406 92.6928 304.901C64.9142 291.396 36.6016 306.459 36.6016 306.459C57.2418 305.857 70.5417 307.66 80.3599 310.637Z" fill="black"/>
<path opacity="0.1" d="M134.584 78.5845C135.193 79.5822 135.932 80.4999 136.781 81.3153C136.157 80.3272 135.42 79.411 134.584 78.5845Z" fill="black"/>
<path opacity="0.1" d="M232.192 163.222C233.018 163.981 233.792 164.792 234.508 165.65C232.168 160.18 229.278 155.451 225.709 152.191C208.08 136.088 179.233 137.127 179.233 137.127L215.41 153.25C221.61 155.498 227.307 158.884 232.192 163.222Z" fill="black"/>
<path opacity="0.1" d="M270.583 92.9765C272.763 96.0383 271.538 109.032 269.548 122.321C265.481 149.478 269.866 177.287 282.794 201.682C284.496 204.956 286.397 208.128 288.486 211.183C276.176 187.158 272.049 159.944 276.031 133.353C278.021 120.064 279.246 107.07 277.066 104.008C272.258 97.2557 251.958 55.7019 250.356 44.7941C249.875 40.5623 249.763 36.2987 250.021 32.0486C245.871 20.6005 245.475 0 245.475 0C245.475 0 242.27 22.8546 243.873 33.7624C245.475 44.6702 265.775 86.224 270.583 92.9765Z" fill="black"/>
<path opacity="0.1" d="M320.698 21.1683C320.484 20.1416 320.159 19.1399 319.729 18.1797C319.729 18.1797 320.139 19.3007 320.698 21.1683Z" fill="black"/>
<path opacity="0.1" d="M132.017 73.481C136.725 74.0414 142.14 75.4459 146.271 78.7033C146.002 77.8171 145.767 77.0227 145.579 76.3551C140.772 59.2142 115.13 62.3308 115.13 62.3308C126.718 63.7753 129.711 68.5944 132.017 73.481Z" fill="black"/>
<path d="M264.791 509.695C268.6 523.385 281.646 531.863 281.646 531.863C281.646 531.863 288.517 518.146 284.708 504.456C280.899 490.766 267.853 482.287 267.853 482.287C267.853 482.287 260.982 496.004 264.791 509.695Z" fill="#3F3D56"/>
<path d="M270.387 506.752C280.838 516.645 282.115 531.852 282.115 531.852C282.115 531.852 266.446 531.02 255.995 521.128C245.543 511.235 244.267 496.028 244.267 496.028C244.267 496.028 259.935 496.86 270.387 506.752Z" fill="#3498DB"/>
<path d="M235.746 135.568C234.838 149.723 223.805 160.573 223.805 160.573C223.805 160.573 214.245 148.473 215.154 134.319C216.062 120.164 227.095 109.314 227.095 109.314C227.095 109.314 236.655 121.414 235.746 135.568Z" fill="#3498DB"/>
<path d="M120.738 46.0848C133.076 53.6485 137.577 68.2654 137.577 68.2654C137.577 68.2654 122.073 70.6192 109.734 63.0555C97.3959 55.4919 92.8955 40.875 92.8955 40.875C92.8955 40.875 108.4 38.5212 120.738 46.0848Z" fill="#3498DB"/>
<path d="M93.1843 218.651C105.523 226.215 110.023 240.832 110.023 240.832C110.023 240.832 94.5189 243.186 82.1805 235.622C69.8421 228.059 65.3418 213.442 65.3418 213.442C65.3418 213.442 80.846 211.088 93.1843 218.651Z" fill="#3498DB"/>
<path d="M158.826 284.841C171.164 292.405 175.665 307.022 175.665 307.022C175.665 307.022 160.16 309.376 147.822 301.812C135.484 294.248 130.983 279.632 130.983 279.632C130.983 279.632 146.488 277.278 158.826 284.841Z" fill="#3498DB"/>
<path d="M344.018 71.3127C340.298 85.0257 327.306 93.5834 327.306 93.5834C327.306 93.5834 320.347 79.9078 324.068 66.1948C327.789 52.4818 340.781 43.9241 340.781 43.9241C340.781 43.9241 347.739 57.5996 344.018 71.3127Z" fill="#3498DB"/>
<path d="M461.392 82.0049C457.019 95.5347 443.632 103.495 443.632 103.495C443.632 103.495 437.335 89.5194 441.709 75.9897C446.082 62.4599 459.469 54.4995 459.469 54.4995C459.469 54.4995 465.766 68.4752 461.392 82.0049Z" fill="#3498DB"/>
<path d="M588.257 232.585C580.334 244.493 565.25 248.698 565.25 248.698C565.25 248.698 563.01 233.597 570.932 221.689C578.854 209.78 593.938 205.575 593.938 205.575C593.938 205.575 596.179 220.677 588.257 232.585Z" fill="#3498DB"/>
<path d="M389.091 329.957C389.091 329.957 387.819 334.494 390.364 336.144C392.909 337.793 393.757 345.629 393.757 345.629L388.667 359.24L375.094 361.714L370.004 352.228V338.206C370.004 338.206 371.701 331.194 371.276 329.132C370.852 327.07 389.091 329.957 389.091 329.957Z" fill="#FFB9B9"/>
<path opacity="0.2" d="M389.091 329.957C389.091 329.957 387.819 334.494 390.364 336.144C392.909 337.793 393.757 345.629 393.757 345.629L388.667 359.24L375.094 361.714L370.004 352.228V338.206C370.004 338.206 371.701 331.194 371.276 329.132C370.852 327.07 389.091 329.957 389.091 329.957Z" fill="black"/>
<path d="M402.665 407.906L413.693 409.968C413.693 409.968 414.541 421.929 413.693 424.816C412.844 427.703 411.996 431.002 412.844 431.827C413.693 432.652 409.027 453.686 409.451 454.923C409.875 456.16 410.724 459.872 410.299 462.347C409.875 464.821 408.603 463.996 409.451 466.471C410.299 468.945 411.148 469.358 410.299 471.008C409.451 472.657 405.209 512.663 403.937 513.075C402.665 513.488 391.212 513.9 391.212 513.075C391.212 512.251 395.03 506.064 393.757 504.414C392.485 502.765 394.181 474.719 394.181 473.482C394.181 472.245 396.726 470.183 395.454 469.358C394.181 468.533 393.333 467.708 393.757 466.471C394.181 465.234 395.03 464.821 394.181 463.584C393.333 462.347 393.333 437.601 390.364 436.776C390.364 436.776 386.546 454.923 387.819 459.46C389.091 463.996 387.395 465.646 387.395 465.646L393.333 470.595L385.274 485.443L376.79 475.957C376.79 475.957 376.79 473.482 375.094 473.07C373.397 472.657 372.549 472.245 372.549 471.008C372.549 469.77 369.58 461.934 369.58 461.934C369.58 461.934 361.096 435.951 365.338 422.753C369.58 409.556 371.214 409.993 371.214 409.993L402.665 407.906Z" fill="#2F2E41"/>
<path d="M409.451 493.279L414.118 498.228L412.421 511.838H408.603L402.665 499.052L409.451 493.279Z" fill="#FFB9B9"/>
<path d="M412.42 502.352C412.42 502.352 410.723 506.064 409.451 505.239C408.178 504.414 407.757 503.177 405.847 503.177C403.937 503.177 402.24 503.589 402.664 504.414C403.088 505.239 408.178 514.313 408.178 514.313C408.925 515.861 409.312 517.551 409.312 519.262C409.312 520.972 408.925 522.662 408.178 524.211C405.633 529.572 414.965 532.459 416.662 526.685C418.358 520.911 418.783 514.313 418.358 511.838C417.934 509.363 420.479 496.578 420.479 496.578C420.479 496.578 413.627 493.507 411.539 493.393C411.539 493.393 413.268 500.702 412.42 502.352Z" fill="#2F2E41"/>
<path d="M400.968 511.426L402.665 516.375C402.665 516.375 402.665 521.324 404.361 523.798C406.058 526.273 407.755 531.635 400.968 532.047C394.181 532.459 391.212 529.985 391.212 529.985C391.212 529.985 392.485 526.685 391.212 525.448C389.94 524.211 391.212 521.736 391.212 521.736L392.485 511.838L400.968 511.426Z" fill="#2F2E41"/>
<path d="M389.515 470.183H393.333L412.42 494.516C412.42 494.516 409.027 502.352 403.937 503.177C403.937 503.177 403.088 502.764 399.271 500.29C395.453 497.815 385.273 485.442 385.273 485.442L384.001 478.431L389.515 470.183Z" fill="#2F2E41"/>
<path d="M380.184 335.319C387.68 335.319 393.757 329.41 393.757 322.121C393.757 314.832 387.68 308.923 380.184 308.923C372.687 308.923 366.61 314.832 366.61 322.121C366.61 329.41 372.687 335.319 380.184 335.319Z" fill="#FFB9B9"/>
<path d="M396.727 339.03L392.485 337.381C392.485 337.381 392.061 351.816 384.002 351.816C375.943 351.816 367.459 349.753 367.459 345.629C367.459 341.505 360.673 353.053 360.673 353.053C360.673 353.053 367.035 394.296 366.611 394.708C366.187 395.121 371.277 416.979 371.277 416.979C371.277 416.979 392.909 417.804 400.12 414.917C407.331 412.03 409.452 406.669 409.452 406.669L406.483 370.375L400.544 342.33L396.727 339.03Z" fill="#3498DB"/>
<path d="M389.518 335.318C389.518 335.318 391.212 333.669 393.757 335.318C396.302 336.968 411.996 340.68 411.996 341.917V357.59C411.996 357.59 412.42 360.064 411.147 361.714C409.875 363.364 406.906 369.55 408.602 372.437C410.299 375.324 416.662 408.731 415.389 412.855C414.117 416.979 410.723 420.691 410.723 420.691C410.723 420.691 392.484 383.16 392.484 372.437C392.484 361.714 392.661 348.558 392.661 348.558L389.518 335.318Z" fill="#575A89"/>
<path d="M408.178 342.33H411.996C411.996 342.33 426.418 369.138 426.418 374.499C426.418 379.861 417.086 409.556 416.238 409.968C415.389 410.381 412.844 405.431 412.844 405.431L410.723 388.934C410.723 388.934 414.965 379.036 413.693 377.386C412.42 375.737 406.058 362.951 406.058 362.951L408.178 342.33Z" fill="#575A89"/>
<path d="M370.63 335.319C370.63 335.319 365.761 338.618 364.913 339.855C364.064 341.093 351.339 348.104 350.915 349.754C350.491 351.403 360.671 365.426 360.671 365.426C360.671 365.426 364.913 388.522 364.913 390.172C364.913 391.821 366.609 419.866 366.609 419.866C366.609 419.866 384 424.816 384 421.929C384 419.042 384.424 377.799 381.879 368.725C379.334 359.652 370.63 335.319 370.63 335.319Z" fill="#575A89"/>
<path d="M373.397 420.691C373.397 420.691 387.819 439.663 380.184 439.25C372.549 438.838 367.459 422.753 367.459 422.753L373.397 420.691Z" fill="#FFB9B9"/>
<path d="M356.007 348.516L350.917 349.754C350.917 349.754 346.675 386.047 349.22 390.997C351.765 395.946 365.339 428.115 365.339 426.878C365.339 425.641 377.279 423.435 376.823 422.27C376.367 421.104 373.822 416.155 372.974 414.505C372.125 412.855 370.853 410.793 371.277 408.731C371.701 406.669 366.611 397.842 366.611 397.842C366.611 397.842 365.339 392.646 364.915 390.172C364.49 387.697 360.673 360.477 360.673 360.477L356.007 348.516Z" fill="#575A89"/>
<path d="M393.492 311.904C393.233 311.128 392.685 310.474 391.956 310.07C391.994 309.25 391.885 308.431 391.632 307.648C390.787 305.362 388.786 305.493 386.897 304.483C386.078 304.044 386.128 303.657 385.702 302.936C385.129 301.979 384.292 301.198 383.286 300.68C382.121 299.876 380.776 299.354 379.362 299.157C376.35 298.969 374.04 301.562 371.161 302.394C369.892 302.761 368.529 302.776 367.253 303.122C365.978 303.469 364.705 304.297 364.515 305.502C364.427 306.059 364.582 306.63 364.493 307.186C364.316 308.292 363.256 309.066 362.546 309.976C360.977 311.987 361.157 314.828 362.412 317.016C362.677 317.471 362.98 317.904 363.316 318.312C363.423 319.352 363.748 320.36 364.272 321.272C365.527 323.461 367.686 325.096 369.941 326.454C369.757 325.73 369.645 324.99 369.607 324.245C369.575 323.996 369.611 323.744 369.71 323.512C369.961 323.032 370.625 322.904 371.131 322.641C371.613 322.332 372.005 321.907 372.266 321.406C372.527 320.905 372.649 320.347 372.62 319.786C372.651 318.683 372.395 317.578 372.521 316.481C372.528 316.225 372.592 315.974 372.709 315.744C372.825 315.515 372.992 315.313 373.197 315.152C373.588 314.949 374.028 314.853 374.471 314.874C376.618 314.794 378.862 314.758 380.757 313.829C381.371 313.456 382.028 313.152 382.713 312.923C384.323 312.539 385.969 313.571 386.897 314.835C387.824 316.099 388.287 317.603 389.143 318.909C389.999 320.215 391.478 321.379 393.133 321.224C393.225 321.225 393.317 321.208 393.402 321.173C393.487 321.138 393.563 321.087 393.628 321.023C393.699 320.907 393.73 320.772 393.719 320.638L393.811 314.847C393.888 313.856 393.78 312.859 393.492 311.904Z" fill="#2F2E41"/>
</g>
<defs>
<clipPath id="clip0">
<rect width="702" height="551" fill="white"/>
</clipPath>
</defs>
</svg>
