<svg width="60" height="60" viewBox="0 0 60 60" fill="none" xmlns="http://www.w3.org/2000/svg">
<g clip-path="url(#clip0)">
<path d="M48.797 16.7554C48.1555 12.9429 46.2677 9.4636 43.3806 6.82325C40.1727 3.88679 36.0025 2.27051 31.6595 2.27051C28.3035 2.27051 25.0339 3.23288 22.2332 5.04657C19.9013 6.55182 17.9642 8.5876 16.5947 10.9812C16.0025 10.8701 15.3856 10.8084 14.7687 10.8084C9.52498 10.8084 5.25601 15.0774 5.25601 20.3211C5.25601 20.9997 5.33004 21.6536 5.45342 22.2952C2.06046 24.7628 0 28.7357 0 32.9676C0 36.3853 1.27082 39.7042 3.59038 42.3322C5.97162 45.0219 9.11783 46.6135 12.4738 46.7986C12.5108 46.7986 12.5355 46.7986 12.5725 46.7986H23.1832C24.1086 46.7986 24.8489 46.0583 24.8489 45.1329C24.8489 44.2076 24.1086 43.4673 23.1832 43.4673H12.6218C7.57557 43.1588 3.33128 38.3593 3.33128 32.9553C3.33128 29.4636 5.20666 26.2064 8.22949 24.442C8.93276 24.0349 9.22887 23.1835 8.95743 22.4186C8.71067 21.7523 8.58729 21.049 8.58729 20.2964C8.58729 16.8911 11.3634 14.115 14.7687 14.115C15.4966 14.115 16.2122 14.2384 16.8785 14.4852C17.6928 14.7813 18.5935 14.4112 18.9636 13.6339C21.2708 8.73565 26.2554 5.57711 31.6718 5.57711C38.9513 5.57711 44.9599 11.0305 45.6508 18.2606C45.7249 19.0133 46.2924 19.6178 47.0327 19.7412C52.5231 20.6789 56.6687 25.7498 56.6687 31.5364C56.6687 37.6684 51.8445 42.9985 45.8976 43.455H36.8044C35.8791 43.455 35.1388 44.1952 35.1388 45.1206C35.1388 46.046 35.8791 46.7862 36.8044 46.7862H45.9593C45.9963 46.7862 46.0333 46.7862 46.0827 46.7862C49.8458 46.5148 53.3621 44.7875 55.9778 41.9004C58.5811 39.0379 60 35.3612 60 31.5364C59.9877 24.6147 55.2622 18.458 48.797 16.7554Z" fill="#3498DB"/>
<path d="M40.0016 34.5468C40.6555 33.8929 40.6555 32.8442 40.0016 32.1902L31.1798 23.3685C30.8714 23.0601 30.4395 22.875 30.0077 22.875C29.5759 22.875 29.144 23.0477 28.8356 23.3685L20.0139 32.1902C19.36 32.8442 19.36 33.8929 20.0139 34.5468C20.3347 34.8676 20.7665 35.0403 21.186 35.0403C21.6055 35.0403 22.0373 34.8799 22.3581 34.5468L28.3421 28.5628V56.0644C28.3421 56.9897 29.0824 57.73 30.0077 57.73C30.9331 57.73 31.6734 56.9897 31.6734 56.0644V28.5628L37.6573 34.5468C38.2989 35.2007 39.3476 35.2007 40.0016 34.5468Z" fill="#3498DB"/>
</g>
<defs>
<clipPath id="clip0">
<rect width="60" height="60" fill="white"/>
</clipPath>
</defs>
</svg>
