<svg width="503" height="105" viewBox="0 0 503 105" fill="none" xmlns="http://www.w3.org/2000/svg">
<path opacity="0.1" d="M60.42 104.3C78.8774 104.3 93.84 101.77 93.84 98.65C93.84 95.5296 78.8774 93 60.42 93C41.9626 93 27 95.5296 27 98.65C27 101.77 41.9626 104.3 60.42 104.3Z" fill="#3498DB"/>
<path d="M61.2027 27C61.2027 27 67.3427 35 58.3727 47.14C49.4027 59.28 42.0027 69.49 44.9927 77.04C44.9927 77.04 58.5327 54.54 69.5427 54.22C80.5527 53.9 73.3627 40.53 61.2027 27Z" fill="#3498DB"/>
<path opacity="0.1" d="M61.2019 27C61.7387 27.7763 62.1629 28.6248 62.4619 29.52C73.2019 42.15 78.9319 53.93 68.6019 54.22C58.9719 54.5 47.4319 71.7 44.6719 76.05C44.7619 76.38 44.8719 76.71 44.9919 77.05C44.9919 77.05 58.5319 54.55 69.5419 54.23C80.5519 53.91 73.3619 40.53 61.2019 27Z" fill="black"/>
<path d="M72.6134 37.23C72.6134 40.05 72.2934 42.34 71.9034 42.34C71.5134 42.34 71.1934 40.05 71.1934 37.23C71.1934 34.41 71.5934 35.73 71.9834 35.73C72.3734 35.73 72.6134 34.41 72.6134 37.23Z" fill="#FFD037"/>
<path d="M76.521 40.6C74.041 41.95 71.881 42.7699 71.691 42.4299C71.501 42.0899 73.371 40.7099 75.851 39.3599C78.331 38.0099 77.351 38.9899 77.541 39.3599C77.731 39.7299 79.001 39.25 76.521 40.6Z" fill="#FFD037"/>
<path d="M28.792 27C28.792 27 22.652 35 31.622 47.14C40.592 59.28 47.982 69.49 44.992 77.04C44.992 77.04 31.462 54.54 20.452 54.22C9.442 53.9 16.672 40.53 28.792 27Z" fill="#3498DB"/>
<path opacity="0.1" d="M28.7922 27C28.2554 27.7763 27.8312 28.6248 27.5323 29.52C16.7923 42.15 11.0623 53.95 21.3623 54.22C30.9823 54.5 42.5322 71.7 45.2922 76.05C45.2007 76.3891 45.0905 76.723 44.9623 77.05C44.9623 77.05 31.4323 54.55 20.4223 54.23C9.41225 53.91 16.6722 40.53 28.7922 27Z" fill="black"/>
<path d="M5.40332 68.23C5.40332 71.05 5.72333 73.34 6.11333 73.34C6.50333 73.34 6.82332 71.05 6.82332 68.23C6.82332 65.41 6.42333 66.73 6.03333 66.73C5.64333 66.73 5.40332 65.41 5.40332 68.23Z" fill="#FFD037"/>
<path d="M1.51339 71.6C3.99339 72.95 6.15338 73.7699 6.33338 73.4299C6.51338 73.0899 4.66339 71.7099 2.18339 70.3599C-0.296614 69.0099 0.683384 69.9899 0.493384 70.3599C0.303384 70.7299 -0.966612 70.25 1.51339 71.6Z" fill="#FFD037"/>
<path d="M19.3623 75.9501C19.3623 75.9501 36.5223 75.4201 41.6923 71.7401C46.8623 68.0601 68.0823 63.6601 69.3723 69.5701C70.6623 75.4801 95.1523 98.9302 75.7823 99.0902C56.4123 99.2502 30.7823 96.0901 25.6123 92.9301C20.4423 89.7701 19.3623 75.9501 19.3623 75.9501Z" fill="#5F5D7E"/>
<path opacity="0.2" d="M76.1025 97.0802C56.7325 97.2302 31.1025 94.0802 25.9325 90.9102C22.0025 88.5202 20.4325 79.9102 19.9325 75.9702H19.3525C19.3525 75.9702 20.4425 89.8102 25.6025 92.9702C30.7625 96.1302 56.4025 99.2902 75.7725 99.1302C81.3625 99.1302 83.2925 97.1302 83.1925 94.1302C82.3625 95.9502 80.2625 97.0402 76.1025 97.0802Z" fill="black"/>
<path opacity="0.1" d="M291.482 60.6304C407.878 50.8291 501.616 35.5224 500.852 26.4419C500.087 17.3613 405.109 17.9455 288.713 27.7467C172.317 37.548 78.5788 52.8546 79.3435 61.9352C80.1081 71.0158 175.086 70.4316 291.482 60.6304Z" fill="#3498DB"/>
<path opacity="0.1" d="M338.159 44.4395C357.599 44.4395 373.359 41.7757 373.359 38.4896C373.359 35.2035 357.599 32.5396 338.159 32.5396C318.719 32.5396 302.959 35.2035 302.959 38.4896C302.959 41.7757 318.719 44.4395 338.159 44.4395Z" fill="#3498DB"/>
<path d="M314.529 10.8496C314.529 10.8496 334.599 10.2296 340.649 5.91962C346.699 1.60962 371.539 -3.53036 373.039 3.37964C374.539 10.2896 403.209 37.7496 380.539 37.9296C357.869 38.1096 327.879 34.3997 321.839 30.7197C315.799 27.0397 314.529 10.8496 314.529 10.8496Z" fill="#5F5D7E"/>
<path opacity="0.2" d="M380.95 35.5196C358.28 35.7096 328.28 31.9896 322.24 28.3096C317.64 25.5096 315.81 15.4596 315.24 10.8196H314.57C314.57 10.8196 315.84 27.0096 321.88 30.6896C327.92 34.3696 357.88 38.0796 380.58 37.8996C387.13 37.8996 389.39 35.5196 389.26 32.0696C388.31 34.1796 385.82 35.4396 380.95 35.5196Z" fill="black"/>
<path d="M319.34 50.7427C340.515 50.7427 357.68 47.8416 357.68 44.2628C357.68 40.684 340.515 37.7827 319.34 37.7827C298.165 37.7827 281 40.684 281 44.2628C281 47.8416 298.165 50.7427 319.34 50.7427Z" fill="#3498DB"/>
<path d="M335.19 33.6626C336.937 32.2324 338.213 30.3087 338.85 28.1426C339.32 25.9526 338.39 23.3326 336.29 22.5226C333.95 21.6326 331.44 23.2526 329.54 24.9026C327.64 26.5526 325.46 28.4126 322.97 28.0626C324.248 26.9031 325.204 25.4327 325.746 23.7943C326.287 22.1559 326.395 20.4053 326.06 18.7126C325.954 18.0122 325.656 17.3547 325.2 16.8126C323.9 15.4226 321.54 16.0126 319.98 17.1126C314.98 20.6026 313.64 27.3326 313.61 33.4026C313.11 31.2126 313.53 28.9326 313.52 26.6926C313.51 24.4526 312.89 21.9626 311 20.7526C309.821 20.1217 308.497 19.8114 307.16 19.8526C304.93 19.7726 302.45 19.9926 300.92 21.6226C299.03 23.6226 299.52 27.0526 301.17 29.2826C302.82 31.5126 305.32 32.9026 307.62 34.4426C309.467 35.5457 311.042 37.0494 312.23 38.8426C312.371 39.093 312.485 39.3578 312.57 39.6326H326.57C329.701 38.0429 332.601 36.0345 335.19 33.6626Z" fill="#3498DB"/>
<path opacity="0.1" d="M269 45.5621C269 45.5621 287.932 45.122 291.852 43.8801C295.771 42.6383 269 45.5621 269 45.5621Z" fill="black"/>
<path opacity="0.1" d="M190.71 54.5765C190.71 54.5765 173.92 50.4255 171.371 55.0756C168.822 59.7257 190.71 54.5765 190.71 54.5765Z" fill="black"/>
<path d="M149.192 59.8525C150.177 60.0146 151.766 60.0211 153.808 59.8714C155.381 59.5373 156.894 59.2451 157.665 59.1781C159.684 59.0034 169.582 56.9247 172.476 55.9051C173.739 55.5196 175.262 55.1379 176.877 54.8015C177.498 53.894 178.917 50.3573 159.784 54.2458C138.088 58.654 149.192 59.8525 149.192 59.8525Z" fill="#5F5D7E"/>
</svg>
