<?xml version="1.0" encoding="iso-8859-1"?>
<!-- Generator: Adobe Illustrator 19.0.0, SVG Export Plug-In . SVG Version: 6.00 Build 0)  -->
<svg version="1.1" id="Capa_1" xmlns="http://www.w3.org/2000/svg" xmlns:xlink="http://www.w3.org/1999/xlink" x="0px" y="0px"
	 viewBox="0 0 512 512" style="enable-background:new 0 0 512 512;" xml:space="preserve">
<g>
	<g>
		<g>
			<path d="M114.759,229.517v35.31c-0.003,9.366,3.717,18.348,10.339,24.971c6.623,6.623,15.605,10.342,24.971,10.339h31.779
				c-3.002-5.745-5.712-11.638-8.121-17.655h-23.658c-9.739-0.029-17.627-7.916-17.655-17.655v-35.31h17.655v-70.621h-17.655
				v-17.655c0-68.255,55.331-123.586,123.586-123.586s123.586,55.331,123.586,123.586v17.655h-17.655v70.621h35.31
				c4.869-0.015,8.813-3.958,8.828-8.828v-52.966c-0.015-4.869-3.958-8.813-8.828-8.828v-17.655C397.241,63.236,334.005,0,256,0
				S114.759,63.236,114.759,141.241v17.655c-4.869,0.015-8.813,3.958-8.828,8.828v52.966
				C105.946,225.559,109.889,229.503,114.759,229.517z"/>
			<path d="M441.379,493.992c0.072-23.516-13.203-45.037-34.251-55.526l-76.006-42.284c-13.683-6.988-22.256-21.094-22.157-36.458
				V338.45c-0.016-3.837,1.258-7.568,3.619-10.593c4.65-6.232,8.953-12.715,12.888-19.421c0.794-1.236,1.589-2.648,2.383-4.061
				s1.501-2.825,2.295-4.237c3.002-5.745,5.712-11.638,8.121-17.655c2.475-6.076,4.482-12.332,6.003-18.714V141.241
				c-0.015-0.385,0.015-0.77,0.088-1.148c1.176-16.123-3.951-32.073-14.301-44.491C315.41,79.007,290.516,70.621,256,70.621
				c-34.604,0-59.586,8.474-74.24,25.159c-10.317,12.359-15.386,28.265-14.124,44.315c0.073,0.378,0.103,0.763,0.088,1.148v122.527
				c1.591,6.373,3.626,12.626,6.091,18.714h48.552c3.693-10.546,13.632-17.619,24.806-17.655h26.483
				c11.195,0.033,21.161,7.101,24.894,17.655c2.119,5.694,2.119,11.961,0,17.655c-0.4,1.316-0.932,2.588-1.589,3.796
				c-0.546,1.015-1.165,1.989-1.854,2.913c-5.001,6.854-12.966,10.919-21.451,10.946h-26.483
				c-8.798-0.029-17.018-4.387-21.981-11.652c-1.233-1.863-2.213-3.881-2.913-6.003h-40.342c1.501,2.913,3.09,5.738,4.59,8.298
				c3.881,6.74,8.186,13.226,12.888,19.421c2.361,3.025,3.636,6.756,3.619,10.593v20.392c0.029,15.04-8.213,28.878-21.451,36.017
				l-78.654,42.99c-19.957,10.798-32.369,31.687-32.309,54.378l0,19.774H441.38L441.379,493.992z"/>
		</g>
	</g>
</g>
<g>
</g>
<g>
</g>
<g>
</g>
<g>
</g>
<g>
</g>
<g>
</g>
<g>
</g>
<g>
</g>
<g>
</g>
<g>
</g>
<g>
</g>
<g>
</g>
<g>
</g>
<g>
</g>
<g>
</g>
</svg>
