<?xml version="1.0" encoding="UTF-8"?>
<!DOCTYPE svg PUBLIC "-//W3C//DTD SVG 1.1//EN" "http://www.w3.org/Graphics/SVG/1.1/DTD/svg11.dtd">
<!-- Creator: CorelDRAW X7 -->
<svg xmlns="http://www.w3.org/2000/svg" xml:space="preserve" width="24px" height="24px" version="1.1" style="shape-rendering:geometricPrecision; text-rendering:geometricPrecision; image-rendering:optimizeQuality; fill-rule:evenodd; clip-rule:evenodd"
viewBox="0 0 24 24"
 xmlns:xlink="http://www.w3.org/1999/xlink">
 <defs>
  <style type="text/css">
   <![CDATA[
    .fil0 {fill:none}
    .fil4 {fill:#FEFEFE}
    .fil3 {fill:#201E1E}
    .fil2 {fill:black}
    .fil1 {fill:black;fill-rule:nonzero}
   ]]>
  </style>
 </defs>
 <g id="Layer_x0020_1">
  <metadata id="CorelCorpID_0Corel-Layer"/>
  <g id="_2434090121584">
   <rect class="fil0" width="24" height="24"/>
   <rect class="fil0" x="2" y="2" width="20" height="20"/>
   <path class="fil1" d="M6 5l3 0 0 1 -3 0c0,0 0,0 0,0 0,0 0,0 0,1l0 13c0,0 0,0 0,0 0,0 0,0 0,0l11 0c1,0 1,0 1,0 0,0 0,0 0,0l0 -13c0,-1 0,-1 0,-1 0,0 0,0 -1,0l-2 0 0 -1 2 0c1,0 1,0 2,0 0,1 0,1 0,2l0 13c0,0 0,0 0,1 -1,0 -1,0 -2,0l-11 0c0,0 0,0 -1,0 0,-1 0,-1 0,-1l0 -13c0,-1 0,-1 0,-2 1,0 1,0 1,0z"/>
   <rect class="fil2" x="12" y="8" width="4.99685" height="0.99685" rx="2" ry="1"/>
   <path class="fil2" d="M8 10l2 -2c0,0 1,0 1,0l0 0c0,0 0,1 0,1l-2 2c0,0 -1,0 -1,0l0 0c0,0 0,0 -1,-1 0,0 0,0 0,0l0 0c0,-1 1,-1 1,-1l0 1z"/>
   <rect class="fil2" x="12" y="10" width="3.00315" height="0.99685" rx="1" ry="1"/>
   <circle class="fil3" cx="16" cy="10" r="1"/>
   <path class="fil1" d="M8 12l0 0 1 0c0,0 1,0 1,0l0 0 0 2c0,0 -1,0 -1,0l0 0 -1 0c-1,0 -1,0 -1,0l0 0 0 -2c0,0 0,0 1,0zm1 1l-1 0 0 0 1 0 0 0z"/>
   <path class="fil1" d="M7 16l1 0 1 0c0,0 1,1 1,1l0 0 0 2c0,0 -1,0 -1,0l0 0 -2 0c0,0 0,0 0,0l0 -1 0 -1c0,0 0,-1 0,-1zm2 1l-1 0 0 1 1 0 0 -1z"/>
   <rect class="fil2" x="12" y="12" width="4.99685" height="0.99685" rx="2" ry="1"/>
   <rect class="fil2" x="12" y="14" width="3.00315" height="0.99685" rx="1" ry="1"/>
   <circle class="fil3" cx="16" cy="14" r="1"/>
   <rect class="fil2" x="12" y="16" width="4.99685" height="0.99685" rx="2" ry="1"/>
   <rect class="fil2" x="12" y="18" width="3.00315" height="0.99685" rx="1" ry="1"/>
   <circle class="fil3" cx="16" cy="18" r="1"/>
   <path class="fil1" d="M10 4l4 0c0,0 0,0 1,0l0 0c0,1 0,1 0,1l0 1c0,0 0,0 0,1l0 0c-1,0 -1,0 -1,0l-4 0c0,0 0,0 -1,0 0,-1 0,-1 0,-1l0 -1c0,0 0,0 0,-1 1,0 1,0 1,0zm4 1l-4 0c0,0 0,0 0,0 0,0 0,0 0,0l0 1c0,0 0,0 0,0 0,0 0,0 0,0l4 0c0,0 0,0 0,0 0,0 0,0 0,0l0 -1c0,0 0,0 0,0 0,0 0,0 0,0z"/>
   <circle class="fil4" cx="12" cy="4" r="1"/>
   <path class="fil1" d="M12 3c0,0 1,0 1,0l0 0c0,1 0,1 0,1 0,1 0,1 0,1 0,1 -1,1 -1,1 0,0 -1,0 -1,-1l0 0c0,0 0,0 0,-1 0,0 0,0 0,-1 0,0 1,0 1,0zm0 1c0,0 0,0 0,0 0,0 0,0 0,0 0,0 0,0 0,0 0,0 0,1 0,1 0,0 0,0 0,0 0,0 0,0 0,0 0,0 0,-1 0,-1 0,0 0,0 0,0l0 0z"/>
  </g>
 </g>
</svg>
