<svg width="16" height="16" viewBox="0 0 16 16" fill="none" xmlns="http://www.w3.org/2000/svg">
<g clip-path="url(#clip0)">
<path d="M15.6413 12.6271L13.1703 10.1559C12.6782 9.66568 11.8631 9.68057 11.3538 10.1901L10.109 11.4347C10.0303 11.3913 9.9489 11.346 9.86331 11.298C9.07718 10.8624 8.00123 10.2654 6.86903 9.13237C5.73346 7.99694 5.13589 6.91934 4.69898 6.13271C4.65287 6.04938 4.6087 5.96903 4.56507 5.89272L5.40057 5.05847L5.81133 4.6472C6.32142 4.13697 6.33549 3.32216 5.84447 2.83055L3.37352 0.359048C2.8825 -0.131877 2.0671 -0.116984 1.557 0.393248L0.860607 1.09364L0.879637 1.11254C0.646126 1.41049 0.450997 1.75414 0.305787 2.12473C0.171932 2.47748 0.0885941 2.81409 0.0504876 3.1514C-0.275785 5.85627 0.960263 8.32832 4.31474 11.6828C8.95164 16.3194 12.6884 15.9692 12.8496 15.9521C13.2007 15.9101 13.5372 15.8262 13.8791 15.6934C14.2465 15.5499 14.5899 15.355 14.8877 15.122L14.9029 15.1355L15.6084 14.4447C16.1174 13.9346 16.1321 13.1195 15.6413 12.6271Z" fill="white"/>
</g>
<defs>
<clipPath id="clip0">
<rect width="16" height="16" fill="white"/>
</clipPath>
</defs>
</svg>
