<svg width="1366" height="594" viewBox="0 0 1366 594" fill="none" xmlns="http://www.w3.org/2000/svg">
<path d="M164.461 299.987C164.461 285.668 161.649 271.489 156.185 258.26C150.72 245.032 142.711 233.011 132.614 222.886C122.517 212.761 110.531 204.729 97.3395 199.249C84.1483 193.77 70.009 190.949 55.7305 190.949C41.452 190.949 27.3127 193.77 14.1215 199.249C0.930347 204.729 -11.0561 212.761 -21.1528 222.886C-31.2495 233.011 -39.2586 245.032 -44.7234 258.26C-50.1882 271.489 -53 285.668 -53 299.987H55.7305H164.461Z" fill="#00618C"/>
<path d="M-53 195.075C-38.6828 195.075 -24.5052 192.262 -11.2782 186.798C1.9487 181.333 13.9676 173.323 24.0917 163.225C34.2158 153.127 42.2466 141.14 47.7262 127.947C53.2058 114.753 56.0252 100.613 56.0252 86.3325C56.0252 72.0522 53.2058 57.9117 47.7262 44.7184C42.2466 31.5251 34.2158 19.5375 24.0917 9.43991C13.9676 -0.657932 1.9487 -8.66778 -11.2782 -14.1326C-24.5052 -19.5974 -38.6828 -22.4102 -53 -22.4102V86.3325V195.075Z" fill="#005073"/>
<path d="M186.267 565.801C171.95 565.801 157.773 562.982 144.546 557.502C131.319 552.021 119.3 543.99 109.176 533.864C99.0516 523.739 91.0208 511.719 85.5412 498.491C80.0616 485.262 77.2422 471.083 77.2422 456.764H186.267V565.801Z" fill="#005073"/>
<path d="M-53 325.33C-38.6828 325.33 -24.5052 328.15 -11.2782 333.63C1.9487 339.11 13.9676 347.142 24.0917 357.267C34.2158 367.392 42.2466 379.413 47.7262 392.641C53.2058 405.869 56.0252 420.049 56.0252 434.367H-53V325.33Z" fill="#005073"/>
<path d="M77.2422 87.216C77.2422 72.897 80.0616 58.7183 85.5412 45.4892C91.0208 32.2601 99.0516 20.2401 109.176 10.1151C119.3 -0.0101147 131.319 -8.04168 144.546 -13.5213C157.773 -19.001 171.95 -21.8213 186.267 -21.8213V87.216H77.2422Z" fill="#00618C"/>
<path d="M-53 511.283C-53 481.173 -28.5936 456.764 1.5126 456.764H56.0252V565.801H1.5126C-28.5936 565.801 -53 541.392 -53 511.283Z" fill="#00618C"/>
<path d="M77.2422 380.438C77.2422 410.548 101.649 434.957 131.755 434.957H186.267V325.919H131.755C101.649 325.919 77.2422 350.329 77.2422 380.438Z" fill="#048ECB"/>
<path d="M142.952 195.075C166.875 195.075 186.268 175.68 186.268 151.755C186.268 127.83 166.875 108.435 142.952 108.435C119.03 108.435 99.6367 127.83 99.6367 151.755C99.6367 175.68 119.03 195.075 142.952 195.075Z" fill="#00618C"/>
<path d="M1186.35 87.216C1193.47 87.216 1200.52 85.806 1207.1 83.0661C1213.68 80.3262 1219.65 76.3103 1224.69 71.248C1229.72 66.1854 1233.72 60.1752 1236.44 53.5608C1239.17 46.9462 1240.57 39.8568 1240.57 32.6974C1240.57 25.538 1239.17 18.4486 1236.44 11.834C1233.72 5.21953 1229.72 -0.790627 1224.69 -5.85314C1219.65 -10.9157 1213.68 -14.9315 1207.1 -17.6713C1200.52 -20.4111 1193.47 -21.8213 1186.35 -21.8213V32.6974V87.216Z" fill="#00618C"/>
<path d="M1404.4 -22.4102C1390.08 -22.4102 1375.91 -19.5974 1362.68 -14.1326C1349.45 -8.66778 1337.43 -0.657932 1327.31 9.43991C1317.18 19.5375 1309.15 31.5251 1303.67 44.7184C1298.2 57.9117 1295.38 72.0522 1295.38 86.3325C1295.38 100.613 1298.2 114.753 1303.67 127.947C1309.15 141.14 1317.18 153.127 1327.31 163.225C1337.43 173.323 1349.45 181.333 1362.68 186.798C1375.91 192.262 1390.08 195.075 1404.4 195.075V86.3325V-22.4102Z" fill="#3498DB"/>
<path d="M1295.38 456.175C1295.38 441.856 1298.2 427.677 1303.67 414.449C1309.15 401.22 1317.18 389.2 1327.31 379.075C1337.43 368.95 1349.45 360.918 1362.68 355.438C1375.91 349.957 1390.08 347.138 1404.4 347.138V456.175H1295.38Z" fill="#3498DB"/>
<path d="M1186.35 217.472C1200.67 217.472 1214.85 220.284 1228.07 225.749C1241.3 231.215 1253.32 239.225 1263.44 249.322C1273.57 259.42 1281.6 271.408 1287.08 284.601C1292.56 297.793 1295.38 311.934 1295.38 326.214C1295.38 340.494 1292.56 354.635 1287.08 367.828C1281.6 381.021 1273.57 393.008 1263.44 403.106C1253.32 413.204 1241.3 421.214 1228.07 426.679C1214.85 432.145 1200.67 434.957 1186.35 434.957V326.214V217.472Z" fill="#00618C"/>
<path d="M1316.59 216.882C1316.59 231.201 1319.41 245.38 1324.87 258.608C1330.33 271.837 1338.34 283.857 1348.44 293.982C1358.54 304.107 1370.52 312.139 1383.71 317.619C1396.91 323.099 1411.05 325.919 1425.32 325.919C1439.6 325.919 1453.74 323.099 1466.93 317.619C1480.12 312.139 1492.11 304.107 1502.21 293.982C1512.3 283.857 1520.31 271.837 1525.78 258.608C1531.24 245.38 1534.05 231.201 1534.05 216.882H1425.32H1316.59Z" fill="#00618C"/>
<path d="M1295.38 511.283C1295.38 541.392 1270.97 565.801 1240.86 565.801H1186.35V456.764H1240.86C1270.97 456.764 1295.38 481.173 1295.38 511.283Z" fill="#005073"/>
<path d="M1229.67 195.075C1253.59 195.075 1272.98 175.68 1272.98 151.755C1272.98 127.83 1253.59 108.435 1229.67 108.435C1205.74 108.435 1186.35 127.83 1186.35 151.755C1186.35 175.68 1205.74 195.075 1229.67 195.075Z" fill="#3498DB"/>
<path d="M1359.91 565.802C1383.83 565.802 1403.22 546.406 1403.22 522.481C1403.22 498.556 1383.83 479.161 1359.91 479.161C1335.99 479.161 1316.59 498.556 1316.59 522.481C1316.59 546.406 1335.99 565.802 1359.91 565.802Z" fill="#00618C"/>
<path d="M555.771 347.138C555.771 361.457 552.952 375.636 547.472 388.865C541.993 402.094 533.962 414.114 523.838 424.239C513.714 434.364 501.695 442.395 488.468 447.875C475.241 453.355 461.063 456.175 446.746 456.175V347.138H555.771Z" fill="#00618C"/>
<path d="M904.066 477.982C896.946 477.982 889.895 476.572 883.317 473.832C876.74 471.092 870.763 467.076 865.727 462.014C860.693 456.951 856.699 450.941 853.975 444.327C851.251 437.712 849.848 430.623 849.848 423.464C849.848 416.304 851.251 409.215 853.975 402.6C856.699 395.986 860.693 389.976 865.727 384.913C870.763 379.851 876.74 375.835 883.317 373.095C889.895 370.355 896.946 368.945 904.066 368.945V477.982Z" fill="#3498DB"/>
<path d="M664.8 86.0373C657.68 86.0373 650.63 84.6264 644.052 81.8874C637.474 79.1484 631.497 75.1314 626.461 70.0699C621.428 65.0062 617.433 58.9961 614.709 52.3819C611.985 45.7677 610.582 38.6781 610.582 31.5187C610.582 24.3593 611.985 17.2697 614.709 10.6555C617.433 4.04126 621.428 -1.96888 626.461 -7.03257C631.497 -12.0941 637.474 -16.111 644.052 -18.85C650.63 -21.5891 657.68 -23 664.8 -23V86.0373Z" fill="#00618C"/>
<path d="M207.48 455.585C214.6 455.585 221.651 456.996 228.229 459.735C234.807 462.475 240.784 466.491 245.818 471.554C250.853 476.616 254.847 482.626 257.571 489.241C260.296 495.855 261.698 502.945 261.698 510.104C261.698 517.264 260.296 524.353 257.571 530.968C254.847 537.582 250.853 543.592 245.818 548.655C240.784 553.717 234.807 557.733 228.229 560.473C221.651 563.213 214.6 564.623 207.48 564.623V455.585Z" fill="#00618C"/>
<path d="M425.533 564.623C411.216 564.623 397.038 561.81 383.811 556.345C370.583 550.881 358.565 542.871 348.441 532.773C338.317 522.675 330.286 510.688 324.807 497.494C319.328 484.301 316.508 470.161 316.508 455.88C316.508 441.6 319.328 427.46 324.807 414.266C330.286 401.073 338.317 389.085 348.441 378.988C358.565 368.89 370.583 360.88 383.811 355.415C397.038 349.95 411.216 347.138 425.533 347.138V564.623Z" fill="#00618C"/>
<path d="M316.508 86.0371H425.533V195.074C411.216 195.074 397.038 192.255 383.811 186.775C370.583 181.294 358.565 173.263 348.441 163.137C338.317 153.012 330.286 140.992 324.807 127.764C319.328 114.535 316.508 100.356 316.508 86.0371Z" fill="#3498DB"/>
<path d="M446.746 -22.4102C461.063 -22.4102 475.241 -19.5981 488.468 -14.1327C501.695 -8.66726 513.714 -0.65728 523.838 9.44056C533.962 19.5384 541.993 31.5262 547.472 44.7188C552.952 57.9115 555.771 72.0524 555.771 86.3325C555.771 100.613 552.952 114.753 547.472 127.946C541.993 141.139 533.962 153.127 523.838 163.224C513.714 173.322 501.695 181.332 488.468 186.798C475.241 192.263 461.063 195.075 446.746 195.075V-22.4102Z" fill="#005073"/>
<path d="M686.602 564.623C686.602 550.304 689.413 536.125 694.878 522.896C700.343 509.667 708.352 497.647 718.449 487.522C728.545 477.397 740.532 469.365 753.723 463.885C766.914 458.406 781.054 455.585 795.332 455.585C809.611 455.585 823.75 458.406 836.941 463.885C850.132 469.365 862.119 477.397 872.216 487.522C882.312 497.647 890.321 509.667 895.786 522.896C901.251 536.125 904.063 550.304 904.063 564.623H686.602Z" fill="#048ECB"/>
<path d="M1142.74 242.226C1142.74 256.544 1139.93 270.724 1134.47 283.952C1129 297.18 1120.99 309.201 1110.9 319.326C1100.8 329.451 1088.81 337.483 1075.62 342.963C1062.43 348.443 1048.29 351.263 1034.01 351.263C1019.73 351.263 1005.59 348.443 992.403 342.963C979.212 337.483 967.225 329.451 957.128 319.326C947.032 309.201 939.023 297.18 933.558 283.952C928.093 270.724 925.281 256.544 925.281 242.226H1142.74Z" fill="#00618C"/>
<path d="M925.281 347.138C939.598 347.138 953.776 349.95 967.003 355.415C980.23 360.88 992.249 368.89 1002.37 378.988C1012.5 389.085 1020.53 401.073 1026.01 414.266C1031.49 427.46 1034.31 441.6 1034.31 455.88C1034.31 470.161 1031.49 484.301 1026.01 497.494C1020.53 510.688 1012.5 522.675 1002.37 532.773C992.249 542.871 980.23 550.881 967.003 556.345C953.776 561.81 939.598 564.623 925.281 564.623V347.138Z" fill="#005073"/>
<path d="M816.844 216.293C816.844 201.974 819.656 187.795 825.12 174.567C830.585 161.338 838.594 149.318 848.691 139.193C858.788 129.068 870.774 121.036 883.965 115.556C897.157 110.076 911.296 107.256 925.574 107.256C939.853 107.256 953.992 110.076 967.183 115.556C980.375 121.036 992.361 129.068 1002.46 139.193C1012.55 149.318 1020.56 161.338 1026.03 174.567C1031.49 187.795 1034.3 201.974 1034.3 216.293H816.844Z" fill="#048ECB"/>
<path d="M904.063 -23C904.063 -8.68122 901.251 5.498 895.786 18.7264C890.321 31.9548 882.312 43.9751 872.216 54.1003C862.119 64.2255 850.132 72.2572 836.941 77.7374C823.75 83.2176 809.611 86.0373 795.332 86.0373C781.054 86.0373 766.914 83.2176 753.723 77.7374C740.532 72.2572 728.545 64.2255 718.449 54.1003C708.352 43.9751 700.343 31.9548 694.878 18.7264C689.413 5.498 686.602 -8.68122 686.602 -23H904.063Z" fill="#005073"/>
<path d="M664.799 324.741C650.481 324.741 636.304 321.929 623.077 316.464C609.85 310.998 597.831 302.988 587.707 292.89C577.583 282.793 569.552 270.805 564.072 257.612C558.593 244.419 555.773 230.279 555.773 215.998C555.773 201.718 558.593 187.578 564.072 174.385C569.552 161.192 577.583 149.204 587.707 139.107C597.831 129.009 609.85 120.999 623.077 115.533C636.304 110.068 650.481 107.256 664.799 107.256V324.741Z" fill="#3498DB"/>
<path d="M207.48 324.741V107.256C221.798 107.256 235.975 110.068 249.203 115.533C262.43 120.999 274.449 129.009 284.573 139.107C294.697 149.204 302.728 161.192 308.207 174.385C313.686 187.578 316.506 201.718 316.506 215.998C316.506 230.279 313.686 244.419 308.207 257.612C302.728 270.805 294.697 282.793 284.573 292.89C274.449 302.988 262.43 310.998 249.203 316.464C235.975 321.929 221.798 324.741 207.48 324.741Z" fill="#00618C"/>
<path d="M337.723 325.33C337.723 311.012 340.535 296.832 345.999 283.604C351.464 270.376 359.472 258.355 369.569 248.23C379.666 238.105 391.652 230.073 404.844 224.593C418.036 219.113 432.175 216.293 446.453 216.293C460.732 216.293 474.871 219.113 488.062 224.593C501.253 230.073 513.24 238.105 523.337 248.23C533.433 258.355 541.442 270.376 546.907 283.604C552.372 296.832 555.184 311.012 555.184 325.33H337.723Z" fill="#3498DB"/>
<path d="M795.039 347.138C795.039 361.457 792.227 375.636 786.763 388.865C781.298 402.094 773.289 414.114 763.192 424.239C753.095 434.364 741.109 442.395 727.918 447.875C714.726 453.355 700.587 456.175 686.309 456.175C672.03 456.175 657.891 453.355 644.7 447.875C631.509 442.395 619.522 434.364 609.425 424.239C599.329 414.114 591.32 402.094 585.855 388.865C580.39 375.636 577.578 361.457 577.578 347.138H795.039Z" fill="#005073"/>
<path d="M795.041 216.293H686.016V107.256C700.333 107.256 714.51 110.076 727.737 115.556C740.964 121.036 752.983 129.068 763.107 139.193C773.231 149.318 781.262 161.338 786.742 174.567C792.221 187.795 795.041 201.974 795.041 216.293Z" fill="#3498DB"/>
<path d="M1164.54 -23V86.0373H1055.52C1055.52 71.7186 1058.34 57.5393 1063.82 44.3109C1069.3 31.0825 1077.33 19.0622 1087.45 8.93703C1097.58 -1.18817 1109.6 -9.21986 1122.82 -14.7001C1136.05 -20.1803 1150.23 -23 1164.54 -23Z" fill="#3498DB"/>
<path d="M795.039 238.101H904.064V347.138C889.747 347.138 875.569 344.318 862.342 338.838C849.116 333.358 837.097 325.326 826.973 315.201C816.848 305.076 808.818 293.055 803.338 279.827C797.858 266.599 795.039 252.419 795.039 238.101Z" fill="#3498DB"/>
<path d="M1055.52 455.585H1164.54V564.623C1150.23 564.623 1136.05 561.802 1122.82 556.323C1109.6 550.843 1097.58 542.812 1087.45 532.686C1077.33 522.561 1069.3 510.541 1063.82 497.312C1058.34 484.083 1055.52 469.904 1055.52 455.585Z" fill="#00618C"/>
<path d="M610.286 455.585C640.392 455.585 664.799 479.994 664.799 510.104V564.623H555.773V510.104C555.773 479.994 580.18 455.585 610.286 455.585Z" fill="#00618C"/>
<path d="M316.506 31.5187C316.506 61.6282 292.1 86.0373 261.993 86.0373H207.48V-23H261.993C292.1 -23 316.506 1.4091 316.506 31.5187Z" fill="#048ECB"/>
<path d="M925.281 31.5187C925.281 1.4091 949.688 -23 979.794 -23H1034.31V86.0373H979.794C949.688 86.0373 925.281 61.6282 925.281 31.5187Z" fill="#048ECB"/>
<path d="M1055.52 161.775C1055.52 131.665 1079.93 107.256 1110.03 107.256H1164.54V216.293H1110.03C1079.93 216.293 1055.52 191.884 1055.52 161.775Z" fill="#00618C"/>
<path d="M490.061 477.982C513.984 477.982 533.377 497.378 533.377 521.303C533.377 545.228 513.984 564.623 490.061 564.623C466.139 564.623 446.746 545.228 446.746 521.303C446.746 497.378 466.139 477.982 490.061 477.982Z" fill="#3498DB"/>
<path d="M250.796 347.727C274.718 347.727 294.111 367.122 294.111 391.047C294.111 414.972 274.718 434.368 250.796 434.368C226.873 434.368 207.48 414.972 207.48 391.047C207.48 367.122 226.873 347.727 250.796 347.727Z" fill="#00618C"/>
<path d="M381.038 -23C404.961 -23 424.354 -3.60487 424.354 20.3202C424.354 44.2453 404.961 63.6405 381.038 63.6405C357.116 63.6405 337.723 44.2453 337.723 20.3202C337.723 -3.60487 357.116 -23 381.038 -23Z" fill="#3498DB"/>
<path d="M729.917 238.689C753.839 238.689 773.232 258.085 773.232 282.01C773.232 305.935 753.839 325.33 729.917 325.33C705.995 325.33 686.602 305.935 686.602 282.01C686.602 258.085 705.995 238.689 729.917 238.689Z" fill="#00618C"/>
<path d="M1121.23 347.727C1145.15 347.727 1164.54 367.122 1164.54 391.047C1164.54 414.972 1145.15 434.368 1121.23 434.368C1097.31 434.368 1077.91 414.972 1077.91 391.047C1077.91 367.122 1097.31 347.727 1121.23 347.727Z" fill="#00618C"/>
<path d="M404.316 698.414C397.196 698.414 390.145 697.003 383.567 694.264C376.99 691.525 371.013 687.508 365.977 682.447C360.943 677.383 356.949 671.373 354.225 664.759C351.501 658.145 350.098 651.055 350.098 643.896C350.098 636.736 351.501 629.647 354.225 623.032C356.949 616.418 360.943 610.408 365.977 605.344C371.013 600.283 376.99 596.266 383.567 593.527C390.145 590.788 397.196 589.377 404.316 589.377V698.414Z" fill="#3498DB"/>
<path d="M186.266 589.377C200.583 589.377 214.76 592.189 227.987 597.654C241.214 603.12 253.233 611.13 263.357 621.228C273.481 631.326 281.512 643.313 286.992 656.506C292.471 669.699 295.291 683.84 295.291 698.12C295.291 712.4 292.471 726.541 286.992 739.733C281.512 752.926 273.481 764.914 263.357 775.012C253.233 785.109 241.214 793.119 227.987 798.585C214.76 804.05 200.583 806.862 186.266 806.862V589.377Z" fill="#00618C"/>
<path d="M643.582 589.377C643.582 603.696 640.77 617.875 635.306 631.103C629.841 644.332 621.832 656.352 611.735 666.477C601.638 676.602 589.652 684.634 576.461 690.114C563.269 695.595 549.13 698.414 534.852 698.414C520.573 698.414 506.434 695.595 493.243 690.114C480.051 684.634 468.065 676.602 457.968 666.477C447.872 656.352 439.862 644.332 434.398 631.103C428.933 617.875 426.121 603.696 426.121 589.377H643.582Z" fill="#00618C"/>
<path d="M904.064 589.377V698.414H795.039C795.039 684.096 797.858 669.916 803.338 656.688C808.818 643.459 816.848 631.439 826.973 621.314C837.097 611.189 849.116 603.157 862.342 597.677C875.569 592.197 889.747 589.377 904.064 589.377Z" fill="#3498DB"/>
<path d="M56.0252 643.896C56.0252 674.005 31.619 698.414 1.5126 698.414H-53V589.377H1.5126C31.619 589.377 56.0252 613.786 56.0252 643.896Z" fill="#048ECB"/>
<path d="M664.797 643.896C664.797 613.786 689.203 589.377 719.31 589.377H773.822V698.414H719.31C689.203 698.414 664.797 674.005 664.797 643.896Z" fill="#3498DB"/>
<path d="M120.558 589.377C144.48 589.377 163.873 608.772 163.873 632.697C163.873 656.622 144.48 676.017 120.558 676.017C96.6352 676.017 77.2422 656.622 77.2422 632.697C77.2422 608.772 96.6352 589.377 120.558 589.377Z" fill="#3498DB"/>
<path d="M1405.58 589.377C1405.58 603.696 1402.77 617.875 1397.31 631.104C1391.84 644.333 1383.83 656.353 1373.73 666.478C1363.64 676.603 1351.65 684.635 1338.46 690.114C1325.27 695.594 1311.13 698.414 1296.85 698.414C1282.57 698.414 1268.43 695.594 1255.24 690.114C1242.05 684.635 1230.06 676.603 1219.97 666.478C1209.87 656.353 1201.86 644.333 1196.4 631.104C1190.93 617.875 1188.12 603.696 1188.12 589.377H1405.58Z" fill="#3498DB"/>
<path d="M1166.9 806.862C1152.59 806.862 1138.41 804.049 1125.18 798.585C1111.96 793.12 1099.94 785.11 1089.81 775.012C1079.69 764.915 1071.66 752.927 1066.18 739.734C1060.7 726.54 1057.88 712.4 1057.88 698.12C1057.88 683.839 1060.7 669.699 1066.18 656.506C1071.66 643.312 1079.69 631.325 1089.81 621.227C1099.94 611.129 1111.96 603.119 1125.18 597.654C1138.41 592.19 1152.59 589.377 1166.9 589.377V806.862Z" fill="#048ECB"/>
<path d="M1036.66 698.414H927.637V589.377C941.954 589.377 956.132 592.197 969.358 597.677C982.585 603.157 994.604 611.188 1004.73 621.313C1014.85 631.438 1022.88 643.458 1028.36 656.687C1033.84 669.917 1036.66 684.095 1036.66 698.414Z" fill="#00618C"/>
</svg>
