<svg width="1591" height="1200" viewBox="0 0 1591 1200" fill="none" xmlns="http://www.w3.org/2000/svg">
<path d="M217.461 322.987C217.461 308.668 214.649 294.489 209.185 281.26C203.72 268.032 195.711 256.011 185.614 245.886C175.517 235.761 163.531 227.729 150.34 222.249C137.148 216.77 123.009 213.949 108.731 213.949C94.452 213.949 80.3127 216.77 67.1215 222.249C53.9303 227.729 41.9439 235.761 31.8472 245.886C21.7505 256.011 13.7414 268.032 8.27657 281.26C2.81177 294.489 0 308.668 0 322.987H108.731H217.461Z" fill="#00618C"/>
<path d="M0 218.075C14.3172 218.075 28.4948 215.262 41.7218 209.798C54.9487 204.333 66.9676 196.323 77.0917 186.225C87.2158 176.127 95.2466 164.14 100.726 150.947C106.206 137.753 109.025 123.613 109.025 109.332C109.025 95.0522 106.206 80.9117 100.726 67.7184C95.2466 54.5251 87.2158 42.5375 77.0917 32.4399C66.9676 22.3421 54.9487 14.3322 41.7218 8.86738C28.4948 3.40256 14.3172 0.589844 0 0.589844V109.332V218.075Z" fill="#005073"/>
<path d="M239.267 588.802C224.95 588.802 210.773 585.982 197.546 580.502C184.319 575.022 172.3 566.99 162.176 556.865C152.052 546.74 144.021 534.719 138.541 521.491C133.062 508.263 130.242 494.083 130.242 479.765H239.267V588.802Z" fill="#005073"/>
<path d="M0 348.33C14.3172 348.33 28.4948 351.15 41.7218 356.63C54.9487 362.11 66.9676 370.142 77.0917 380.267C87.2158 390.392 95.2466 402.413 100.726 415.641C106.206 428.869 109.025 443.049 109.025 457.367H0V348.33Z" fill="#005073"/>
<path d="M130.242 110.216C130.242 95.897 133.062 81.7183 138.541 68.4892C144.021 55.2601 152.052 43.2401 162.176 33.1151C172.3 22.9899 184.319 14.9583 197.546 9.47868C210.773 3.99905 224.95 1.17871 239.267 1.17871V110.216H130.242Z" fill="#00618C"/>
<path d="M0 534.283C0 504.174 24.4064 479.765 54.5126 479.765H109.025V588.802H54.5126C24.4064 588.802 0 564.393 0 534.283Z" fill="#00618C"/>
<path d="M130.242 403.439C130.242 433.548 154.649 457.957 184.755 457.957H239.267V348.92H184.755C154.649 348.92 130.242 373.329 130.242 403.439Z" fill="#048ECB"/>
<path d="M195.952 218.075C219.875 218.075 239.268 198.68 239.268 174.755C239.268 150.83 219.875 131.435 195.952 131.435C172.03 131.435 152.637 150.83 152.637 174.755C152.637 198.68 172.03 218.075 195.952 218.075Z" fill="#00618C"/>
<path d="M1587.64 218.074C1587.64 203.755 1584.82 189.577 1579.34 176.348C1573.86 163.119 1565.83 151.098 1555.71 140.973C1545.58 130.848 1533.57 122.817 1520.34 117.337C1507.11 111.857 1492.93 109.037 1478.62 109.037V218.074H1587.64Z" fill="#3498DB"/>
<path d="M1239.35 110.216C1246.47 110.216 1253.52 108.806 1260.1 106.066C1266.68 103.326 1272.65 99.3103 1277.69 94.248C1282.72 89.1854 1286.72 83.1752 1289.44 76.5608C1292.17 69.9462 1293.57 62.8568 1293.57 55.6974C1293.57 48.538 1292.17 41.4486 1289.44 34.834C1286.72 28.2195 1282.72 22.2094 1277.69 17.1469C1272.65 12.0843 1266.68 8.06852 1260.1 5.32869C1253.52 2.58888 1246.47 1.17871 1239.35 1.17871V55.6974V110.216Z" fill="#00618C"/>
<path d="M1457.4 0.589844C1443.08 0.589844 1428.91 3.40256 1415.68 8.86738C1402.45 14.3322 1390.43 22.3421 1380.31 32.4399C1370.18 42.5375 1362.15 54.5251 1356.67 67.7184C1351.2 80.9117 1348.38 95.0522 1348.38 109.332C1348.38 123.613 1351.2 137.753 1356.67 150.947C1362.15 164.14 1370.18 176.127 1380.31 186.225C1390.43 196.323 1402.45 204.333 1415.68 209.798C1428.91 215.262 1443.08 218.075 1457.4 218.075V109.332V0.589844Z" fill="#3498DB"/>
<path d="M1348.38 479.175C1348.38 464.856 1351.2 450.677 1356.67 437.449C1362.15 424.22 1370.18 412.2 1380.31 402.075C1390.43 391.95 1402.45 383.918 1415.68 378.438C1428.91 372.957 1443.08 370.138 1457.4 370.138V479.175H1348.38Z" fill="#3498DB"/>
<path d="M1478.62 587.623C1492.93 587.623 1507.11 584.811 1520.34 579.345C1533.57 573.88 1545.58 565.87 1555.71 555.772C1565.83 545.674 1573.86 533.687 1579.34 520.494C1584.82 507.301 1587.64 493.16 1587.64 478.88C1587.64 464.6 1584.82 450.459 1579.34 437.267C1573.86 424.074 1565.83 412.086 1555.71 401.988C1545.58 391.891 1533.57 383.881 1520.34 378.415C1507.11 372.95 1492.93 370.138 1478.62 370.138V478.88V587.623Z" fill="#3498DB"/>
<path d="M1239.35 240.472C1253.67 240.472 1267.85 243.284 1281.07 248.749C1294.3 254.215 1306.32 262.225 1316.44 272.322C1326.57 282.42 1334.6 294.408 1340.08 307.601C1345.56 320.793 1348.38 334.934 1348.38 349.214C1348.38 363.494 1345.56 377.635 1340.08 390.828C1334.6 404.021 1326.57 416.008 1316.44 426.106C1306.32 436.204 1294.3 444.214 1281.07 449.679C1267.85 455.145 1253.67 457.957 1239.35 457.957V349.214V240.472Z" fill="#00618C"/>
<path d="M1369.59 239.882C1369.59 254.201 1372.41 268.38 1377.87 281.608C1383.33 294.837 1391.34 306.857 1401.44 316.982C1411.54 327.107 1423.52 335.139 1436.71 340.619C1449.91 346.099 1464.05 348.919 1478.32 348.919C1492.6 348.919 1506.74 346.099 1519.93 340.619C1533.12 335.139 1545.11 327.107 1555.21 316.982C1565.3 306.857 1573.31 294.837 1578.78 281.608C1584.24 268.38 1587.05 254.201 1587.05 239.882H1478.32H1369.59Z" fill="#00618C"/>
<path d="M1348.38 534.283C1348.38 564.393 1323.97 588.802 1293.86 588.802H1239.35V479.765H1293.86C1323.97 479.765 1348.38 504.174 1348.38 534.283Z" fill="#005073"/>
<path d="M1521.93 87.8192C1545.86 87.8192 1565.25 68.424 1565.25 44.4989C1565.25 20.5738 1545.86 1.17871 1521.93 1.17871C1498.01 1.17871 1478.62 20.5738 1478.62 44.4989C1478.62 68.424 1498.01 87.8192 1521.93 87.8192Z" fill="#048ECB"/>
<path d="M1282.67 218.075C1306.59 218.075 1325.98 198.68 1325.98 174.755C1325.98 150.83 1306.59 131.435 1282.67 131.435C1258.74 131.435 1239.35 150.83 1239.35 174.755C1239.35 198.68 1258.74 218.075 1282.67 218.075Z" fill="#3498DB"/>
<path d="M1412.91 588.802C1436.83 588.802 1456.22 569.406 1456.22 545.481C1456.22 521.556 1436.83 502.161 1412.91 502.161C1388.99 502.161 1369.59 521.556 1369.59 545.481C1369.59 569.406 1388.99 588.802 1412.91 588.802Z" fill="#00618C"/>
<path d="M608.771 370.138C608.771 384.457 605.952 398.636 600.472 411.865C594.993 425.094 586.962 437.114 576.838 447.239C566.714 457.364 554.695 465.395 541.468 470.875C528.241 476.355 514.063 479.175 499.746 479.175V370.138H608.771Z" fill="#00618C"/>
<path d="M957.066 500.983C949.946 500.983 942.895 499.573 936.317 496.833C929.74 494.093 923.763 490.077 918.727 485.015C913.693 479.952 909.699 473.942 906.975 467.327C904.251 460.713 902.848 453.623 902.848 446.464C902.848 439.305 904.251 432.215 906.975 425.601C909.699 418.986 913.693 412.976 918.727 407.913C923.763 402.851 929.74 398.835 936.317 396.095C942.895 393.355 949.946 391.945 957.066 391.945V500.983Z" fill="#3498DB"/>
<path d="M717.8 109.037C710.68 109.037 703.63 107.626 697.052 104.887C690.474 102.148 684.497 98.1314 679.461 93.0699C674.428 88.0062 670.433 81.9961 667.709 75.3819C664.985 68.7677 663.582 61.6781 663.582 54.5187C663.582 47.3593 664.985 40.2697 667.709 33.6555C670.433 27.0413 674.428 21.0311 679.461 15.9674C684.497 10.9059 690.474 6.88898 697.052 4.14996C703.63 1.41094 710.68 0 717.8 0V109.037Z" fill="#00618C"/>
<path d="M260.48 478.586C267.6 478.586 274.651 479.996 281.229 482.736C287.807 485.476 293.784 489.492 298.818 494.554C303.853 499.617 307.847 505.627 310.571 512.241C313.296 518.856 314.698 525.945 314.698 533.105C314.698 540.264 313.296 547.353 310.571 553.968C307.847 560.582 303.853 566.593 298.818 571.655C293.784 576.718 287.807 580.733 281.229 583.473C274.651 586.213 267.6 587.623 260.48 587.623V478.586Z" fill="#00618C"/>
<path d="M478.533 587.623C464.216 587.623 450.038 584.81 436.811 579.345C423.583 573.881 411.565 565.871 401.441 555.773C391.317 545.675 383.286 533.688 377.807 520.494C372.328 507.301 369.508 493.161 369.508 478.88C369.508 464.6 372.328 450.46 377.807 437.266C383.286 424.073 391.317 412.085 401.441 401.988C411.565 391.89 423.583 383.88 436.811 378.415C450.038 372.95 464.216 370.138 478.533 370.138V587.623Z" fill="#00618C"/>
<path d="M369.508 109.037H478.533V218.074C464.216 218.074 450.038 215.255 436.811 209.775C423.583 204.294 411.565 196.263 401.441 186.137C391.317 176.012 383.286 163.992 377.807 150.764C372.328 137.535 369.508 123.356 369.508 109.037Z" fill="#3498DB"/>
<path d="M499.746 0.589844C514.063 0.589844 528.241 3.40193 541.468 8.86733C554.695 14.3327 566.714 22.3427 576.838 32.4406C586.962 42.5384 594.993 54.5262 600.472 67.7188C605.952 80.9115 608.771 95.0524 608.771 109.332C608.771 123.613 605.952 137.753 600.472 150.946C594.993 164.139 586.962 176.127 576.838 186.224C566.714 196.322 554.695 204.332 541.468 209.798C528.241 215.263 514.063 218.075 499.746 218.075V0.589844Z" fill="#005073"/>
<path d="M739.602 587.623C739.602 573.304 742.413 559.125 747.878 545.896C753.343 532.667 761.352 520.647 771.449 510.522C781.545 500.397 793.532 492.366 806.723 486.886C819.914 481.406 834.054 478.586 848.332 478.586C862.611 478.586 876.75 481.406 889.941 486.886C903.132 492.366 915.119 500.397 925.216 510.522C935.312 520.647 943.321 532.667 948.786 545.896C954.251 559.125 957.063 573.304 957.063 587.623H739.602Z" fill="#048ECB"/>
<path d="M1195.74 265.226C1195.74 279.544 1192.93 293.724 1187.47 306.952C1182 320.18 1173.99 332.201 1163.9 342.326C1153.8 352.451 1141.81 360.483 1128.62 365.963C1115.43 371.443 1101.29 374.263 1087.01 374.263C1072.73 374.263 1058.59 371.443 1045.4 365.963C1032.21 360.483 1020.23 352.451 1010.13 342.326C1000.03 332.201 992.023 320.18 986.558 306.952C981.093 293.724 978.281 279.544 978.281 265.226H1195.74Z" fill="#00618C"/>
<path d="M978.281 370.138C992.598 370.138 1006.78 372.95 1020 378.415C1033.23 383.88 1045.25 391.89 1055.37 401.988C1065.5 412.085 1073.53 424.073 1079.01 437.266C1084.49 450.46 1087.31 464.6 1087.31 478.88C1087.31 493.161 1084.49 507.301 1079.01 520.494C1073.53 533.688 1065.5 545.675 1055.37 555.773C1045.25 565.871 1033.23 573.881 1020 579.345C1006.78 584.81 992.598 587.623 978.281 587.623V370.138Z" fill="#005073"/>
<path d="M869.844 239.293C869.844 224.974 872.656 210.795 878.12 197.567C883.585 184.338 891.594 172.318 901.691 162.193C911.788 152.068 923.774 144.036 936.965 138.556C950.157 133.076 964.296 130.256 978.574 130.256C992.853 130.256 1006.99 133.076 1020.18 138.556C1033.37 144.036 1045.36 152.068 1055.46 162.193C1065.55 172.318 1073.56 184.338 1079.03 197.567C1084.49 210.795 1087.3 224.974 1087.3 239.293H869.844Z" fill="#048ECB"/>
<path d="M957.063 0C957.063 14.3188 954.251 28.498 948.786 41.7264C943.321 54.9548 935.312 66.9751 925.216 77.1003C915.119 87.2255 903.132 95.2572 889.941 100.737C876.75 106.218 862.611 109.037 848.332 109.037C834.054 109.037 819.914 106.218 806.723 100.737C793.532 95.2572 781.545 87.2255 771.449 77.1003C761.352 66.9751 753.343 54.9548 747.878 41.7264C742.413 28.498 739.602 14.3188 739.602 0H957.063Z" fill="#005073"/>
<path d="M717.799 347.741C703.481 347.741 689.304 344.929 676.077 339.464C662.85 333.998 650.831 325.988 640.707 315.89C630.583 305.793 622.552 293.805 617.072 280.612C611.593 267.419 608.773 253.279 608.773 238.998C608.773 224.718 611.593 210.578 617.072 197.385C622.552 184.192 630.583 172.204 640.707 162.107C650.831 152.009 662.85 143.999 676.077 138.533C689.304 133.068 703.481 130.256 717.799 130.256V347.741Z" fill="#3498DB"/>
<path d="M260.48 347.741V130.256C274.798 130.256 288.975 133.068 302.203 138.533C315.43 143.999 327.449 152.009 337.573 162.107C347.697 172.204 355.728 184.192 361.207 197.385C366.686 210.578 369.506 224.718 369.506 238.998C369.506 253.279 366.686 267.419 361.207 280.612C355.728 293.805 347.697 305.793 337.573 315.89C327.449 325.988 315.43 333.998 302.203 339.464C288.975 344.929 274.798 347.741 260.48 347.741Z" fill="#00618C"/>
<path d="M390.723 348.33C390.723 334.012 393.535 319.832 398.999 306.604C404.464 293.376 412.472 281.355 422.569 271.23C432.666 261.105 444.652 253.073 457.844 247.593C471.036 242.113 485.175 239.293 499.453 239.293C513.732 239.293 527.871 242.113 541.062 247.593C554.253 253.073 566.24 261.105 576.337 271.23C586.433 281.355 594.442 293.376 599.907 306.604C605.372 319.832 608.184 334.012 608.184 348.33H390.723Z" fill="#3498DB"/>
<path d="M848.039 370.138C848.039 384.457 845.227 398.636 839.763 411.865C834.298 425.094 826.289 437.114 816.192 447.239C806.095 457.364 794.109 465.395 780.918 470.875C767.726 476.355 753.587 479.175 739.309 479.175C725.03 479.175 710.891 476.355 697.7 470.875C684.509 465.395 672.522 457.364 662.425 447.239C652.329 437.114 644.32 425.094 638.855 411.865C633.39 398.636 630.578 384.457 630.578 370.138H848.039Z" fill="#005073"/>
<path d="M848.041 239.293H739.016V130.256C753.333 130.256 767.51 133.076 780.737 138.556C793.964 144.036 805.983 152.068 816.107 162.193C826.231 172.318 834.262 184.338 839.742 197.567C845.221 210.795 848.041 224.974 848.041 239.293Z" fill="#3498DB"/>
<path d="M1217.54 0V109.037H1108.52C1108.52 94.7185 1111.34 80.5393 1116.82 67.3109C1122.3 54.0825 1130.33 42.0622 1140.45 31.937C1150.58 21.8118 1162.6 13.7801 1175.82 8.29992C1189.05 2.81971 1203.23 0 1217.54 0Z" fill="#3498DB"/>
<path d="M848.039 261.101H957.064V370.138C942.747 370.138 928.569 367.318 915.342 361.838C902.116 356.358 890.097 348.326 879.973 338.201C869.848 328.076 861.818 316.055 856.338 302.827C850.858 289.599 848.039 275.419 848.039 261.101Z" fill="#3498DB"/>
<path d="M1108.52 478.586H1217.54V587.623C1203.23 587.623 1189.05 584.803 1175.82 579.323C1162.6 573.844 1150.58 565.812 1140.45 555.687C1130.33 545.562 1122.3 533.542 1116.82 520.313C1111.34 507.084 1108.52 492.905 1108.52 478.586Z" fill="#00618C"/>
<path d="M663.286 478.586C693.392 478.586 717.799 502.995 717.799 533.105V587.623H608.773V533.105C608.773 502.995 633.18 478.586 663.286 478.586Z" fill="#00618C"/>
<path d="M369.506 54.5187C369.506 84.6282 345.1 109.037 314.993 109.037H260.48V0H314.993C345.1 0 369.506 24.4091 369.506 54.5187Z" fill="#048ECB"/>
<path d="M978.281 54.5187C978.281 24.4091 1002.69 0 1032.79 0H1087.31V109.037H1032.79C1002.69 109.037 978.281 84.6282 978.281 54.5187Z" fill="#048ECB"/>
<path d="M1108.52 184.775C1108.52 154.665 1132.93 130.256 1163.03 130.256H1217.54V239.293H1163.03C1132.93 239.293 1108.52 214.884 1108.52 184.775Z" fill="#00618C"/>
<path d="M543.061 500.982C566.984 500.982 586.377 520.378 586.377 544.303C586.377 568.228 566.984 587.623 543.061 587.623C519.139 587.623 499.746 568.228 499.746 544.303C499.746 520.378 519.139 500.982 543.061 500.982Z" fill="#3498DB"/>
<path d="M303.796 370.727C327.718 370.727 347.111 390.122 347.111 414.047C347.111 437.972 327.718 457.367 303.796 457.367C279.873 457.367 260.48 437.972 260.48 414.047C260.48 390.122 279.873 370.727 303.796 370.727Z" fill="#00618C"/>
<path d="M434.038 0C457.961 0 477.354 19.3951 477.354 43.3202C477.354 67.2453 457.961 86.6405 434.038 86.6405C410.116 86.6405 390.723 67.2453 390.723 43.3202C390.723 19.3951 410.116 0 434.038 0Z" fill="#3498DB"/>
<path d="M782.917 261.689C806.839 261.689 826.232 281.085 826.232 305.01C826.232 328.935 806.839 348.33 782.917 348.33C758.995 348.33 739.602 328.935 739.602 305.01C739.602 281.085 758.995 261.689 782.917 261.689Z" fill="#00618C"/>
<path d="M1174.23 370.727C1198.15 370.727 1217.54 390.122 1217.54 414.047C1217.54 437.972 1198.15 457.367 1174.23 457.367C1150.31 457.367 1130.91 437.972 1130.91 414.047C1130.91 390.122 1150.31 370.727 1174.23 370.727Z" fill="#00618C"/>
<path d="M348.291 982.515C348.291 996.834 345.471 1011.01 339.992 1024.24C334.512 1037.47 326.481 1049.49 316.357 1059.62C306.233 1069.74 294.214 1077.77 280.987 1083.25C267.76 1088.73 253.583 1091.55 239.266 1091.55V982.515H348.291Z" fill="#3498DB"/>
<path d="M696.581 1113.36C689.461 1113.36 682.411 1111.95 675.833 1109.21C669.255 1106.47 663.278 1102.45 658.243 1097.39C653.209 1092.33 649.214 1086.32 646.49 1079.7C643.766 1073.09 642.363 1066 642.363 1058.84C642.363 1051.68 643.766 1044.59 646.49 1037.98C649.214 1031.36 653.209 1025.35 658.243 1020.29C663.278 1015.23 669.255 1011.21 675.833 1008.47C682.411 1005.73 689.461 1004.32 696.581 1004.32V1113.36Z" fill="#048ECB"/>
<path d="M457.316 721.414C450.196 721.414 443.145 720.003 436.567 717.264C429.99 714.525 424.013 710.508 418.977 705.447C413.943 700.383 409.949 694.373 407.225 687.759C404.501 681.145 403.098 674.055 403.098 666.896C403.098 659.736 404.501 652.647 407.225 646.032C409.949 639.418 413.943 633.408 418.977 628.344C424.013 623.283 429.99 619.266 436.567 616.527C443.145 613.788 450.196 612.377 457.316 612.377V721.414Z" fill="#3498DB"/>
<path d="M0 1090.96C7.12 1090.96 14.1703 1092.37 20.7483 1095.11C27.3263 1097.85 33.3032 1101.87 38.3379 1106.93C43.3726 1111.99 47.3661 1118 50.0909 1124.62C52.8156 1131.23 54.2179 1138.32 54.2179 1145.48C54.2179 1152.64 52.8156 1159.73 50.0909 1166.34C47.3661 1172.96 43.3726 1178.97 38.3379 1184.03C33.3032 1189.09 27.3263 1193.11 20.7483 1195.85C14.1703 1198.59 7.12 1200 0 1200V1090.96Z" fill="#00618C"/>
<path d="M218.049 1200C203.731 1200 189.554 1197.19 176.326 1191.72C163.099 1186.26 151.08 1178.25 140.956 1168.15C130.832 1158.05 122.802 1146.06 117.322 1132.87C111.843 1119.68 109.023 1105.54 109.023 1091.26C109.023 1076.98 111.843 1062.84 117.322 1049.64C122.802 1036.45 130.832 1024.46 140.956 1014.36C151.08 1004.27 163.099 996.257 176.326 990.792C189.554 985.327 203.731 982.515 218.049 982.515V1200Z" fill="#048ECB"/>
<path d="M109.023 720.825H218.049V829.863C203.731 829.863 189.554 827.043 176.326 821.563C163.099 816.082 151.08 808.051 140.956 797.925C130.832 787.8 122.802 775.78 117.322 762.552C111.843 749.323 109.023 735.144 109.023 720.825Z" fill="#00618C"/>
<path d="M239.266 612.377C253.583 612.377 267.76 615.189 280.987 620.654C294.214 626.12 306.233 634.13 316.357 644.228C326.481 654.326 334.512 666.313 339.992 679.506C345.471 692.699 348.291 706.84 348.291 721.12C348.291 735.4 345.471 749.541 339.992 762.733C334.512 775.926 326.481 787.914 316.357 798.012C306.233 808.109 294.214 816.119 280.987 821.585C267.76 827.05 253.583 829.862 239.266 829.862V612.377Z" fill="#00618C"/>
<path d="M479.121 1200C479.121 1185.68 481.933 1171.5 487.398 1158.27C492.862 1145.04 500.872 1133.02 510.968 1122.9C521.065 1112.77 533.051 1104.74 546.243 1099.26C559.434 1093.78 573.573 1090.96 587.852 1090.96C602.13 1090.96 616.269 1093.78 629.461 1099.26C642.652 1104.74 654.638 1112.77 664.735 1122.9C674.832 1133.02 682.841 1145.04 688.306 1158.27C693.77 1171.5 696.582 1185.68 696.582 1200H479.121Z" fill="#3498DB"/>
<path d="M935.258 878.192C935.258 892.511 932.446 906.69 926.981 919.919C921.517 933.147 913.508 945.168 903.411 955.293C893.314 965.418 881.328 973.45 868.136 978.93C854.945 984.409 840.806 987.23 826.527 987.23C812.249 987.23 798.11 984.409 784.918 978.93C771.727 973.45 759.741 965.418 749.644 955.293C739.547 945.168 731.538 933.147 726.073 919.919C720.609 906.69 717.797 892.511 717.797 878.192H935.258Z" fill="#048ECB"/>
<path d="M717.797 982.515C732.114 982.515 746.292 985.327 759.519 990.792C772.746 996.257 784.765 1004.27 794.889 1014.36C805.013 1024.46 813.044 1036.45 818.523 1049.64C824.003 1062.84 826.822 1076.98 826.822 1091.26C826.822 1105.54 824.003 1119.68 818.523 1132.87C813.044 1146.06 805.013 1158.05 794.889 1168.15C784.765 1178.25 772.746 1186.26 759.519 1191.72C746.292 1197.19 732.114 1200 717.797 1200V982.515Z" fill="#048ECB"/>
<path d="M609.363 851.67C609.363 837.351 612.175 823.172 617.64 809.944C623.105 796.715 631.114 784.695 641.21 774.57C651.307 764.445 663.294 756.413 676.485 750.933C689.676 745.453 703.815 742.633 718.094 742.633C732.372 742.633 746.512 745.453 759.703 750.933C772.894 756.413 784.88 764.445 794.977 774.57C805.074 784.695 813.083 796.715 818.548 809.944C824.013 823.172 826.824 837.351 826.824 851.67H609.363Z" fill="#00618C"/>
<path d="M696.582 612.377C696.582 626.696 693.77 640.875 688.306 654.103C682.841 667.332 674.832 679.352 664.735 689.477C654.638 699.602 642.652 707.634 629.461 713.114C616.269 718.595 602.13 721.414 587.852 721.414C573.573 721.414 559.434 718.595 546.243 713.114C533.051 707.634 521.065 699.602 510.968 689.477C500.872 679.352 492.862 667.332 487.398 654.103C481.933 640.875 479.121 626.696 479.121 612.377H696.582Z" fill="#00618C"/>
<path d="M457.318 960.707C443.001 960.707 428.823 957.895 415.596 952.43C402.369 946.964 390.351 938.954 380.226 928.856C370.102 918.758 362.072 906.771 356.592 893.578C351.112 880.385 348.293 866.244 348.293 851.964C348.293 837.684 351.112 823.543 356.592 810.351C362.072 797.158 370.102 785.17 380.226 775.072C390.351 764.975 402.369 756.965 415.596 751.499C428.823 746.034 443.001 743.222 457.318 743.222V960.707Z" fill="#3498DB"/>
<path d="M0 960.707V743.222C14.3174 743.222 28.4946 746.034 41.7222 751.499C54.9498 756.965 66.9685 764.975 77.0926 775.072C87.2165 785.17 95.2473 797.158 100.726 810.351C106.205 823.543 109.025 837.684 109.025 851.964C109.025 866.244 106.205 880.385 100.726 893.578C95.2473 906.771 87.2165 918.758 77.0924 928.856C66.9685 938.954 54.9498 946.964 41.7222 952.43C28.4946 957.895 14.3174 960.707 0 960.707Z" fill="#00618C"/>
<path d="M130.242 960.707C130.242 946.388 133.055 932.209 138.519 918.981C143.983 905.752 151.992 893.732 162.089 883.607C172.185 873.482 184.172 865.45 197.363 859.97C210.555 854.49 224.694 851.67 238.973 851.67C253.251 851.67 267.391 854.49 280.582 859.97C293.773 865.45 305.759 873.482 315.856 883.607C325.953 893.732 333.962 905.752 339.427 918.981C344.892 932.209 347.703 946.388 347.703 960.707H130.242Z" fill="#048ECB"/>
<path d="M587.559 982.515C587.559 996.834 584.747 1011.01 579.282 1024.24C573.817 1037.47 565.808 1049.49 555.712 1059.62C545.615 1069.74 533.628 1077.77 520.437 1083.25C507.246 1088.73 493.107 1091.55 478.828 1091.55C464.55 1091.55 450.41 1088.73 437.219 1083.25C424.028 1077.77 412.042 1069.74 401.945 1059.62C391.848 1049.49 383.839 1037.47 378.374 1024.24C372.909 1011.01 370.098 996.834 370.098 982.515H587.559Z" fill="#00618C"/>
<path d="M587.556 851.67H478.531V742.633C492.848 742.633 507.026 745.453 520.253 750.933C533.48 756.413 545.499 764.445 555.623 774.57C565.747 784.695 573.778 796.715 579.257 809.944C584.737 823.172 587.556 837.351 587.556 851.67Z" fill="#3498DB"/>
<path d="M957.064 612.377V721.414H848.039C848.039 707.096 850.858 692.916 856.338 679.688C861.818 666.459 869.848 654.439 879.973 644.314C890.097 634.189 902.116 626.157 915.342 620.677C928.569 615.197 942.747 612.377 957.064 612.377Z" fill="#3498DB"/>
<path d="M587.559 873.478H696.584V982.515C682.267 982.515 668.089 979.695 654.862 974.215C641.635 968.735 629.616 960.703 619.492 950.578C609.368 940.453 601.337 928.432 595.858 915.204C590.378 901.976 587.559 887.796 587.559 873.478Z" fill="#048ECB"/>
<path d="M848.039 1090.96H957.064V1200C942.747 1200 928.569 1197.18 915.342 1191.7C902.116 1186.22 890.097 1178.19 879.973 1168.06C869.848 1157.94 861.818 1145.92 856.338 1132.69C850.858 1119.46 848.039 1105.28 848.039 1090.96Z" fill="#00618C"/>
<path d="M402.806 1090.96C432.912 1090.96 457.318 1115.37 457.318 1145.48V1200H348.293V1145.48C348.293 1115.37 372.699 1090.96 402.806 1090.96Z" fill="#048ECB"/>
<path d="M109.025 666.896C109.025 697.005 84.619 721.414 54.5126 721.414H0V612.377H54.5126C84.619 612.377 109.025 636.786 109.025 666.896Z" fill="#048ECB"/>
<path d="M717.797 666.896C717.797 636.786 742.203 612.377 772.31 612.377H826.822V721.414H772.31C742.203 721.414 717.797 697.005 717.797 666.896Z" fill="#3498DB"/>
<path d="M848.039 797.151C848.039 767.042 872.445 742.633 902.552 742.633H957.064V851.67H902.552C872.445 851.67 848.039 827.261 848.039 797.151Z" fill="#3498DB"/>
<path d="M282.581 1113.36C306.503 1113.36 325.896 1132.75 325.896 1156.68C325.896 1180.6 306.503 1200 282.581 1200C258.659 1200 239.266 1180.6 239.266 1156.68C239.266 1132.75 258.659 1113.36 282.581 1113.36Z" fill="#3498DB"/>
<path d="M43.3154 983.104C67.2379 983.104 86.6308 1002.5 86.6308 1026.42C86.6308 1050.35 67.2379 1069.74 43.3154 1069.74C19.393 1069.74 0 1050.35 0 1026.42C0 1002.5 19.393 983.104 43.3154 983.104Z" fill="#048ECB"/>
<path d="M173.558 612.377C197.48 612.377 216.873 631.772 216.873 655.697C216.873 679.622 197.48 699.017 173.558 699.017C149.635 699.017 130.242 679.622 130.242 655.697C130.242 631.772 149.635 612.377 173.558 612.377Z" fill="#3498DB"/>
<path d="M522.437 874.066C546.359 874.066 565.752 893.462 565.752 917.387C565.752 941.312 546.359 960.707 522.437 960.707C498.514 960.707 479.121 941.312 479.121 917.387C479.121 893.462 498.514 874.066 522.437 874.066Z" fill="#00618C"/>
<path d="M913.749 983.104C937.671 983.104 957.064 1002.5 957.064 1026.42C957.064 1050.35 937.671 1069.74 913.749 1069.74C889.827 1069.74 870.434 1050.35 870.434 1026.42C870.434 1002.5 889.827 983.104 913.749 983.104Z" fill="#00618C"/>
<path d="M1241.12 699.018C1248.24 699.018 1255.29 700.428 1261.87 703.168C1268.45 705.907 1274.42 709.923 1279.46 714.986C1284.49 720.048 1288.49 726.058 1291.21 732.673C1293.94 739.287 1295.34 746.377 1295.34 753.536C1295.34 760.696 1293.94 767.785 1291.21 774.4C1288.49 781.014 1284.49 787.024 1279.46 792.087C1274.42 797.149 1268.45 801.165 1261.87 803.905C1255.29 806.645 1248.24 808.055 1241.12 808.055V699.018Z" fill="#00618C"/>
<path d="M1480.98 1090.96C1488.1 1090.96 1495.15 1092.37 1501.72 1095.11C1508.3 1097.85 1514.28 1101.87 1519.32 1106.93C1524.35 1111.99 1528.34 1118 1531.07 1124.62C1533.79 1131.23 1535.19 1138.32 1535.19 1145.48C1535.19 1152.64 1533.79 1159.73 1531.07 1166.34C1528.34 1172.96 1524.35 1178.97 1519.32 1184.03C1514.28 1189.09 1508.3 1193.11 1501.72 1195.85C1495.15 1198.59 1488.1 1200 1480.98 1200V1090.96Z" fill="#00618C"/>
<path d="M1458.58 612.377C1458.58 626.696 1455.77 640.875 1450.31 654.104C1444.84 667.333 1436.83 679.353 1426.73 689.478C1416.64 699.603 1404.65 707.635 1391.46 713.114C1378.27 718.594 1364.13 721.414 1349.85 721.414C1335.57 721.414 1321.43 718.594 1308.24 713.114C1295.05 707.635 1283.06 699.603 1272.97 689.478C1262.87 679.353 1254.86 667.333 1249.4 654.104C1243.93 640.875 1241.12 626.696 1241.12 612.377H1458.58Z" fill="#3498DB"/>
<path d="M1002.44 934.774C1002.44 920.455 1005.25 906.276 1010.72 893.047C1016.18 879.819 1024.19 867.799 1034.29 857.673C1044.39 847.548 1056.37 839.516 1069.56 834.036C1082.75 828.557 1096.89 825.736 1111.17 825.736C1125.45 825.736 1139.59 828.557 1152.78 834.036C1165.97 839.516 1177.96 847.548 1188.06 857.673C1198.15 867.799 1206.16 879.819 1211.63 893.047C1217.09 906.276 1219.9 920.455 1219.9 934.774H1002.44Z" fill="#3498DB"/>
<path d="M1219.9 829.862C1205.59 829.862 1191.41 827.049 1178.18 821.585C1164.96 816.12 1152.94 808.11 1142.81 798.012C1132.69 787.915 1124.66 775.927 1119.18 762.734C1113.7 749.54 1110.88 735.4 1110.88 721.12C1110.88 706.839 1113.7 692.699 1119.18 679.506C1124.66 666.312 1132.69 654.325 1142.81 644.227C1152.94 634.129 1164.96 626.119 1178.18 620.654C1191.41 615.19 1205.59 612.377 1219.9 612.377V829.862Z" fill="#048ECB"/>
<path d="M1328.34 960.707C1328.34 975.026 1325.53 989.205 1320.06 1002.43C1314.6 1015.66 1306.59 1027.68 1296.49 1037.81C1286.4 1047.93 1274.41 1055.96 1261.22 1061.44C1248.03 1066.92 1233.89 1069.74 1219.61 1069.74C1205.33 1069.74 1191.19 1066.92 1178 1061.44C1164.81 1055.96 1152.82 1047.93 1142.73 1037.81C1132.63 1027.68 1124.62 1015.66 1119.16 1002.43C1113.69 989.205 1110.88 975.026 1110.88 960.707H1328.34Z" fill="#00618C"/>
<path d="M1241.12 1200C1241.12 1185.68 1243.93 1171.5 1249.4 1158.27C1254.86 1145.05 1262.87 1133.03 1272.97 1122.9C1283.06 1112.77 1295.05 1104.74 1308.24 1099.26C1321.43 1093.78 1335.57 1090.96 1349.85 1090.96C1364.13 1090.96 1378.27 1093.78 1391.46 1099.26C1404.65 1104.74 1416.64 1112.77 1426.73 1122.9C1436.83 1133.03 1444.84 1145.05 1450.31 1158.27C1455.77 1171.5 1458.58 1185.68 1458.58 1200H1241.12Z" fill="#048ECB"/>
<path d="M1480.98 852.26C1495.29 852.26 1509.47 855.072 1522.7 860.537C1535.93 866.003 1547.94 874.013 1558.07 884.11C1568.19 894.208 1576.22 906.196 1581.7 919.389C1587.18 932.581 1590 946.722 1590 961.002C1590 975.282 1587.18 989.423 1581.7 1002.62C1576.22 1015.81 1568.19 1027.8 1558.07 1037.89C1547.94 1047.99 1535.93 1056 1522.7 1061.47C1509.47 1066.93 1495.29 1069.75 1480.98 1069.75V852.26Z" fill="#048ECB"/>
<path d="M1350.14 829.863C1350.14 815.544 1352.96 801.365 1358.42 788.136C1363.89 774.907 1371.89 762.887 1381.99 752.762C1392.09 742.636 1404.07 734.605 1417.27 729.125C1430.46 723.646 1444.6 720.825 1458.88 720.825C1473.15 720.825 1487.29 723.646 1500.48 729.125C1513.68 734.605 1525.66 742.636 1535.76 752.762C1545.86 762.887 1553.86 774.907 1559.33 788.136C1564.79 801.365 1567.61 815.544 1567.61 829.863H1350.14Z" fill="#00618C"/>
<path d="M1350.73 960.707H1459.76V1069.74C1445.44 1069.74 1431.26 1066.92 1418.04 1061.44C1404.81 1055.96 1392.79 1047.93 1382.67 1037.81C1372.54 1027.68 1364.51 1015.66 1359.03 1002.43C1353.55 989.205 1350.73 975.026 1350.73 960.707Z" fill="#048ECB"/>
<path d="M980.637 1200V1090.96H1089.66C1089.66 1105.28 1086.84 1119.46 1081.36 1132.69C1075.88 1145.92 1067.85 1157.94 1057.73 1168.06C1047.6 1178.19 1035.59 1186.22 1022.36 1191.7C1009.13 1197.18 994.954 1200 980.637 1200Z" fill="#00618C"/>
<path d="M1350.15 938.9H1241.12V829.862C1255.44 829.862 1269.62 832.682 1282.84 838.162C1296.07 843.642 1308.09 851.674 1318.21 861.799C1328.34 871.925 1336.37 883.945 1341.85 897.173C1347.33 910.402 1350.15 924.581 1350.15 938.9Z" fill="#00618C"/>
<path d="M1089.66 721.414H980.637V612.377C994.954 612.377 1009.13 615.197 1022.36 620.677C1035.59 626.157 1047.6 634.188 1057.73 644.313C1067.85 654.438 1075.88 666.458 1081.36 679.687C1086.84 692.917 1089.66 707.095 1089.66 721.414Z" fill="#00618C"/>
<path d="M1535.49 721.414C1505.38 721.414 1480.98 697.005 1480.98 666.896V612.377H1590V666.896C1590 697.005 1565.6 721.414 1535.49 721.414Z" fill="#048ECB"/>
<path d="M1219.9 1145.48C1219.9 1175.59 1195.5 1200 1165.39 1200H1110.88V1090.96H1165.39C1195.5 1090.96 1219.9 1115.37 1219.9 1145.48Z" fill="#3498DB"/>
<path d="M1089.66 1015.23C1089.66 1045.34 1065.26 1069.74 1035.15 1069.74H980.637V960.707H1035.15C1065.26 960.707 1089.66 985.116 1089.66 1015.23Z" fill="#048ECB"/>
<path d="M1415.85 938.31C1391.93 938.31 1372.54 918.915 1372.54 894.99C1372.54 871.065 1391.93 851.67 1415.85 851.67C1439.78 851.67 1459.17 871.065 1459.17 894.99C1459.17 918.915 1439.78 938.31 1415.85 938.31Z" fill="#048ECB"/>
<path d="M1023.95 829.273C1000.03 829.273 980.637 809.878 980.637 785.953C980.637 762.028 1000.03 742.633 1023.95 742.633C1047.87 742.633 1067.27 762.028 1067.27 785.953C1067.27 809.878 1047.87 829.273 1023.95 829.273Z" fill="#048ECB"/>
</svg>
