<svg width="360" height="900" viewBox="0 0 360 900" fill="none" xmlns="http://www.w3.org/2000/svg">
<path d="M329.783 826.351C329.783 833.471 331.193 840.521 333.933 847.099C336.673 853.677 340.689 859.654 345.751 864.689C350.814 869.724 356.824 873.717 363.438 876.442C370.053 879.167 377.142 880.569 384.302 880.569C391.461 880.569 398.55 879.167 405.165 876.442C411.779 873.717 417.79 869.724 422.852 864.689C427.915 859.654 431.931 853.677 434.67 847.099C437.41 840.521 438.82 833.471 438.82 826.351L384.302 826.351L329.783 826.351Z" fill="#00618C"/>
<path d="M199.527 826.351C199.527 840.668 196.715 854.846 191.25 868.073C185.784 881.301 177.774 893.32 167.677 903.443C157.579 913.568 145.591 921.598 132.398 927.077C119.206 932.556 105.065 935.376 90.7847 935.376C76.5046 935.376 62.3637 932.556 49.1711 927.077C35.9784 921.598 23.9906 913.568 13.8928 903.444C3.79496 893.32 -4.21503 881.301 -9.68044 868.073C-15.1458 854.846 -17.9579 840.668 -17.9579 826.351L90.7847 826.351L199.527 826.351Z" fill="#00618C"/>
<path d="M221.926 869.667C221.926 893.589 241.321 912.982 265.246 912.982C289.171 912.982 308.566 893.589 308.566 869.667C308.566 845.744 289.171 826.351 265.246 826.351C241.321 826.351 221.926 845.744 221.926 869.667Z" fill="#3498DB"/>
<path d="M69.8633 195.773C55.5443 195.773 41.3655 192.954 28.1364 187.474C14.9073 181.995 2.88731 173.964 -7.23767 163.84C-17.3629 153.716 -25.3944 141.697 -30.8741 128.47C-36.3537 115.243 -39.1741 101.065 -39.1741 86.748L69.8633 86.748L69.8633 195.773Z" fill="#00618C"/>
<path d="M-60.9827 544.065C-60.9827 536.945 -59.5726 529.894 -56.8327 523.316C-54.0928 516.739 -50.077 510.762 -45.0146 505.726C-39.952 500.692 -33.9418 496.698 -27.3274 493.974C-20.7128 491.25 -13.6234 489.847 -6.46399 489.847C0.6954 489.847 7.78481 491.25 14.3994 493.974C21.0139 496.698 27.024 500.692 32.0866 505.726C37.149 510.762 41.1648 516.739 43.9047 523.316C46.6446 529.894 48.0547 536.945 48.0547 544.065L-60.9827 544.065Z" fill="#3498DB"/>
<path d="M330.963 304.798C330.963 297.679 332.374 290.628 335.113 284.05C337.852 277.473 341.869 271.496 346.93 266.46C351.994 261.426 358.004 257.432 364.618 254.708C371.232 251.984 378.322 250.581 385.481 250.581C392.641 250.581 399.73 251.984 406.345 254.708C412.959 257.432 418.969 261.426 424.033 266.46C429.094 271.496 433.111 277.473 435.85 284.05C438.589 290.628 440 297.679 440 304.798L330.963 304.798Z" fill="#00618C"/>
<path d="M-147.622 65.532C-147.622 51.2146 -144.809 37.0374 -139.344 23.8098C-133.88 10.5825 -125.87 -1.43648 -115.772 -11.5603C-105.674 -21.6844 -93.6867 -29.715 -80.4934 -35.1942C-67.3001 -40.6731 -53.1597 -43.4932 -38.8794 -43.4932C-24.5991 -43.4932 -10.4586 -40.6731 2.73471 -35.1942C15.9278 -29.715 27.9156 -21.6844 38.0132 -11.5603C48.1111 -1.43647 56.1208 10.5825 61.5858 23.8098C67.0505 37.0374 69.8633 51.2146 69.8633 65.532L-147.622 65.532Z" fill="#00618C"/>
<path d="M330.961 -43.4932L330.961 65.532L221.924 65.532C221.924 51.2146 224.743 37.0374 230.224 23.8098C235.704 10.5825 243.735 -1.43647 253.861 -11.5603C263.986 -21.6844 276.006 -29.715 289.235 -35.1942C302.463 -40.6731 316.642 -43.4932 330.961 -43.4932Z" fill="#3498DB"/>
<path d="M439.41 86.748C439.41 101.065 436.598 115.243 431.133 128.47C425.667 141.697 417.657 153.716 407.559 163.84C397.462 173.964 385.474 181.995 372.281 187.474C359.088 192.954 344.948 195.773 330.668 195.773C316.387 195.773 302.247 192.954 289.054 187.474C275.861 181.995 263.873 173.964 253.776 163.84C243.678 153.716 235.668 141.697 230.202 128.47C224.737 115.243 221.925 101.065 221.925 86.748L439.41 86.748Z" fill="#005073"/>
<path d="M174.773 782.741C160.455 782.741 146.275 779.93 133.047 774.465C119.819 769 107.798 760.991 97.6731 750.894C87.5479 740.798 79.5162 728.811 74.036 715.62C68.5564 702.429 65.7361 688.289 65.7361 674.011C65.7361 659.732 68.5564 645.593 74.036 632.402C79.5162 619.211 87.5479 607.224 97.6731 597.127C107.798 587.031 119.819 579.022 133.047 573.557C146.275 568.092 160.455 565.28 174.773 565.28L174.773 782.741Z" fill="#00618C"/>
<path d="M69.8633 565.28C69.8633 579.597 67.0505 593.775 61.5858 607.002C56.1208 620.229 48.1111 632.248 38.0132 642.372C27.9156 652.496 15.9278 660.527 2.73471 666.007C-10.4586 671.486 -24.5991 674.305 -38.8794 674.305C-53.1597 674.305 -67.3001 671.486 -80.4934 666.007C-93.6867 660.527 -105.674 652.496 -115.772 642.372C-125.87 632.248 -133.88 620.229 -139.344 607.002C-144.809 593.775 -147.622 579.597 -147.622 565.28L69.8633 565.28Z" fill="#005073"/>
<path d="M200.709 456.844C215.028 456.844 229.207 459.656 242.435 465.121C255.664 470.586 267.684 478.595 277.809 488.691C287.934 498.788 295.966 510.775 301.446 523.966C306.926 537.157 309.746 551.296 309.746 565.575C309.746 579.853 306.926 593.993 301.446 607.184C295.966 620.375 287.934 632.361 277.809 642.458C267.684 652.555 255.664 660.564 242.435 666.029C229.207 671.494 215.028 674.305 200.709 674.305L200.709 456.844Z" fill="#048ECB"/>
<path d="M440 544.065C425.681 544.065 411.502 541.253 398.274 535.788C385.045 530.323 373.025 522.314 362.9 512.217C352.774 502.121 344.743 490.134 339.263 476.943C333.782 463.752 330.963 449.613 330.963 435.334C330.963 421.056 333.782 406.916 339.263 393.725C344.743 380.534 352.774 368.547 362.9 358.451C373.025 348.354 385.045 340.345 398.274 334.88C411.502 329.415 425.681 326.604 440 326.604L440 544.065Z" fill="#005073"/>
<path d="M92.2608 304.798C92.2608 290.481 95.0729 276.303 100.538 263.076C106.004 249.849 114.014 237.83 124.112 227.706C134.209 217.582 146.197 209.551 159.39 204.072C172.582 198.592 186.723 195.773 201.003 195.773C215.284 195.773 229.424 198.592 242.617 204.072C255.81 209.552 267.798 217.582 277.895 227.706C287.993 237.831 296.003 249.849 301.469 263.076C306.934 276.303 309.746 290.481 309.746 304.798L92.2608 304.798Z" fill="#3498DB"/>
<path d="M91.6697 -22.2773C105.988 -22.2773 120.168 -19.4649 133.396 -14.0008C146.624 -8.5364 158.645 -0.527536 168.77 9.56918C178.895 19.6657 186.927 31.6522 192.407 44.8438C197.887 58.0356 200.707 72.1747 200.707 86.4532C200.707 100.732 197.887 114.871 192.407 128.062C186.927 141.253 178.895 153.24 168.77 163.337C158.645 173.433 146.624 181.442 133.396 186.907C120.168 192.372 105.988 195.184 91.6697 195.184L91.6697 -22.2773Z" fill="#3498DB"/>
<path d="M69.8633 435.039C55.5443 435.039 41.3655 432.227 28.1364 426.763C14.9073 421.298 2.88731 413.289 -7.23768 403.192C-17.3629 393.095 -25.3944 381.109 -30.8742 367.918C-36.3537 354.726 -39.1741 340.587 -39.1741 326.309C-39.1741 312.03 -36.3537 297.891 -30.8741 284.7C-25.3944 271.509 -17.3629 259.522 -7.23767 249.425C2.88731 239.329 14.9073 231.32 28.1364 225.855C41.3655 220.39 55.5443 217.578 69.8633 217.578L69.8633 435.039Z" fill="#005073"/>
<path d="M200.709 435.039L200.709 326.014L309.746 326.014C309.746 340.331 306.926 354.509 301.446 367.736C295.966 380.963 287.934 392.982 277.809 403.106C267.684 413.23 255.664 421.261 242.435 426.74C229.207 432.22 215.028 435.039 200.709 435.039Z" fill="#3498DB"/>
<path d="M440 804.546L330.963 804.546L330.963 695.521C345.281 695.521 359.461 698.34 372.689 703.82C385.917 709.3 397.938 717.33 408.063 727.454C418.188 737.579 426.22 749.598 431.7 762.824C437.18 776.051 440 790.229 440 804.546Z" fill="#3498DB"/>
<path d="M178.898 435.039L178.898 544.064L69.8611 544.064C69.8611 529.747 72.6808 515.569 78.161 502.342C83.6412 489.116 91.6729 477.097 101.798 466.973C111.923 456.848 123.944 448.818 137.172 443.338C150.4 437.858 164.58 435.039 178.898 435.039Z" fill="#3498DB"/>
<path d="M385.481 565.28C415.591 565.28 440 589.687 440 619.793L440 674.305L330.963 674.305L330.963 619.793C330.963 589.687 355.372 565.28 385.481 565.28Z" fill="#048ECB"/>
<path d="M255.227 695.521C285.337 695.521 309.746 719.927 309.746 750.034L309.746 804.546L200.709 804.546L200.709 750.034C200.709 719.927 225.118 695.521 255.227 695.521Z" fill="#00618C"/>
<path d="M440 21.0381C440 44.9605 420.605 64.3535 396.68 64.3535C372.755 64.3535 353.36 44.9605 353.36 21.0381C353.36 -2.88436 372.755 -22.2773 396.68 -22.2773C420.605 -22.2773 440 -2.88436 440 21.0381Z" fill="#3498DB"/>
<path d="M178.309 369.919C178.309 393.841 158.913 413.234 134.988 413.234C111.063 413.234 91.6681 393.841 91.6681 369.919C91.6681 345.996 111.063 326.604 134.988 326.604C158.913 326.604 178.309 345.997 178.309 369.919Z" fill="#00618C"/>
<path d="M69.2734 761.231C69.2734 785.153 49.8783 804.546 25.9532 804.546C2.0281 804.546 -17.367 785.153 -17.367 761.231C-17.367 737.309 2.02811 717.916 25.9532 717.916C49.8783 717.916 69.2734 737.309 69.2734 761.231Z" fill="#00618C"/>
</svg>
