<svg width="16" height="16" viewBox="0 0 16 16" fill="none" xmlns="http://www.w3.org/2000/svg">
<path d="M1.9005 7.17241V8.27584C1.90037 8.56853 2.06091 8.84922 2.34667 9.05619C2.63249 9.26316 3.0201 9.37937 3.42429 9.37928H4.7957C4.66615 9.19975 4.5492 9.01559 4.44524 8.82756H3.42429C3.00401 8.82666 2.6636 8.58019 2.66239 8.27584V7.17241H3.42429V4.9655H2.66239V4.41378C2.66239 2.28081 5.05018 0.551719 7.9957 0.551719C10.9412 0.551719 13.329 2.28081 13.329 4.41378V4.9655H12.5671V7.17241H14.0909C14.301 7.17194 14.4712 7.04872 14.4719 6.89653V5.24134C14.4712 5.08919 14.3011 4.96594 14.0909 4.96547V4.41375C14.0909 1.97613 11.362 0 7.9957 0C4.62942 0 1.9005 1.97613 1.9005 4.41378V4.9655C1.69038 4.96597 1.52018 5.08919 1.51953 5.24137V6.89656C1.52018 7.04872 1.69034 7.17197 1.9005 7.17241Z" fill="white"/>
<path d="M16 15.4374C16.0031 14.7025 15.4302 14.03 14.5219 13.7022L11.2419 12.3808C10.6514 12.1625 10.2814 11.7216 10.2857 11.2415V10.5767C10.285 10.4568 10.34 10.3402 10.4419 10.2457C10.6425 10.0509 10.8282 9.84833 10.998 9.63877C11.0323 9.60014 11.0666 9.55602 11.1009 9.51186C11.1351 9.4677 11.1657 9.42358 11.1999 9.37945C11.3295 9.19992 11.4464 9.01576 11.5504 8.82773C11.6572 8.63786 11.7438 8.44236 11.8094 8.24292V4.41391C11.8088 4.40188 11.8101 4.38985 11.8132 4.37804C11.864 3.87419 11.6427 3.37575 11.1961 2.98769C10.5638 2.46909 9.48953 2.20703 8 2.20703C6.50668 2.20703 5.4286 2.47184 4.79621 2.99325C4.35098 3.37947 4.13223 3.87653 4.18669 4.3781C4.18984 4.38991 4.19114 4.40194 4.19049 4.41397V8.24295C4.25915 8.44211 4.34697 8.63751 4.45335 8.82776H6.54859C6.70796 8.4982 7.13687 8.27717 7.61908 8.27604H8.76194C9.24506 8.27708 9.67514 8.49795 9.83623 8.82776C9.92768 9.0057 9.92768 9.20155 9.83623 9.37948C9.81897 9.42061 9.79601 9.46036 9.76766 9.49811C9.7441 9.52983 9.71738 9.56027 9.68765 9.58914C9.47183 9.80333 9.12811 9.93036 8.76194 9.9312H7.61908C7.23941 9.9303 6.88467 9.79411 6.6705 9.56708C6.61729 9.50886 6.575 9.4458 6.54479 9.37948H4.80385C4.86862 9.47052 4.93719 9.5588 5.00193 9.6388C5.16941 9.84942 5.35519 10.0521 5.5581 10.2457C5.65999 10.3402 5.71501 10.4568 5.71428 10.5767V11.214C5.71553 11.684 5.35985 12.1164 4.78857 12.3395L1.39429 13.683C0.533055 14.0204 -0.00257993 14.6732 9.34528e-06 15.3823V16.0002H16L16 15.4374Z" fill="white"/>
</svg>
