<svg width="24" height="24" viewBox="0 0 24 24" fill="none" xmlns="http://www.w3.org/2000/svg">
<g clip-path="url(#clip0)">
<path d="M23.6903 19.0496L13.8459 2.7234C13.458 2.08023 12.7506 1.68066 11.9995 1.68066C11.2484 1.68066 10.5409 2.08023 10.153 2.72345L0.308673 19.0496C-0.0921551 19.7144 -0.104014 20.5472 0.277689 21.2232C0.659486 21.8991 1.37883 22.319 2.15508 22.319H21.8439C22.6201 22.319 23.3395 21.8991 23.7213 21.2231C24.103 20.5471 24.0912 19.7143 23.6903 19.0496ZM22.3607 20.4548C22.2556 20.6409 22.0576 20.7565 21.8439 20.7565H2.15508C1.94138 20.7565 1.74333 20.6409 1.63828 20.4549C1.53319 20.2688 1.53647 20.0394 1.64677 19.8565L11.4912 3.5303C11.598 3.35326 11.7928 3.24324 11.9995 3.24324C12.2063 3.24324 12.401 3.35326 12.5078 3.5303L22.3522 19.8565C22.4625 20.0395 22.4658 20.2688 22.3607 20.4548Z" fill="#917A44"/>
<path d="M12.007 8.10962C11.4126 8.10962 10.9487 8.42856 10.9487 8.99396C10.9487 10.7191 11.1517 13.198 11.1517 14.9231C11.1517 15.3725 11.5432 15.561 12.007 15.561C12.3549 15.561 12.8478 15.3725 12.8478 14.9231C12.8478 13.198 13.0507 10.7191 13.0507 8.99396C13.0507 8.4286 12.5724 8.10962 12.007 8.10962Z" fill="#917A44"/>
<path d="M12.022 16.5613C11.3842 16.5613 10.9058 17.0687 10.9058 17.6776C10.9058 18.2719 11.3842 18.7938 12.022 18.7938C12.6164 18.7938 13.1238 18.2719 13.1238 17.6776C13.1238 17.0687 12.6164 16.5613 12.022 16.5613Z" fill="#917A44"/>
</g>
<defs>
<clipPath id="clip0">
<rect width="24" height="24" fill="white"/>
</clipPath>
</defs>
</svg>
