<svg width="24" height="24" viewBox="0 0 24 24" fill="none" xmlns="http://www.w3.org/2000/svg">
<g clip-path="url(#clip0)">
<path d="M20.4894 3.51051C15.8086 -1.17026 8.19199 -1.17073 3.51075 3.51051C-1.17048 8.19175 -1.17002 15.8079 3.51075 20.4891C8.19153 25.1704 15.8081 25.1704 20.4894 20.4891C25.1701 15.8079 25.1701 8.19129 20.4894 3.51051ZM16.7344 16.7342C16.3738 17.0948 15.7892 17.0948 15.4286 16.7342L12.0001 13.3056L8.40855 16.8972C8.04792 17.2578 7.46335 17.2578 7.10272 16.8972C6.74209 16.5365 6.74209 15.9519 7.10272 15.5913L10.6942 11.9998L7.26572 8.57131C6.90509 8.21068 6.90509 7.62564 7.26572 7.26547C7.62635 6.90485 8.21092 6.90485 8.57155 7.26547L12.0001 10.694L15.2651 7.42893C15.6257 7.06831 16.2103 7.06831 16.5709 7.42893C16.9316 7.78956 16.9316 8.37414 16.5709 8.73477L13.3059 11.9998L16.7344 15.4283C17.095 15.7889 17.095 16.3735 16.7344 16.7342Z" fill="#AA2E2D"/>
</g>
<defs>
<clipPath id="clip0">
<rect width="24" height="24" fill="white"/>
</clipPath>
</defs>
</svg>
